<svg width="716" height="464" viewBox="0 0 716 464" fill="none" xmlns="http://www.w3.org/2000/svg">
<path opacity="0.52" d="M401.92 264.94C401.92 264.94 396 254.82 382.98 257.91C374.75 259.86 371.371 247.81 364.551 245.16C352.061 240.3 344.8 264.48 331.01 257.72C321.89 253.25 310.9 264.93 310.9 264.93H401.92V264.94Z" fill="#F0EBF7"/>
<path d="M374.39 145.79L374.08 164.93L374.03 168.19L390.22 166.69L389.16 159.9L386.86 145.16C386.86 145.16 389.09 141.65 390.76 137.25C392.44 132.84 394.12 127.7 395.06 124.87C396 122.04 393.18 122.98 391.29 126.55C389.4 130.12 387.09 132.61 385.83 131.58C384.57 130.54 383.31 120.57 382.79 116.06C382.27 111.55 382.48 105.78 380.48 105.46C378.49 105.14 378.69 117.74 378.59 120.46C378.59 120.46 375.44 120.56 375.02 122.77C375.02 122.77 371.98 122.24 371.24 124.87C371.24 124.87 368.83 124.34 368.61 128.33C368.4 132.32 370.93 143.48 374.39 145.79Z" fill="#F6A49D"/>
<path d="M374.02 168.2L390.21 166.7L389.15 159.91C385.34 160.39 379.04 161.65 374.08 164.94L374.03 168.2H374.02Z" fill="#D47C74"/>
<path d="M429.67 344.33H540.51C543.757 344.33 546.39 341.698 546.39 338.45V98.8301C546.39 95.5827 543.757 92.9501 540.51 92.9501L429.67 92.9501C426.422 92.9501 423.79 95.5827 423.79 98.8301V338.45C423.79 341.698 426.422 344.33 429.67 344.33Z" fill="#7DD0E2"/>
<path d="M416.75 105.01V344.63C416.75 347.88 419.38 350.51 422.62 350.51H533.47C536.71 350.51 539.34 347.88 539.34 344.63V105.01C539.34 101.76 536.71 99.1304 533.47 99.1304H422.62C419.38 99.1304 416.75 101.76 416.75 105.01Z" fill="#BBE3EB"/>
<path d="M398.47 197.66C398.47 151.34 436.19 113.83 482.59 114.17C528.27 114.51 565.45 151.98 565.45 197.66C565.45 240.66 532.94 276.06 491.17 280.64L484.75 299.18C483.83 301.83 480.09 301.83 479.17 299.18L472.75 280.64C430.97 276.05 398.47 240.65 398.47 197.66Z" fill="#7DD0E2"/>
<path d="M391.42 199.23C391.42 152.91 429.14 115.4 475.54 115.74C521.22 116.08 558.4 153.55 558.4 199.23C558.4 242.23 525.89 277.63 484.12 282.21L477.7 300.75C476.78 303.4 473.04 303.4 472.12 300.75L465.7 282.21C423.92 277.62 391.42 242.22 391.42 199.23Z" fill="white"/>
<path opacity="0.52" d="M391.42 199.23C391.42 152.91 429.14 115.4 475.54 115.74C521.22 116.08 558.4 153.55 558.4 199.23C558.4 242.23 525.89 277.63 484.12 282.21L477.7 300.75C476.78 303.4 473.04 303.4 472.12 300.75L465.7 282.21C423.92 277.62 391.42 242.22 391.42 199.23Z" fill="#F0EBF7"/>
<path d="M457.28 159.711C457.28 159.711 449.1 158.32 447.88 146.66C446.66 135 455.88 130.65 461.1 126.3C466.32 121.95 471.19 120.731 477.63 122.651C477.63 122.651 480.29 110.48 493.29 113.6C504.34 116.25 502.34 132.4 495.03 131.88C495.03 131.88 507.39 137.1 508.78 155.37C510.17 173.64 512.96 178.68 532.14 180.25C547.87 181.53 555.07 202.701 545.19 212.271C536.63 220.561 546.54 242.38 518.87 248.12C491.2 253.86 477.28 203.22 477.28 203.22L457.27 159.72L457.28 159.711Z" fill="#3A3E49"/>
<path d="M495.4 159.91C495.4 159.91 502.13 165.27 500.95 175.71C499.77 186.15 508.3 191.37 519.09 194.33C529.88 197.29 539.62 204.42 535.1 216.26C530.58 228.09 535.8 239.58 521.53 245.67C507.26 251.76 465.85 227.47 465.67 224.83C465.5 222.18 474.18 171.72 473.58 171.2C472.98 170.68 482.9 162.53 482.9 162.53L495.41 159.92L495.4 159.91Z" fill="#24292F"/>
<path d="M416.75 327.311V344.641C416.75 347.891 419.38 350.521 422.62 350.521H533.47C536.71 350.521 539.34 347.891 539.34 344.641V327.311H416.74H416.75Z" fill="#7DD0E2"/>
<g opacity="0.74">
<path d="M495.09 406.6C495.09 406.6 495.1 406.64 495.11 406.66C495.59 408.47 497.26 409.72 499.13 409.69L501.51 409.65C503.03 409.62 504.43 410.46 505.17 411.79C505.32 412.05 505.47 412.31 505.62 412.57C506.4 413.88 506.43 415.51 505.65 416.82L504.43 418.85C503.46 420.46 503.72 422.52 505.05 423.85C505.07 423.87 505.08 423.88 505.1 423.9C506.43 425.23 508.49 425.48 510.1 424.52L512.13 423.3C513.44 422.52 515.07 422.54 516.38 423.33C516.64 423.48 516.9 423.63 517.16 423.78C518.49 424.52 519.32 425.92 519.3 427.44L519.26 429.82C519.23 431.69 520.48 433.36 522.29 433.84C522.31 433.84 522.33 433.85 522.35 433.86C524.17 434.34 526.08 433.53 526.99 431.89L528.14 429.81C528.87 428.49 530.26 427.68 531.77 427.71C531.94 427.71 532.11 427.71 532.28 427.71C532.45 427.71 532.62 427.71 532.79 427.71C534.29 427.69 535.69 428.5 536.42 429.81L537.57 431.89C538.48 433.53 540.39 434.34 542.21 433.86C542.23 433.86 542.25 433.85 542.27 433.84C544.08 433.36 545.33 431.69 545.3 429.82L545.26 427.44C545.23 425.92 546.07 424.52 547.4 423.78C547.66 423.63 547.92 423.48 548.18 423.33C549.49 422.55 551.12 422.52 552.43 423.3L554.46 424.52C556.07 425.49 558.13 425.23 559.46 423.9C559.48 423.88 559.49 423.87 559.51 423.85C560.84 422.52 561.09 420.46 560.13 418.85L558.91 416.82C558.13 415.51 558.15 413.88 558.94 412.57C559.09 412.31 559.24 412.05 559.39 411.79C560.13 410.46 561.53 409.63 563.05 409.65L565.43 409.69C567.3 409.72 568.97 408.47 569.45 406.66C569.45 406.64 569.46 406.62 569.47 406.6C569.95 404.78 569.14 402.87 567.5 401.96L565.42 400.81C564.1 400.08 563.29 398.69 563.32 397.18C563.32 397.01 563.32 396.84 563.32 396.67C563.32 396.5 563.32 396.33 563.32 396.16C563.3 394.66 564.11 393.26 565.42 392.53L567.5 391.38C569.14 390.47 569.95 388.56 569.47 386.74C569.47 386.72 569.46 386.7 569.45 386.68C568.97 384.87 567.3 383.62 565.43 383.65L563.05 383.69C561.53 383.72 560.13 382.88 559.39 381.55C559.24 381.29 559.09 381.03 558.94 380.77C558.16 379.46 558.13 377.83 558.91 376.52L560.13 374.49C561.1 372.88 560.84 370.82 559.51 369.49C559.49 369.47 559.48 369.46 559.46 369.44C558.13 368.11 556.07 367.86 554.46 368.82L552.43 370.04C551.12 370.82 549.49 370.8 548.18 370.01C547.92 369.86 547.66 369.71 547.4 369.56C546.07 368.82 545.24 367.42 545.26 365.9L545.3 363.52C545.33 361.65 544.08 359.98 542.27 359.5C542.25 359.5 542.23 359.49 542.21 359.48C540.39 359 538.48 359.81 537.57 361.45L536.42 363.53C535.69 364.85 534.3 365.66 532.79 365.63C532.62 365.63 532.45 365.63 532.28 365.63C532.11 365.63 531.94 365.63 531.77 365.63C530.27 365.65 528.87 364.84 528.14 363.53L526.99 361.45C526.08 359.81 524.17 359 522.35 359.48C522.33 359.48 522.31 359.49 522.29 359.5C520.48 359.98 519.23 361.65 519.26 363.52L519.3 365.9C519.33 367.42 518.49 368.82 517.16 369.56C516.9 369.71 516.64 369.86 516.38 370.01C515.07 370.79 513.44 370.82 512.13 370.04L510.1 368.82C508.49 367.85 506.43 368.11 505.1 369.44C505.08 369.46 505.07 369.47 505.05 369.49C503.72 370.82 503.47 372.88 504.43 374.49L505.65 376.52C506.43 377.83 506.41 379.46 505.62 380.77C505.47 381.03 505.32 381.29 505.17 381.55C504.43 382.88 503.03 383.71 501.51 383.69L499.13 383.65C497.26 383.62 495.59 384.87 495.11 386.68C495.11 386.7 495.1 386.72 495.09 386.74C494.61 388.56 495.42 390.47 497.06 391.38L499.14 392.53C500.46 393.26 501.27 394.65 501.24 396.16C501.24 396.33 501.24 396.5 501.24 396.67C501.24 396.84 501.24 397.01 501.24 397.18C501.26 398.68 500.45 400.08 499.14 400.81L497.06 401.96C495.42 402.87 494.61 404.78 495.09 406.6ZM509.19 396.67C509.19 383.92 519.52 373.59 532.27 373.59C545.02 373.59 555.35 383.92 555.35 396.67C555.35 409.42 545.02 419.75 532.27 419.75C519.52 419.75 509.19 409.42 509.19 396.67Z" fill="#F0EBF7"/>
<path d="M541.887 400.851C544.089 395.535 541.564 389.439 536.247 387.237C530.931 385.035 524.835 387.559 522.633 392.876C520.431 398.193 522.956 404.288 528.272 406.491C533.589 408.693 539.685 406.168 541.887 400.851Z" fill="#F0EBF7"/>
</g>
<path d="M507.49 463.34C507.49 463.34 523.85 429.92 556.76 440.19C556.76 440.19 567.6 401.39 596.02 403.23C624.44 405.06 638.02 435.431 638.02 435.431C638.02 435.431 679.41 419.78 686.99 462.12L507.48 463.34H507.49Z" fill="#D6ECE0"/>
<path d="M596.9 462.33L597.89 462.19C594.6 438.67 607.27 421.8 607.39 421.64L606.6 421.03C606.47 421.2 593.55 438.4 596.9 462.33Z" fill="#93DEB4"/>
<path d="M596.431 447.88L597.241 447.29C597.121 447.13 585.57 431.24 583.59 421.24L582.61 421.43C584.63 431.65 595.951 447.22 596.431 447.88Z" fill="#93DEB4"/>
<path d="M596.89 456.15C605.85 455.59 613.79 444.96 614.13 444.51L613.32 443.92C613.24 444.03 605.32 454.62 596.83 455.15L596.89 456.15Z" fill="#93DEB4"/>
<path d="M567.62 462.06L566.28 461.1C566.12 460.99 550.53 449.94 533.83 449.16L533.78 450.16C547.25 450.79 560.03 458.25 564.24 460.95L547.6 460.37L547.57 461.37L567.62 462.07V462.06Z" fill="#93DEB4"/>
<path d="M555.24 455.81L556.19 455.49C553.63 448.02 548.04 440.72 547.99 440.65L547.2 441.26C547.26 441.33 552.74 448.5 555.25 455.81H555.24Z" fill="#93DEB4"/>
<path d="M633.581 461.88C633.701 461.78 645.841 451.59 659.371 446.84L659.041 445.9C645.321 450.71 633.051 461.02 632.931 461.12L633.581 461.88Z" fill="#93DEB4"/>
<path d="M665.21 458.311L665.67 457.42C665.32 457.24 656.811 452.98 641.141 455.16L641.28 456.15C656.61 454.02 665.131 458.271 665.221 458.311H665.21Z" fill="#93DEB4"/>
<path d="M320.95 444.62C320.95 444.62 320.62 414.3 296.48 396.36C272.34 378.42 252.76 377.44 249.66 374.17C246.56 370.9 246.7 385.09 246.86 390.64C247.02 396.19 245.93 414.94 257.32 433.21C268.71 451.49 304.95 452.47 304.95 452.47L320.94 444.62H320.95Z" fill="#F0EBF7"/>
<path d="M306.78 429.45C306.86 429.45 306.93 429.43 307 429.38C307.18 429.26 307.23 429.01 307.11 428.82C307.01 428.67 297.01 413.73 282.96 401.58C275.85 395.42 268.9 390.82 263.32 387.12C257.82 383.47 253.84 380.84 252.63 378.66C252.52 378.47 252.28 378.4 252.08 378.51C251.89 378.62 251.82 378.86 251.93 379.05C253.24 381.4 257.28 384.08 262.88 387.79C268.44 391.48 275.37 396.07 282.44 402.19C296.4 414.27 306.35 429.12 306.44 429.27C306.52 429.39 306.64 429.45 306.77 429.45H306.78Z" fill="#CBC0E0"/>
<path d="M273.46 413.461C283.75 413.461 292.37 411.701 292.5 411.671C292.72 411.621 292.86 411.411 292.81 411.201C292.76 410.981 292.55 410.841 292.34 410.891C292.15 410.931 272.91 414.861 257.7 410.891C257.49 410.831 257.27 410.961 257.21 411.181C257.15 411.391 257.28 411.611 257.5 411.671C262.66 413.011 268.28 413.461 273.47 413.461H273.46Z" fill="#CBC0E0"/>
<path d="M262.801 395.88C268.181 395.88 273.4 395.17 273.73 395.12C273.95 395.09 274.101 394.89 274.071 394.67C274.041 394.45 273.841 394.3 273.621 394.33C273.501 394.35 261.48 395.98 255.18 394.33C254.97 394.27 254.75 394.4 254.69 394.62C254.63 394.83 254.76 395.05 254.98 395.11C257.18 395.68 260.011 395.88 262.801 395.88Z" fill="#CBC0E0"/>
<path d="M279.481 429.92C288.541 429.92 303.921 426.55 304.701 426.37C304.921 426.32 305.051 426.11 305.001 425.89C304.951 425.67 304.741 425.54 304.521 425.59C304.291 425.64 281.661 430.6 275.121 428.67C274.911 428.61 274.691 428.73 274.621 428.94C274.561 429.15 274.681 429.37 274.891 429.44C276.031 429.78 277.621 429.92 279.471 429.92H279.481Z" fill="#CBC0E0"/>
<path d="M300.311 420.78C300.491 420.78 300.651 420.66 300.701 420.48C300.721 420.38 303.101 410.62 300.701 401.79C300.641 401.58 300.421 401.45 300.211 401.51C300.001 401.57 299.871 401.79 299.931 402C302.281 410.63 299.951 420.19 299.931 420.29C299.881 420.5 300.011 420.72 300.221 420.78C300.251 420.78 300.281 420.79 300.321 420.79L300.311 420.78Z" fill="#CBC0E0"/>
<path d="M285.03 404.36C285.25 404.36 285.43 404.17 285.42 403.95C285.42 403.58 285.25 394.87 283.07 389.24C282.99 389.03 282.76 388.93 282.55 389.01C282.34 389.09 282.24 389.32 282.32 389.53C284.45 395.03 284.611 403.88 284.621 403.97C284.621 404.19 284.8 404.36 285.02 404.36H285.03Z" fill="#CBC0E0"/>
<path d="M249.92 462.08C249.92 462.08 249.85 417.01 299.19 438.93C299.19 438.93 310.03 400.13 338.45 401.97C366.87 403.8 369.62 440.52 369.62 440.52C369.62 440.52 408.54 420.74 429.42 460.86L249.91 462.08H249.92Z" fill="#D6ECE0"/>
<path d="M339.33 461.07L340.32 460.931C337.03 437.411 349.7 420.54 349.82 420.38L349.03 419.771C348.9 419.941 335.98 437.14 339.33 461.07Z" fill="#93DEB4"/>
<path d="M338.87 446.62L339.68 446.031C339.56 445.871 328.01 429.98 326.03 419.98L325.05 420.171C327.07 430.391 338.39 445.96 338.87 446.62Z" fill="#93DEB4"/>
<path d="M339.32 454.891C348.28 454.331 356.22 443.701 356.56 443.251L355.75 442.661C355.67 442.771 347.75 453.361 339.26 453.891L339.32 454.891Z" fill="#93DEB4"/>
<path d="M310.05 460.8L308.71 459.84C308.55 459.73 292.96 448.68 276.26 447.9L276.21 448.9C289.68 449.53 302.46 456.99 306.67 459.69L290.03 459.11L290 460.11L310.05 460.81V460.8Z" fill="#93DEB4"/>
<path d="M297.67 454.56L298.62 454.24C296.06 446.77 290.47 439.47 290.42 439.4L289.63 440.01C289.69 440.08 295.17 447.25 297.68 454.56H297.67Z" fill="#93DEB4"/>
<path d="M376.01 460.63C376.13 460.53 388.27 450.34 401.8 445.59L401.47 444.65C387.75 449.46 375.48 459.77 375.36 459.87L376.01 460.63Z" fill="#93DEB4"/>
<path d="M407.64 457.051L408.1 456.161C407.75 455.981 399.24 451.721 383.57 453.901L383.71 454.891C399.04 452.761 407.56 457.011 407.65 457.051H407.64Z" fill="#93DEB4"/>
<path opacity="0.52" d="M674.39 140.88C674.39 140.88 667.8 129.62 653.32 133.06C644.16 135.23 640.4 121.82 632.82 118.88C618.92 113.47 610.85 140.38 595.5 132.86C585.35 127.89 573.12 140.89 573.12 140.89H674.39V140.88Z" fill="#F0EBF7"/>
<path d="M179.78 462.92L687 462.92V460.99L179.78 460.99V462.92Z" fill="#3A3E49"/>
<path d="M276.54 121.25H322.39C323.79 121.25 324.93 122.39 324.93 123.79V141.65C324.93 143.05 323.79 144.19 322.39 144.19H300.1C299.65 144.19 299.21 144.31 298.82 144.54L282.41 154.09C281.6 154.56 280.68 153.68 281.11 152.85L283.68 147.91C284.56 146.22 283.33 144.19 281.42 144.19H276.53C275.13 144.19 273.99 143.05 273.99 141.65V123.79C273.99 122.39 275.13 121.25 276.53 121.25H276.54Z" fill="#C2E7F0"/>
<path d="M285.38 129.51H316.61V127.25H285.38V129.51Z" fill="white"/>
<path d="M285.38 136.39H316.61V134.13H285.38V136.39Z" fill="white"/>
<g opacity="0.74">
<path d="M456.68 439.87C456.68 439.87 456.68 439.89 456.69 439.9C456.96 440.92 457.9 441.62 458.95 441.6L460.29 441.58C461.15 441.56 461.93 442.03 462.35 442.78C462.43 442.93 462.52 443.07 462.6 443.22C463.04 443.96 463.06 444.87 462.62 445.61L461.93 446.75C461.39 447.66 461.53 448.82 462.28 449.56C462.28 449.56 462.3 449.58 462.31 449.59C463.06 450.34 464.22 450.48 465.12 449.94L466.26 449.25C467 448.81 467.91 448.82 468.65 449.27C468.79 449.35 468.94 449.44 469.09 449.52C469.84 449.94 470.31 450.72 470.29 451.58L470.27 452.92C470.25 453.97 470.96 454.91 471.97 455.18C471.98 455.18 471.99 455.18 472 455.19C473.02 455.46 474.1 455.01 474.61 454.08L475.26 452.91C475.67 452.17 476.45 451.71 477.3 451.73C477.4 451.73 477.49 451.73 477.59 451.73C477.69 451.73 477.78 451.73 477.88 451.73C478.73 451.72 479.51 452.17 479.92 452.91L480.57 454.08C481.08 455 482.16 455.46 483.18 455.19C483.19 455.19 483.2 455.19 483.21 455.18C484.23 454.91 484.93 453.97 484.91 452.92L484.89 451.58C484.87 450.72 485.34 449.94 486.09 449.52C486.24 449.44 486.38 449.35 486.53 449.27C487.27 448.83 488.18 448.81 488.92 449.25L490.06 449.94C490.97 450.48 492.13 450.34 492.87 449.59C492.87 449.59 492.89 449.57 492.9 449.56C493.65 448.81 493.79 447.65 493.25 446.75L492.56 445.61C492.12 444.87 492.13 443.96 492.58 443.22C492.66 443.08 492.75 442.93 492.83 442.78C493.25 442.03 494.03 441.56 494.89 441.58L496.23 441.6C497.28 441.62 498.22 440.91 498.49 439.9C498.49 439.89 498.49 439.88 498.5 439.87C498.77 438.85 498.32 437.77 497.39 437.26L496.22 436.61C495.48 436.2 495.02 435.42 495.04 434.57C495.04 434.47 495.04 434.38 495.04 434.28C495.04 434.18 495.04 434.09 495.04 433.99C495.03 433.14 495.48 432.36 496.22 431.95L497.39 431.3C498.31 430.79 498.77 429.71 498.5 428.69C498.5 428.68 498.5 428.67 498.49 428.66C498.22 427.64 497.28 426.94 496.23 426.96L494.89 426.98C494.03 427 493.25 426.53 492.83 425.78C492.75 425.63 492.66 425.49 492.58 425.34C492.14 424.6 492.12 423.69 492.56 422.95L493.25 421.81C493.79 420.9 493.65 419.74 492.9 419C492.9 419 492.88 418.98 492.87 418.97C492.12 418.22 490.96 418.08 490.06 418.62L488.92 419.31C488.18 419.75 487.27 419.74 486.53 419.29C486.39 419.21 486.24 419.12 486.09 419.04C485.34 418.62 484.87 417.84 484.89 416.98L484.91 415.64C484.93 414.59 484.22 413.65 483.21 413.38C483.2 413.38 483.19 413.38 483.18 413.37C482.16 413.1 481.08 413.55 480.57 414.48L479.92 415.65C479.51 416.39 478.73 416.85 477.88 416.83C477.78 416.83 477.69 416.83 477.59 416.83C477.49 416.83 477.4 416.83 477.3 416.83C476.45 416.84 475.67 416.39 475.26 415.65L474.61 414.48C474.1 413.56 473.02 413.1 472 413.37C471.99 413.37 471.98 413.37 471.97 413.38C470.95 413.65 470.25 414.59 470.27 415.64L470.29 416.98C470.31 417.84 469.84 418.62 469.09 419.04C468.94 419.12 468.8 419.21 468.65 419.29C467.91 419.73 467 419.75 466.26 419.31L465.12 418.62C464.21 418.08 463.05 418.22 462.31 418.97C462.31 418.97 462.29 418.99 462.28 419C461.53 419.75 461.39 420.91 461.93 421.81L462.62 422.95C463.06 423.69 463.05 424.6 462.6 425.34C462.52 425.48 462.43 425.63 462.35 425.78C461.93 426.53 461.15 427 460.29 426.98L458.95 426.96C457.9 426.94 456.96 427.65 456.69 428.66C456.69 428.67 456.69 428.68 456.68 428.69C456.41 429.71 456.86 430.79 457.79 431.3L458.96 431.95C459.7 432.36 460.16 433.14 460.14 433.99C460.14 434.09 460.14 434.18 460.14 434.28C460.14 434.38 460.14 434.47 460.14 434.57C460.15 435.42 459.7 436.2 458.96 436.61L457.79 437.26C456.87 437.77 456.41 438.85 456.68 439.87ZM464.61 434.29C464.61 427.12 470.42 421.31 477.59 421.31C484.76 421.31 490.57 427.12 490.57 434.29C490.57 441.46 484.76 447.27 477.59 447.27C470.42 447.27 464.61 441.46 464.61 434.29Z" fill="#F0EBF7"/>
</g>
<path d="M484.57 159.88L486.02 158.31C486.02 158.31 493.18 153.88 496.31 161.71C499.44 169.54 486.91 174.76 484.56 172.54C482.21 170.32 484.56 159.88 484.56 159.88H484.57Z" fill="#F6A49D"/>
<path d="M380.05 213.45C381.76 216.46 384.92 218.66 388.89 220.3C401.9 225.66 423.52 224.9 430.52 226.36C433.25 226.93 435.06 228.12 436.26 229.75C439.08 233.57 438.49 239.8 438.31 246.03C438.14 251.74 439.4 258.59 442.33 263.58C443.95 266.35 446.09 268.54 448.79 269.66C456.36 272.79 475.94 274.62 492.12 269.66C499.3 267.46 506 257.07 510.79 245.5C516.8 230.97 519.79 214.55 516.88 210.1C513.06 204.25 502.23 201.14 496.67 199.89C494.62 199.43 493.3 199.22 493.3 199.22L487.65 201.4L465.21 198.7C465.21 198.7 460.27 198.81 454.34 198.93C448.2 199.05 441 199.18 437.14 199.18C429.57 199.18 402.42 199.58 399.55 198.18C396.68 196.78 389.75 163.61 389.75 163.61C385.05 162.57 374.09 165.7 374.09 165.7C374.09 165.7 372.75 200.59 380.06 213.46L380.05 213.45Z" fill="#F38AB2"/>
<path d="M454.33 198.92C454.44 205.35 454.22 222.45 467.84 225.29C481.74 228.2 493.57 207.29 496.67 199.88C494.62 199.42 493.3 199.21 493.3 199.21L487.65 201.39L465.21 198.69C465.21 198.69 460.27 198.8 454.34 198.92H454.33Z" fill="white"/>
<path d="M442.33 263.57C443.95 266.34 446.09 268.53 448.79 269.65C456.36 272.78 475.94 274.61 492.12 269.65C499.3 267.45 506 257.06 510.79 245.49C507.08 237.57 503.35 229.74 503.35 229.74C503.35 229.74 499.43 259.86 479.6 265.08C459.76 270.3 442.34 263.58 442.34 263.58L442.33 263.57Z" fill="#DB6592"/>
<path d="M478.05 347.94C483.02 347.94 487.05 343.911 487.05 338.94C487.05 333.97 483.02 329.94 478.05 329.94C473.079 329.94 469.05 333.97 469.05 338.94C469.05 343.911 473.079 347.94 478.05 347.94Z" fill="#F4FAF8"/>
<path d="M471.33 338.94C471.33 342.65 474.34 345.651 478.04 345.651C481.74 345.651 484.75 342.64 484.75 338.94C484.75 335.24 481.74 332.23 478.04 332.23C474.34 332.23 471.33 335.24 471.33 338.94Z" fill="#7DD0E2"/>
<path d="M510.87 206.74C516.34 207.46 525.27 211.02 524.97 248.65C524.97 248.65 521.05 263.51 504.09 265.08C504.09 265.08 500.96 226.97 500.96 218.88C500.96 210.79 507.35 206.28 510.88 206.74H510.87Z" fill="#F38AB2"/>
<path d="M626.22 201.87L629.07 208.71L647.75 253.45L676.09 248.34C676.09 248.34 694.2 259.21 709.77 240.46C717.52 231.12 716.96 224.16 713.22 219.72C709.44 215.26 702.43 213.38 697.4 214.24C687.39 215.95 681.63 214.67 682.69 203.16C683.76 191.65 677.81 182.7 669.7 182.48C661.61 182.27 656.71 185.89 653.51 182.49L653.5 182.48C653.5 182.48 658.62 171.83 651.79 169.27C644.97 166.71 641.56 176.3 641.56 176.3C641.56 176.3 636.34 174.45 631.33 175.71C628.35 176.46 625.44 178.3 623.74 182.27C619.18 192.93 626.21 201.88 626.21 201.88L626.22 201.87Z" fill="#FBD163"/>
<path opacity="0.31" d="M626.22 201.87L629.07 208.71C638.45 205.03 646.11 201.05 642.19 199.05C635.21 195.49 627.92 182.42 631.33 175.71C628.35 176.46 625.44 178.3 623.74 182.27C619.18 192.93 626.21 201.88 626.21 201.88L626.22 201.87Z" fill="white"/>
<path d="M562.64 324.37C563.81 324.8 566.11 324.69 566.8 324.58C567.32 324.5 570.31 323.81 570.31 323.81C570.31 323.81 567.2 325.19 567.04 325.72C566.92 326.14 567.63 326.86 572.31 325.07C574.77 324.13 578.18 321.99 581.02 319.64C583.58 317.51 585.69 315.22 586.28 313.47C587.51 309.77 581.66 307.8 581.66 307.8C581.66 307.8 579.84 308.47 578.12 309.24C577.84 309.37 577.56 309.5 577.3 309.62C575.39 310.54 572.52 311.79 569.63 312.53C566.74 313.27 567.71 314.12 570.22 314.12C572.73 314.12 575.06 313.28 574.72 313.66C573.7 314.8 572.74 315.87 570.28 317.16C567.82 318.45 563.69 320.24 562.71 321.22C561.73 322.2 562.4 322.76 562.4 322.76C562.4 322.76 561.48 323.93 562.65 324.36L562.64 324.37Z" fill="#E9928B"/>
<path d="M578.12 309.24C578.41 312.39 579.15 316.64 581.02 319.64C583.58 317.51 585.69 315.22 586.28 313.47C587.51 309.77 581.66 307.8 581.66 307.8C581.66 307.8 579.84 308.47 578.12 309.24Z" fill="#D47C74"/>
<path d="M579.18 308.32C579.26 309.51 579.8 310.43 580.82 311.61C581.72 312.65 582.97 313.88 584.62 315.68C588.14 319.52 606.89 316.33 617.28 301.78C624.91 291.09 627.98 272.63 629.06 263.6C629.46 260.34 629.59 258.31 629.59 258.31L627.19 231.3C627.19 231.3 626.22 229.7 622.22 232.57C618.22 235.45 614.24 247.28 610.25 259.43C606.25 271.58 601.94 278.93 595.38 287.56C588.83 296.19 579.02 306.1 579.18 308.33V308.32Z" fill="#7DD0E2"/>
<path d="M580.81 311.6C581.71 312.64 582.96 313.871 584.61 315.671C588.13 319.511 606.88 316.321 617.27 301.771C624.9 291.081 627.97 272.62 629.05 263.59C626.03 257.78 621.22 250.46 621.22 250.46C619.33 254.83 616.9 266.281 618.18 274.051C619.36 281.231 613.86 301.01 601.4 309.61C596.89 312.72 584.62 315.68 580.82 311.62L580.81 311.6Z" fill="#6AB0BF"/>
<path d="M622.17 279.01L643.48 283.54L649.23 276.03C649.23 276.03 653.49 272.51 655.41 265.79C656.63 261.51 657.6 257.22 658.59 255.55C658.59 255.55 658.59 255.547 658.59 255.54C659.16 254.61 659.73 254.51 660.36 255.72C662.12 259.08 672.11 270.25 667.76 270.91C663.53 271.55 655.18 272.66 655.18 272.66C656.62 279.53 653.58 283.05 653.58 283.05C653.58 283.05 670.64 304 687.9 295.37C705.16 286.74 688.54 268.36 682.31 253.81C676.08 239.26 665.85 230.31 660.09 228.07C655.7 226.36 650.01 225.77 647.56 225.59C646.79 225.53 646.35 225.51 646.35 225.51C640.42 226.69 634.27 227.93 629.75 229.2C625.73 230.33 623.01 231.5 622.86 232.7C622.54 235.26 619.5 245.01 619.18 251.88C618.86 258.75 622.54 262.75 623.5 265.79C624.46 268.83 622.17 279 622.17 279V279.01Z" fill="#7DD0E2"/>
<path d="M629.76 229.211C630.52 237.561 634.43 243.1 634.43 243.1C644.24 236.38 646.94 228.2 647.58 225.6C646.81 225.54 646.37 225.521 646.37 225.521C640.44 226.701 634.29 227.941 629.77 229.211H629.76Z" fill="white"/>
<path d="M619.36 451.661C618.73 450.181 618.52 447.941 618.55 445.401C618.65 437.561 621.11 426.881 621.11 426.881C621.11 426.881 620.04 425.171 618.53 423.441C615.81 420.311 611.69 417.111 610.01 423.891C609.61 425.531 609.35 427.761 609.28 430.711C609.15 436.611 608.8 441.041 608.17 444.381C606.46 453.431 602.7 454.511 595.69 455.331C586.1 456.451 584.34 462.521 584.34 462.521H622.06C622.06 462.521 621.9 457.721 619.34 451.651L619.36 451.661Z" fill="#745FAA"/>
<path d="M641.9 462.53H667.8C667.8 456.78 666.52 453.9 664.76 446.71C664.54 445.83 664.38 444.82 664.26 443.72C663.4 435.82 664.76 423.37 664.76 423.37L651.97 425.77C651.97 425.77 651.97 431.84 652.13 441.21C652.15 442.5 652.15 443.67 652.11 444.71C651.89 451.3 650.52 453.52 647.49 455.18C643.97 457.1 641.9 462.53 641.9 462.53Z" fill="#745FAA"/>
<path d="M652.13 441.2C652.15 442.49 652.15 443.66 652.11 444.7C656.44 444.57 660.91 444.12 664.26 443.71C663.4 435.81 664.76 423.36 664.76 423.36L651.97 425.76C651.97 425.76 651.97 431.83 652.13 441.2Z" fill="#574780"/>
<path d="M608.19 444.391C611.67 445.251 615.17 445.481 618.56 445.401C618.66 437.561 621.12 426.88 621.12 426.88C621.12 426.88 620.05 425.17 618.54 423.44L610.02 423.891C609.62 425.531 609.36 427.76 609.29 430.71C609.16 436.61 608.81 441.04 608.18 444.38L608.19 444.391Z" fill="#574780"/>
<path d="M604.92 440.68C609.61 441.99 623.87 440.39 623.87 440.39C623.87 440.39 626.43 425.22 627.71 408.6C628.19 402.39 628.25 396 628.12 390.28V390.26C627.9 380.69 627.13 373.03 626.86 371.3C626.43 368.52 638.16 335.92 638.16 335.92C638.16 335.92 644.13 374.92 646.47 384.51C648.81 394.1 649.24 439.39 649.24 439.39C656.27 441.63 667.35 439.39 667.35 439.39C671.7 405.82 669.06 384.08 667.15 371.93C665.23 359.78 668.11 326.85 667.15 311.83C666.96 308.81 666.12 305.55 664.9 302.28C661.43 292.98 654.91 283.54 651.49 278.93C650.13 277.1 649.25 276.03 649.25 276.03C646.83 278.45 639.7 279.16 633.36 279.28C627.42 279.4 622.18 279.01 622.18 279.01C622.18 279.01 621.8 279.69 621.23 280.9C619.83 283.83 617.27 289.84 616.21 296.49C614.72 305.86 605.98 342.95 604.7 350.84C604.04 354.96 602.79 363.2 602.76 369.18C602.72 374.5 603.71 383.48 605.13 394.96C608.12 419.04 604.93 440.68 604.93 440.68H604.92Z" fill="#3A3E49"/>
<path d="M628.41 281.7C628.41 281.7 641.04 282.74 645.67 283.38C650.31 284.02 645.51 294.41 658.3 299.04C661.04 300.03 663.2 301.15 664.89 302.28C661.42 292.98 654.9 283.54 651.48 278.93C650.12 277.1 649.24 276.03 649.24 276.03C646.82 278.45 639.69 279.16 633.35 279.28C630.46 280.67 628.41 281.69 628.41 281.69V281.7Z" fill="#24292F"/>
<path d="M621.22 280.911C637.33 283.291 651.1 279.551 651.1 279.551L651.47 278.94C650.11 277.11 649.23 276.041 649.23 276.041C644.54 280.731 622.16 279.021 622.16 279.021C622.16 279.021 621.78 279.701 621.21 280.911H621.22Z" fill="#745FAA"/>
<path d="M655.2 272.66C655.2 272.66 650.44 271.32 648.12 271.32C645.8 271.32 640.85 273.24 640.13 273.8C639.41 274.36 640.05 275.24 641.49 274.76C641.49 274.76 638.69 275.56 638.85 276.68C639.01 277.8 642.21 277.16 642.21 277.16C642.21 277.16 640.68 278.04 641.57 278.72C642.45 279.4 646.93 278.04 646.93 278.04L648.88 278.52C648.88 278.52 645.17 279.24 644.21 280.2C643.25 281.16 647.16 280.04 648.88 280.2C650.6 280.36 655.1 279.94 655.1 279.94C655.1 279.94 655.58 277.02 655.59 276.04C655.6 275.2 655.21 272.67 655.21 272.67L655.2 272.66Z" fill="#E9928B"/>
<path d="M630.51 229.01C630.51 229.01 631.02 234.9 637.74 234.48C644.45 234.05 645.62 225.68 645.62 225.68L643.04 209.46L639.74 211.68L631.03 217.54L630.7 225L630.52 229.02L630.51 229.01Z" fill="#E9928B"/>
<path d="M630.69 224.99C638.85 223.33 641.92 212.37 641.92 212.37L639.74 211.68L631.03 217.54L630.7 225L630.69 224.99Z" fill="#D47C74"/>
<path d="M624.41 194.94C624.41 194.94 621.59 214.33 627.61 218.17C634.61 222.63 643.17 211.46 644.23 208.9C644.23 208.9 648.3 207.73 648.88 203.04C649.46 198.35 645.09 197.61 643.06 199.31C643.06 199.31 633.19 196.75 630.51 189.19C630.51 189.19 626.12 189.19 624.42 194.94H624.41Z" fill="#E9928B"/>
<path d="M626.86 371.3C626.43 368.52 638.16 335.92 638.16 335.92L634.85 319.51C634.85 319.51 629.73 328.89 628.25 339.54C626.76 350.2 621.87 358.72 621.22 364.05C620.57 369.38 627.13 377.71 628.12 390.26C627.9 380.69 627.13 373.03 626.86 371.3Z" fill="#24292F"/>
<path d="M634.76 320.35L635.27 320.25C631.99 303.69 630.78 281.91 630.77 281.69L630.25 281.72C630.26 281.94 631.47 303.76 634.76 320.35Z" fill="white"/>
<path d="M632.69 306.93L633 306.51C632.92 306.45 625.19 300.42 626.91 281.72L626.39 281.67C624.64 300.69 632.36 306.68 632.69 306.93Z" fill="white"/>
<path d="M659.55 435.7C665.01 435.7 667.88 434.6 668.06 434.53L667.87 434.04C667.81 434.07 661.28 436.55 649.22 434.03L649.11 434.54C653.26 435.41 656.74 435.7 659.54 435.7H659.55Z" fill="white"/>
<path d="M612.22 436.34C617.73 436.34 624.26 435.72 624.68 435.68L624.63 435.16C624.48 435.17 609.34 436.61 605.63 435.18L605.44 435.67C606.75 436.17 609.35 436.34 612.22 436.34Z" fill="white"/>
<path d="M658.61 255.55C659.18 254.62 659.75 254.52 660.38 255.73C662.14 259.09 672.13 270.26 667.78 270.92C667.78 270.92 674.28 272.19 673.96 268.04C673.64 263.89 669.88 263.72 664.89 257.17C659.92 250.65 659.67 252.87 658.6 255.55H658.61Z" fill="#6AB0BF"/>
<path opacity="0.31" d="M653.52 182.48C653.74 182.79 657.66 188.191 664.89 187.151C672.33 186.081 677.05 190.35 671.3 202.92C665.55 215.49 668.86 234.131 681.11 227.001C691.08 221.191 704.04 218.201 713.23 219.701C709.45 215.241 702.44 213.36 697.41 214.22C687.4 215.93 681.64 214.651 682.7 203.141C683.77 191.631 677.82 182.681 669.71 182.461C661.62 182.251 656.72 185.87 653.52 182.47V182.48Z" fill="white"/>
<path d="M643.86 205.52C643.86 205.52 645.25 199.3 647.32 201.59C649.4 203.88 643.86 205.52 643.86 205.52Z" fill="#D47C74"/>
<path opacity="0.52" d="M119.74 376.02C119.74 376.02 115.99 374.9 110.87 367.22C105.75 359.54 97.28 369.991 90.74 357.431C84.19 344.871 79.84 340.98 68.49 351.73C57.14 362.48 49.9401 366.481 41.0901 359.931C32.2401 353.381 27.16 363.14 19.28 369.58C11.4 376.02 3.82992 372.22 0.919922 376.02H119.76H119.74Z" fill="#F0EBF7"/>
<path d="M181.621 328.98C181.331 329.21 177.491 332.17 178.311 333.49C179.161 334.87 189.671 328.78 192.351 327.01C195.031 325.25 196.99 324 196.93 326.16C196.87 328.32 196.08 333.28 196.93 333.48C197.78 333.68 199.351 329.95 200.461 325.77C201.001 323.75 201.53 321.32 201.94 319.35C198.97 318.58 195.451 317.33 193.011 315.43C189.061 319.84 182.491 325.25 182.491 325.25C182.491 325.25 177.65 328.38 178.19 329.37C178.71 330.3 181.381 329.1 181.621 328.98Z" fill="#F6A49D"/>
<path d="M193 315.43C195.44 317.34 198.96 318.58 201.93 319.35C202.37 317.23 202.67 315.64 202.67 315.64C202.67 315.64 197.44 307.61 195.68 311.72C195.26 312.71 194.26 314.02 193 315.43Z" fill="#D47C74"/>
<path d="M321.44 301.32C321.44 301.32 322.47 302.92 323.97 305.06C326.6 308.84 330.66 314.31 332.98 315.61C335.69 317.13 337 316.05 337 316.05C337 316.05 338.98 317.29 340.25 317.11C341.51 316.94 341.41 315.9 341.41 315.9C341.41 315.9 344.341 317.26 344.801 316.28C345.261 315.3 343.46 313.79 343.46 313.79C345.13 314.42 346.11 313.44 345.76 312.7C345.41 311.95 341.051 309.76 339.841 308.85C338.631 307.93 333.34 302.82 334.95 303.33C336.56 303.85 342.771 303.96 341.851 302.87C340.931 301.78 337.311 301.03 334.091 299.24C332.291 298.25 330.05 297.59 328.43 297.21C327.16 296.91 326.271 296.77 326.271 296.77L321.44 301.32Z" fill="#F6A49D"/>
<path d="M321.44 301.32C321.44 301.32 322.47 302.92 323.97 305.06C325.19 301.69 327.23 298.76 328.43 297.21C327.16 296.91 326.271 296.77 326.271 296.77L321.44 301.32Z" fill="#D47C74"/>
<path d="M271.75 434.65C271.75 434.65 272.67 446 271.75 451.68C270.83 457.36 270.69 461.32 270.69 461.32H307C307 461.32 306.081 455.38 293.531 452.21C280.991 449.04 282.041 433.33 282.041 433.33L271.74 434.65H271.75Z" fill="#24292F"/>
<path d="M231.041 433.33C231.041 433.33 230.73 442.04 232.23 448.78C233.81 455.91 233.811 461.32 233.811 461.32H202.521C202.521 461.32 202.85 455.11 211.73 453C220.61 450.89 219.291 439.27 219.821 432.27C220.351 425.27 231.041 433.33 231.041 433.33Z" fill="#24292F"/>
<path d="M214.831 441.96H233.621C233.621 441.96 244.911 387.89 246.121 378.59C247.311 369.47 257.911 332.94 258.321 331.55C258.321 331.52 258.321 331.51 258.321 331.51H263.301C263.301 331.51 268.68 377.24 267.91 392.21C267.29 404.17 267.291 428.76 267.321 438.18C267.321 440.55 267.331 441.96 267.331 441.96H287.39C287.39 441.96 288.58 382.99 290.2 358.63C291.89 333.15 288.341 306.8 286.041 293.21C285.051 287.33 284.281 283.83 284.281 283.83H236.23C236.23 283.83 235.38 288.71 234.2 295.88C232.49 306.2 230.08 321.27 228.47 333.33C225.76 353.77 225.371 373.35 222.271 389.03C219.171 404.71 214.811 441.95 214.811 441.95L214.831 441.96Z" fill="#745FAA"/>
<path d="M234.211 295.89C243.641 294.74 248.161 298.52 263.561 295.65C273.331 293.84 281.071 293.31 286.051 293.21C285.061 287.33 284.291 283.83 284.291 283.83H236.241C236.241 283.83 235.391 288.71 234.211 295.88V295.89Z" fill="#574780"/>
<path d="M263.31 331.51C263.31 331.51 268.69 377.24 267.92 392.21C267.3 404.17 267.3 428.76 267.33 438.18C267.33 438.18 271.41 428.01 269.09 406.21C266.76 384.41 276.94 376.27 273.16 359.99C269.38 343.71 269.67 322.13 269.67 322.13L258.33 331.51H263.31Z" fill="#574780"/>
<path d="M279.871 370.3C279.871 366 281.711 362.63 284.051 362.63C286.391 362.63 288.231 366 288.231 370.3C288.231 374.6 286.391 377.97 284.051 377.97C281.711 377.97 279.871 374.6 279.871 370.3ZM280.391 370.3C280.391 374.24 282.031 377.45 284.051 377.45C286.071 377.45 287.711 374.24 287.711 370.3C287.711 366.36 286.071 363.15 284.051 363.15C282.031 363.15 280.391 366.36 280.391 370.3Z" fill="white"/>
<path d="M230.801 377.91C229.661 377.76 228.711 376.81 228.111 375.24C227.541 373.72 227.371 371.78 227.621 369.77C228.161 365.54 230.421 362.4 232.751 362.69C235.081 362.99 236.471 366.57 235.921 370.83C235.401 374.88 233.321 377.93 231.091 377.93C230.991 377.93 230.891 377.93 230.791 377.91H230.801ZM228.151 369.83C227.901 371.75 228.061 373.61 228.611 375.05C229.131 376.44 229.931 377.27 230.871 377.39C232.911 377.65 234.921 374.64 235.421 370.77C235.921 366.86 234.701 363.47 232.701 363.21C232.621 363.2 232.541 363.19 232.461 363.19C230.521 363.19 228.631 366.11 228.151 369.83Z" fill="white"/>
<mask id="mask0_119_1276" style="mask-type:luminance" maskUnits="userSpaceOnUse" x="191" y="214" width="138" height="104">
<path d="M194.21 314.01L202.13 317.85C207.65 318.43 216.66 293.14 219.57 280.65C222.48 268.15 231.78 253.98 231.78 253.98V289.95C241.55 289.95 247.44 294.71 259.4 293.96C261.31 293.84 263.38 293.59 265.64 293.15C282.06 289.95 290.21 288.75 290.21 288.75L288.18 279.78C288.18 279.78 300.39 294.89 306.2 301C312.01 307.1 322.98 303.63 322.98 303.63C322.4 299.85 328.22 297.18 328.22 297.18C327.35 292.24 312.88 278.62 305.9 269.03C298.92 259.44 286.49 222.98 281.84 219.22C279.81 217.57 275.09 216.51 270.41 215.81C264.38 214.92 258.43 214.67 258.43 214.67C258.43 214.67 249.87 215.04 241.53 215.9C237.99 216.26 234.49 216.71 231.69 217.26C226.07 218.35 217.06 233.47 213.28 243.93C209.5 254.39 198.65 276.3 193.71 288.76C188.77 301.22 194.22 314.03 194.22 314.03L194.21 314.01Z" fill="white"/>
</mask>
<g mask="url(#mask0_119_1276)">
<path d="M194.209 314.01L202.129 317.85C207.649 318.43 216.659 293.14 219.569 280.65C222.479 268.15 231.779 253.98 231.779 253.98V289.95C241.549 289.95 247.439 294.71 259.399 293.96C261.309 293.84 263.379 293.59 265.639 293.15C282.059 289.95 290.209 288.75 290.209 288.75L288.179 279.78C288.179 279.78 300.389 294.89 306.199 301C312.009 307.1 322.979 303.63 322.979 303.63C322.399 299.85 328.219 297.18 328.219 297.18C327.349 292.24 312.879 278.62 305.899 269.03C298.919 259.44 286.49 222.98 281.84 219.22C279.81 217.57 275.089 216.51 270.409 215.81C264.379 214.92 258.429 214.67 258.429 214.67C258.429 214.67 249.869 215.04 241.529 215.9C237.989 216.26 234.489 216.71 231.689 217.26C226.069 218.35 217.059 233.47 213.279 243.93C209.499 254.39 198.649 276.3 193.709 288.76C188.769 301.22 194.219 314.03 194.219 314.03L194.209 314.01Z" fill="#CBC0E0"/>
<path d="M194.209 314.01L202.129 317.85C207.649 318.43 216.659 293.14 219.569 280.65C222.479 268.15 231.779 253.98 231.779 253.98V289.95C241.549 289.95 247.439 294.71 259.399 293.96C261.309 293.84 263.379 293.59 265.639 293.15C282.059 289.95 290.209 288.75 290.209 288.75L288.179 279.78C288.179 279.78 300.389 294.89 306.199 301C312.009 307.1 322.979 303.63 322.979 303.63C322.399 299.85 328.219 297.18 328.219 297.18C327.349 292.24 312.879 278.62 305.899 269.03C298.919 259.44 286.49 222.98 281.84 219.22C279.81 217.57 275.089 216.51 270.409 215.81C264.379 214.92 258.429 214.67 258.429 214.67C258.429 214.67 249.869 215.04 241.529 215.9C237.989 216.26 234.489 216.71 231.689 217.26C226.069 218.35 217.059 233.47 213.279 243.93C209.499 254.39 198.649 276.3 193.709 288.76C188.769 301.22 194.219 314.03 194.219 314.03L194.209 314.01Z" fill="#CBC0E0"/>
<path d="M194.209 314.01L202.129 317.85C207.649 318.43 216.659 293.14 219.569 280.65C222.479 268.15 231.779 253.98 231.779 253.98V289.95C241.549 289.95 247.439 294.71 259.399 293.96C261.309 293.84 263.379 293.59 265.639 293.15C282.059 289.95 290.209 288.75 290.209 288.75L288.179 279.78C288.179 279.78 300.389 294.89 306.199 301C312.009 307.1 322.979 303.63 322.979 303.63C322.399 299.85 328.219 297.18 328.219 297.18C327.349 292.24 312.879 278.62 305.899 269.03C298.919 259.44 286.49 222.98 281.84 219.22C279.81 217.57 275.089 216.51 270.409 215.81C264.379 214.92 258.429 214.67 258.429 214.67C258.429 214.67 249.869 215.04 241.529 215.9C237.989 216.26 234.489 216.71 231.689 217.26C226.069 218.35 217.059 233.47 213.279 243.93C209.499 254.39 198.649 276.3 193.709 288.76C188.769 301.22 194.219 314.03 194.219 314.03L194.209 314.01Z" fill="#CBC0E0"/>
<path d="M231.78 253.97V289.94C241.55 289.94 247.44 294.7 259.4 293.95C257.56 285.09 251.42 287.42 248.93 278.6C246.02 268.33 237.88 269.69 238.86 258.18C239.83 246.68 234.6 239.65 234.22 245.5C233.84 251.35 231.79 253.97 231.79 253.97H231.78Z" fill="#C0AFE0"/>
<path d="M283.23 256.51C284.01 261.84 288.17 279.77 288.17 279.77C288.17 279.77 300.38 294.88 306.19 300.99C312 307.09 322.97 303.62 322.97 303.62C322.97 303.62 307.55 304.47 304.15 294.04C300.76 283.6 291.94 272.4 288.55 268.15C285.16 263.89 282.45 251.19 283.22 256.52L283.23 256.51Z" fill="#C0AFE0"/>
<path d="M199.09 216.51L199.59 213.2L199.01 213.12L198.58 215.95L195.48 216.09L195.02 219.16L191.91 219.31L191.41 222.62L192 222.71L192.43 219.88L195.53 219.73L195.99 216.66L199.09 216.51Z" fill="white"/>
<path d="M214.44 216.51L214.94 213.2L214.36 213.12L213.93 215.95L210.83 216.09L210.37 219.16L207.27 219.31L206.76 222.62L207.35 222.71L207.78 219.88L210.88 219.73L211.34 216.66L214.44 216.51Z" fill="white"/>
<path d="M229.79 216.51L230.29 213.2L229.71 213.12L229.28 215.95L226.18 216.09L225.72 219.16L222.62 219.31L222.12 222.62L222.7 222.71L223.13 219.88L226.23 219.73L226.69 216.66L229.79 216.51Z" fill="white"/>
<path d="M245.151 216.51L245.641 213.2L245.061 213.12L244.631 215.95L241.531 216.09L241.071 219.16L237.971 219.31L237.471 222.62L238.051 222.71L238.481 219.88L241.581 219.73L242.041 216.66L245.151 216.51Z" fill="white"/>
<path d="M260.5 216.51L261 213.2L260.41 213.12L259.99 215.95L256.88 216.09L256.42 219.16L253.32 219.31L252.82 222.62L253.4 222.71L253.83 219.88L256.93 219.73L257.4 216.66L260.5 216.51Z" fill="white"/>
<path d="M275.85 216.51L276.35 213.2L275.76 213.12L275.34 215.95L272.24 216.09L271.77 219.16L268.67 219.31L268.17 222.62L268.75 222.71L269.18 219.88L272.28 219.73L272.75 216.66L275.85 216.51Z" fill="white"/>
<path d="M291.2 216.51L291.7 213.2L291.111 213.12L290.69 215.95L287.591 216.09L287.121 219.16L284.021 219.31L283.521 222.62L284.111 222.71L284.531 219.88L287.64 219.73L288.101 216.66L291.2 216.51Z" fill="white"/>
<path d="M306.55 216.51L307.05 213.2L306.47 213.12L306.04 215.95L302.94 216.09L302.48 219.16L299.37 219.31L298.87 222.62L299.46 222.71L299.89 219.88L302.99 219.73L303.45 216.66L306.55 216.51Z" fill="white"/>
<path d="M321.901 216.51L322.401 213.2L321.821 213.12L321.391 215.95L318.291 216.09L317.831 219.16L314.721 219.31L314.221 222.62L314.811 222.71L315.241 219.88L318.341 219.73L318.801 216.66L321.901 216.51Z" fill="white"/>
<path d="M195.5 231.16L196 227.85L195.42 227.76L194.99 230.59L191.89 230.74L191.43 233.81L188.33 233.96L187.83 237.27L188.41 237.36L188.84 234.52L191.94 234.38L192.4 231.31L195.5 231.16Z" fill="white"/>
<path d="M210.86 231.16L211.35 227.85L210.77 227.76L210.34 230.59L207.24 230.74L206.78 233.81L203.68 233.96L203.18 237.27L203.76 237.36L204.19 234.52L207.29 234.38L207.75 231.31L210.86 231.16Z" fill="white"/>
<path d="M226.21 231.16L226.71 227.85L226.12 227.76L225.7 230.59L222.59 230.74L222.13 233.81L219.03 233.96L218.53 237.27L219.11 237.36L219.54 234.52L222.64 234.38L223.11 231.31L226.21 231.16Z" fill="white"/>
<path d="M241.56 231.16L242.06 227.85L241.47 227.76L241.05 230.59L237.95 230.74L237.48 233.81L234.38 233.96L233.88 237.27L234.46 237.36L234.89 234.52L237.99 234.38L238.46 231.31L241.56 231.16Z" fill="white"/>
<path d="M256.91 231.16L257.41 227.85L256.821 227.76L256.4 230.59L253.301 230.74L252.831 233.81L249.73 233.96L249.23 237.27L249.821 237.36L250.24 234.52L253.351 234.38L253.811 231.31L256.91 231.16Z" fill="white"/>
<path d="M272.26 231.16L272.76 227.85L272.18 227.76L271.75 230.59L268.65 230.74L268.19 233.81L265.08 233.96L264.58 237.27L265.17 237.36L265.6 234.52L268.7 234.38L269.16 231.31L272.26 231.16Z" fill="white"/>
<path d="M287.61 231.16L288.11 227.85L287.53 227.76L287.1 230.59L284 230.74L283.54 233.81L280.43 233.96L279.93 237.27L280.52 237.36L280.95 234.52L284.05 234.38L284.51 231.31L287.61 231.16Z" fill="white"/>
<path d="M302.96 231.16L303.46 227.85L302.88 227.76L302.45 230.59L299.35 230.74L298.89 233.81L295.79 233.96L295.29 237.27L295.87 237.36L296.3 234.52L299.4 234.38L299.86 231.31L302.96 231.16Z" fill="white"/>
<path d="M318.32 231.16L318.81 227.85L318.23 227.76L317.8 230.59L314.7 230.74L314.24 233.81L311.14 233.96L310.64 237.27L311.22 237.36L311.65 234.52L314.75 234.38L315.21 231.31L318.32 231.16Z" fill="white"/>
<path d="M333.67 231.16L334.17 227.85L333.58 227.76L333.16 230.59L330.05 230.74L329.59 233.81L326.49 233.96L325.99 237.27L326.57 237.36L327 234.52L330.1 234.38L330.57 231.31L333.67 231.16Z" fill="white"/>
<path d="M199.09 261.05L199.59 257.74L199.01 257.65L198.58 260.48L195.48 260.63L195.02 263.7L191.91 263.85L191.41 267.16L192 267.25L192.43 264.41L195.53 264.27L195.99 261.2L199.09 261.05Z" fill="white"/>
<path d="M214.44 261.05L214.94 257.74L214.36 257.65L213.93 260.48L210.83 260.63L210.37 263.7L207.27 263.85L206.76 267.16L207.35 267.25L207.78 264.41L210.88 264.27L211.34 261.2L214.44 261.05Z" fill="white"/>
<path d="M229.79 261.05L230.29 257.74L229.71 257.65L229.28 260.48L226.18 260.63L225.72 263.7L222.62 263.85L222.12 267.16L222.7 267.25L223.13 264.41L226.23 264.27L226.69 261.2L229.79 261.05Z" fill="white"/>
<path d="M245.151 261.05L245.641 257.74L245.061 257.65L244.631 260.48L241.531 260.63L241.071 263.7L237.971 263.85L237.471 267.16L238.051 267.25L238.481 264.41L241.581 264.27L242.041 261.2L245.151 261.05Z" fill="white"/>
<path d="M260.5 261.05L261 257.74L260.41 257.65L259.99 260.48L256.88 260.63L256.42 263.7L253.32 263.85L252.82 267.16L253.4 267.25L253.83 264.41L256.93 264.27L257.4 261.2L260.5 261.05Z" fill="white"/>
<path d="M275.85 261.05L276.35 257.74L275.76 257.65L275.34 260.48L272.24 260.63L271.77 263.7L268.67 263.85L268.17 267.16L268.75 267.25L269.18 264.41L272.28 264.27L272.75 261.2L275.85 261.05Z" fill="white"/>
<path d="M291.2 261.05L291.7 257.74L291.111 257.65L290.69 260.48L287.591 260.63L287.121 263.7L284.021 263.85L283.521 267.16L284.111 267.25L284.531 264.41L287.64 264.27L288.101 261.2L291.2 261.05Z" fill="white"/>
<path d="M306.55 261.05L307.05 257.74L306.47 257.65L306.04 260.48L302.94 260.63L302.48 263.7L299.37 263.85L298.87 267.16L299.46 267.25L299.89 264.41L302.99 264.27L303.45 261.2L306.55 261.05Z" fill="white"/>
<path d="M321.901 261.05L322.401 257.74L321.821 257.65L321.391 260.48L318.291 260.63L317.831 263.7L314.721 263.85L314.221 267.16L314.811 267.25L315.241 264.41L318.341 264.27L318.801 261.2L321.901 261.05Z" fill="white"/>
<path d="M195.5 245.96L196 242.65L195.42 242.57L194.99 245.4L191.89 245.54L191.43 248.61L188.33 248.76L187.83 252.07L188.41 252.16L188.84 249.33L191.94 249.18L192.4 246.11L195.5 245.96Z" fill="white"/>
<path d="M210.86 245.96L211.35 242.65L210.77 242.57L210.34 245.4L207.24 245.54L206.78 248.61L203.68 248.76L203.18 252.07L203.76 252.16L204.19 249.33L207.29 249.18L207.75 246.11L210.86 245.96Z" fill="white"/>
<path d="M226.21 245.96L226.71 242.65L226.12 242.57L225.7 245.4L222.59 245.54L222.13 248.61L219.03 248.76L218.53 252.07L219.11 252.16L219.54 249.33L222.64 249.18L223.11 246.11L226.21 245.96Z" fill="white"/>
<path d="M241.56 245.96L242.06 242.65L241.47 242.57L241.05 245.4L237.95 245.54L237.48 248.61L234.38 248.76L233.88 252.07L234.46 252.16L234.89 249.33L237.99 249.18L238.46 246.11L241.56 245.96Z" fill="white"/>
<path d="M256.91 245.96L257.41 242.65L256.821 242.57L256.4 245.4L253.301 245.54L252.831 248.61L249.73 248.76L249.23 252.07L249.821 252.16L250.24 249.33L253.351 249.18L253.811 246.11L256.91 245.96Z" fill="white"/>
<path d="M272.26 245.96L272.76 242.65L272.18 242.57L271.75 245.4L268.65 245.54L268.19 248.61L265.08 248.76L264.58 252.07L265.17 252.16L265.6 249.33L268.7 249.18L269.16 246.11L272.26 245.96Z" fill="white"/>
<path d="M287.61 245.96L288.11 242.65L287.53 242.57L287.1 245.4L284 245.54L283.54 248.61L280.43 248.76L279.93 252.07L280.52 252.16L280.95 249.33L284.05 249.18L284.51 246.11L287.61 245.96Z" fill="white"/>
<path d="M302.96 245.96L303.46 242.65L302.88 242.57L302.45 245.4L299.35 245.54L298.89 248.61L295.79 248.76L295.29 252.07L295.87 252.16L296.3 249.33L299.4 249.18L299.86 246.11L302.96 245.96Z" fill="white"/>
<path d="M318.32 245.96L318.81 242.65L318.23 242.57L317.8 245.4L314.7 245.54L314.24 248.61L311.14 248.76L310.64 252.07L311.22 252.16L311.65 249.33L314.75 249.18L315.21 246.11L318.32 245.96Z" fill="white"/>
<path d="M333.67 245.96L334.17 242.65L333.58 242.57L333.16 245.4L330.05 245.54L329.59 248.61L326.49 248.76L325.99 252.07L326.57 252.16L327 249.33L330.1 249.18L330.57 246.11L333.67 245.96Z" fill="white"/>
<path d="M195.5 275.69L196 272.38L195.42 272.3L194.99 275.13L191.89 275.27L191.43 278.34L188.33 278.49L187.83 281.8L188.41 281.89L188.84 279.06L191.94 278.91L192.4 275.84L195.5 275.69Z" fill="white"/>
<path d="M210.86 275.69L211.35 272.38L210.77 272.3L210.34 275.13L207.24 275.27L206.78 278.34L203.68 278.49L203.18 281.8L203.76 281.89L204.19 279.06L207.29 278.91L207.75 275.84L210.86 275.69Z" fill="white"/>
<path d="M226.21 275.69L226.71 272.38L226.12 272.3L225.7 275.13L222.59 275.27L222.13 278.34L219.03 278.49L218.53 281.8L219.11 281.89L219.54 279.06L222.64 278.91L223.11 275.84L226.21 275.69Z" fill="white"/>
<path d="M241.56 275.69L242.06 272.38L241.47 272.3L241.05 275.13L237.95 275.27L237.48 278.34L234.38 278.49L233.88 281.8L234.46 281.89L234.89 279.06L237.99 278.91L238.46 275.84L241.56 275.69Z" fill="white"/>
<path d="M256.91 275.69L257.41 272.38L256.821 272.3L256.4 275.13L253.301 275.27L252.831 278.34L249.73 278.49L249.23 281.8L249.821 281.89L250.24 279.06L253.351 278.91L253.811 275.84L256.91 275.69Z" fill="white"/>
<path d="M272.26 275.69L272.76 272.38L272.18 272.3L271.75 275.13L268.65 275.27L268.19 278.34L265.08 278.49L264.58 281.8L265.17 281.89L265.6 279.06L268.7 278.91L269.16 275.84L272.26 275.69Z" fill="white"/>
<path d="M287.61 275.69L288.11 272.38L287.53 272.3L287.1 275.13L284 275.27L283.54 278.34L280.43 278.49L279.93 281.8L280.52 281.89L280.95 279.06L284.05 278.91L284.51 275.84L287.61 275.69Z" fill="white"/>
<path d="M302.96 275.69L303.46 272.38L302.88 272.3L302.45 275.13L299.35 275.27L298.89 278.34L295.79 278.49L295.29 281.8L295.87 281.89L296.3 279.06L299.4 278.91L299.86 275.84L302.96 275.69Z" fill="white"/>
<path d="M318.32 275.69L318.81 272.38L318.23 272.3L317.8 275.13L314.7 275.27L314.24 278.34L311.14 278.49L310.64 281.8L311.22 281.89L311.65 279.06L314.75 278.91L315.21 275.84L318.32 275.69Z" fill="white"/>
<path d="M333.67 275.69L334.17 272.38L333.58 272.3L333.16 275.13L330.05 275.27L329.59 278.34L326.49 278.49L325.99 281.8L326.57 281.89L327 279.06L330.1 278.91L330.57 275.84L333.67 275.69Z" fill="white"/>
<path d="M199.09 305.72L199.59 302.42L199.01 302.33L198.58 305.16L195.48 305.31L195.02 308.38L191.91 308.52L191.41 311.83L192 311.92L192.43 309.09L195.53 308.94L195.99 305.87L199.09 305.72Z" fill="white"/>
<path d="M214.44 305.72L214.94 302.42L214.36 302.33L213.93 305.16L210.83 305.31L210.37 308.38L207.27 308.52L206.76 311.83L207.35 311.92L207.78 309.09L210.88 308.94L211.34 305.87L214.44 305.72Z" fill="white"/>
<path d="M229.79 305.72L230.29 302.42L229.71 302.33L229.28 305.16L226.18 305.31L225.72 308.38L222.62 308.52L222.12 311.83L222.7 311.92L223.13 309.09L226.23 308.94L226.69 305.87L229.79 305.72Z" fill="white"/>
<path d="M245.151 305.72L245.641 302.42L245.061 302.33L244.631 305.16L241.531 305.31L241.071 308.38L237.971 308.52L237.471 311.83L238.051 311.92L238.481 309.09L241.581 308.94L242.041 305.87L245.151 305.72Z" fill="white"/>
<path d="M260.5 305.72L261 302.42L260.41 302.33L259.99 305.16L256.88 305.31L256.42 308.38L253.32 308.52L252.82 311.83L253.4 311.92L253.83 309.09L256.93 308.94L257.4 305.87L260.5 305.72Z" fill="white"/>
<path d="M275.85 305.72L276.35 302.42L275.76 302.33L275.34 305.16L272.24 305.31L271.77 308.38L268.67 308.52L268.17 311.83L268.75 311.92L269.18 309.09L272.28 308.94L272.75 305.87L275.85 305.72Z" fill="white"/>
<path d="M291.2 305.72L291.7 302.42L291.111 302.33L290.69 305.16L287.591 305.31L287.121 308.38L284.021 308.52L283.521 311.83L284.111 311.92L284.531 309.09L287.64 308.94L288.101 305.87L291.2 305.72Z" fill="white"/>
<path d="M306.55 305.72L307.05 302.42L306.47 302.33L306.04 305.16L302.94 305.31L302.48 308.38L299.37 308.52L298.87 311.83L299.46 311.92L299.89 309.09L302.99 308.94L303.45 305.87L306.55 305.72Z" fill="white"/>
<path d="M321.901 305.72L322.401 302.42L321.821 302.33L321.391 305.16L318.291 305.31L317.831 308.38L314.721 308.52L314.221 311.83L314.811 311.92L315.241 309.09L318.341 308.94L318.801 305.87L321.901 305.72Z" fill="white"/>
<path d="M195.5 290.64L196 287.33L195.42 287.24L194.99 290.07L191.89 290.22L191.43 293.29L188.33 293.44L187.83 296.75L188.41 296.84L188.84 294L191.94 293.86L192.4 290.79L195.5 290.64Z" fill="white"/>
<path d="M210.86 290.64L211.35 287.33L210.77 287.24L210.34 290.07L207.24 290.22L206.78 293.29L203.68 293.44L203.18 296.75L203.76 296.84L204.19 294L207.29 293.86L207.75 290.79L210.86 290.64Z" fill="white"/>
<path d="M226.21 290.64L226.71 287.33L226.12 287.24L225.7 290.07L222.59 290.22L222.13 293.29L219.03 293.44L218.53 296.75L219.11 296.84L219.54 294L222.64 293.86L223.11 290.79L226.21 290.64Z" fill="white"/>
<path d="M241.56 290.64L242.06 287.33L241.47 287.24L241.05 290.07L237.95 290.22L237.48 293.29L234.38 293.44L233.88 296.75L234.46 296.84L234.89 294L237.99 293.86L238.46 290.79L241.56 290.64Z" fill="white"/>
<path d="M256.91 290.64L257.41 287.33L256.821 287.24L256.4 290.07L253.301 290.22L252.831 293.29L249.73 293.44L249.23 296.75L249.821 296.84L250.24 294L253.351 293.86L253.811 290.79L256.91 290.64Z" fill="white"/>
<path d="M272.26 290.64L272.76 287.33L272.18 287.24L271.75 290.07L268.65 290.22L268.19 293.29L265.08 293.44L264.58 296.75L265.17 296.84L265.6 294L268.7 293.86L269.16 290.79L272.26 290.64Z" fill="white"/>
<path d="M287.61 290.64L288.11 287.33L287.53 287.24L287.1 290.07L284 290.22L283.54 293.29L280.43 293.44L279.93 296.75L280.52 296.84L280.95 294L284.05 293.86L284.51 290.79L287.61 290.64Z" fill="white"/>
<path d="M302.96 290.64L303.46 287.33L302.88 287.24L302.45 290.07L299.35 290.22L298.89 293.29L295.79 293.44L295.29 296.75L295.87 296.84L296.3 294L299.4 293.86L299.86 290.79L302.96 290.64Z" fill="white"/>
<path d="M318.32 290.64L318.81 287.33L318.23 287.24L317.8 290.07L314.7 290.22L314.24 293.29L311.14 293.44L310.64 296.75L311.22 296.84L311.65 294L314.75 293.86L315.21 290.79L318.32 290.64Z" fill="white"/>
<path d="M333.67 290.64L334.17 287.33L333.58 287.24L333.16 290.07L330.05 290.22L329.59 293.29L326.49 293.44L325.99 296.75L326.57 296.84L327 294L330.1 293.86L330.57 290.79L333.67 290.64Z" fill="white"/>
<path d="M195.5 320.37L196 317.06L195.42 316.97L194.99 319.8L191.89 319.95L191.43 323.02L188.33 323.17L187.83 326.48L188.41 326.57L188.84 323.74L191.94 323.59L192.4 320.52L195.5 320.37Z" fill="white"/>
<path d="M210.86 320.37L211.35 317.06L210.77 316.97L210.34 319.8L207.24 319.95L206.78 323.02L203.68 323.17L203.18 326.48L203.76 326.57L204.19 323.74L207.29 323.59L207.75 320.52L210.86 320.37Z" fill="white"/>
<path d="M226.21 320.37L226.71 317.06L226.12 316.97L225.7 319.8L222.59 319.95L222.13 323.02L219.03 323.17L218.53 326.48L219.11 326.57L219.54 323.74L222.64 323.59L223.11 320.52L226.21 320.37Z" fill="white"/>
<path d="M241.56 320.37L242.06 317.06L241.47 316.97L241.05 319.8L237.95 319.95L237.48 323.02L234.38 323.17L233.88 326.48L234.46 326.57L234.89 323.74L237.99 323.59L238.46 320.52L241.56 320.37Z" fill="white"/>
<path d="M256.91 320.37L257.41 317.06L256.821 316.97L256.4 319.8L253.301 319.95L252.831 323.02L249.73 323.17L249.23 326.48L249.821 326.57L250.24 323.74L253.351 323.59L253.811 320.52L256.91 320.37Z" fill="white"/>
<path d="M272.26 320.37L272.76 317.06L272.18 316.97L271.75 319.8L268.65 319.95L268.19 323.02L265.08 323.17L264.58 326.48L265.17 326.57L265.6 323.74L268.7 323.59L269.16 320.52L272.26 320.37Z" fill="white"/>
<path d="M287.61 320.37L288.11 317.06L287.53 316.97L287.1 319.8L284 319.95L283.54 323.02L280.43 323.17L279.93 326.48L280.52 326.57L280.95 323.74L284.05 323.59L284.51 320.52L287.61 320.37Z" fill="white"/>
<path d="M302.96 320.37L303.46 317.06L302.88 316.97L302.45 319.8L299.35 319.95L298.89 323.02L295.79 323.17L295.29 326.48L295.87 326.57L296.3 323.74L299.4 323.59L299.86 320.52L302.96 320.37Z" fill="white"/>
<path d="M318.32 320.37L318.81 317.06L318.23 316.97L317.8 319.8L314.7 319.95L314.24 323.02L311.14 323.17L310.64 326.48L311.22 326.57L311.65 323.74L314.75 323.59L315.21 320.52L318.32 320.37Z" fill="white"/>
<path d="M333.67 320.37L334.17 317.06L333.58 316.97L333.16 319.8L330.05 319.95L329.59 323.02L326.49 323.17L325.99 326.48L326.57 326.57L327 323.74L330.1 323.59L330.57 320.52L333.67 320.37Z" fill="white"/>
<path d="M194.209 314.01L202.129 317.85C207.649 318.43 216.659 293.14 219.569 280.65C222.479 268.15 231.779 253.98 231.779 253.98V289.95C241.549 289.95 247.439 294.71 259.399 293.96C261.309 293.84 263.379 293.59 265.639 293.15C282.059 289.95 290.209 288.75 290.209 288.75L288.179 279.78C288.179 279.78 300.389 294.89 306.199 301C312.009 307.1 322.979 303.63 322.979 303.63C322.399 299.85 328.219 297.18 328.219 297.18C327.349 292.24 312.879 278.62 305.899 269.03C298.919 259.44 286.49 222.98 281.84 219.22C279.81 217.57 275.089 216.51 270.409 215.81C264.379 214.92 258.429 214.67 258.429 214.67C258.429 214.67 249.869 215.04 241.529 215.9C237.989 216.26 234.489 216.71 231.689 217.26C226.069 218.35 217.059 233.47 213.279 243.93C209.499 254.39 198.649 276.3 193.709 288.76C188.769 301.22 194.219 314.03 194.219 314.03L194.209 314.01Z" fill="#CBC0E0"/>
<path d="M194.209 314.01L202.129 317.85C207.649 318.43 216.659 293.14 219.569 280.65C222.479 268.15 231.779 253.98 231.779 253.98V289.95C241.549 289.95 247.439 294.71 259.399 293.96C261.309 293.84 263.379 293.59 265.639 293.15C282.059 289.95 290.209 288.75 290.209 288.75L288.179 279.78C288.179 279.78 300.389 294.89 306.199 301C312.009 307.1 322.979 303.63 322.979 303.63C322.399 299.85 328.219 297.18 328.219 297.18C327.349 292.24 312.879 278.62 305.899 269.03C298.919 259.44 286.49 222.98 281.84 219.22C279.81 217.57 275.089 216.51 270.409 215.81C264.379 214.92 258.429 214.67 258.429 214.67C258.429 214.67 249.869 215.04 241.529 215.9C237.989 216.26 234.489 216.71 231.689 217.26C226.069 218.35 217.059 233.47 213.279 243.93C209.499 254.39 198.649 276.3 193.709 288.76C188.769 301.22 194.219 314.03 194.219 314.03L194.209 314.01Z" fill="#CBC0E0"/>
<path d="M231.78 253.97V289.94C241.55 289.94 247.44 294.7 259.4 293.95C257.56 285.09 251.42 287.42 248.93 278.6C246.02 268.33 237.88 269.69 238.86 258.18C239.83 246.68 234.6 239.65 234.22 245.5C233.84 251.35 231.79 253.97 231.79 253.97H231.78Z" fill="#C0AFE0"/>
<path d="M283.23 256.51C284.01 261.84 288.17 279.77 288.17 279.77C288.17 279.77 300.38 294.88 306.19 300.99C312 307.09 322.97 303.62 322.97 303.62C322.97 303.62 307.55 304.47 304.15 294.04C300.76 283.6 291.94 272.4 288.55 268.15C285.16 263.89 282.45 251.19 283.22 256.52L283.23 256.51Z" fill="#C0AFE0"/>
<path d="M199.09 216.51L199.59 213.2L199.01 213.12L198.58 215.95L195.48 216.09L195.02 219.16L191.91 219.31L191.41 222.62L192 222.71L192.43 219.88L195.53 219.73L195.99 216.66L199.09 216.51Z" fill="white"/>
<path d="M214.44 216.51L214.94 213.2L214.36 213.12L213.93 215.95L210.83 216.09L210.37 219.16L207.27 219.31L206.76 222.62L207.35 222.71L207.78 219.88L210.88 219.73L211.34 216.66L214.44 216.51Z" fill="white"/>
<path d="M229.79 216.51L230.29 213.2L229.71 213.12L229.28 215.95L226.18 216.09L225.72 219.16L222.62 219.31L222.12 222.62L222.7 222.71L223.13 219.88L226.23 219.73L226.69 216.66L229.79 216.51Z" fill="white"/>
<path d="M245.151 216.51L245.641 213.2L245.061 213.12L244.631 215.95L241.531 216.09L241.071 219.16L237.971 219.31L237.471 222.62L238.051 222.71L238.481 219.88L241.581 219.73L242.041 216.66L245.151 216.51Z" fill="white"/>
<path d="M260.5 216.51L261 213.2L260.41 213.12L259.99 215.95L256.88 216.09L256.42 219.16L253.32 219.31L252.82 222.62L253.4 222.71L253.83 219.88L256.93 219.73L257.4 216.66L260.5 216.51Z" fill="white"/>
<path d="M275.85 216.51L276.35 213.2L275.76 213.12L275.34 215.95L272.24 216.09L271.77 219.16L268.67 219.31L268.17 222.62L268.75 222.71L269.18 219.88L272.28 219.73L272.75 216.66L275.85 216.51Z" fill="white"/>
<path d="M291.2 216.51L291.7 213.2L291.111 213.12L290.69 215.95L287.591 216.09L287.121 219.16L284.021 219.31L283.521 222.62L284.111 222.71L284.531 219.88L287.64 219.73L288.101 216.66L291.2 216.51Z" fill="white"/>
<path d="M306.55 216.51L307.05 213.2L306.47 213.12L306.04 215.95L302.94 216.09L302.48 219.16L299.37 219.31L298.87 222.62L299.46 222.71L299.89 219.88L302.99 219.73L303.45 216.66L306.55 216.51Z" fill="white"/>
<path d="M321.901 216.51L322.401 213.2L321.821 213.12L321.391 215.95L318.291 216.09L317.831 219.16L314.721 219.31L314.221 222.62L314.811 222.71L315.241 219.88L318.341 219.73L318.801 216.66L321.901 216.51Z" fill="white"/>
<path d="M195.5 231.16L196 227.85L195.42 227.76L194.99 230.59L191.89 230.74L191.43 233.81L188.33 233.96L187.83 237.27L188.41 237.36L188.84 234.52L191.94 234.38L192.4 231.31L195.5 231.16Z" fill="white"/>
<path d="M210.86 231.16L211.35 227.85L210.77 227.76L210.34 230.59L207.24 230.74L206.78 233.81L203.68 233.96L203.18 237.27L203.76 237.36L204.19 234.52L207.29 234.38L207.75 231.31L210.86 231.16Z" fill="white"/>
<path d="M226.21 231.16L226.71 227.85L226.12 227.76L225.7 230.59L222.59 230.74L222.13 233.81L219.03 233.96L218.53 237.27L219.11 237.36L219.54 234.52L222.64 234.38L223.11 231.31L226.21 231.16Z" fill="white"/>
<path d="M241.56 231.16L242.06 227.85L241.47 227.76L241.05 230.59L237.95 230.74L237.48 233.81L234.38 233.96L233.88 237.27L234.46 237.36L234.89 234.52L237.99 234.38L238.46 231.31L241.56 231.16Z" fill="white"/>
<path d="M256.91 231.16L257.41 227.85L256.821 227.76L256.4 230.59L253.301 230.74L252.831 233.81L249.73 233.96L249.23 237.27L249.821 237.36L250.24 234.52L253.351 234.38L253.811 231.31L256.91 231.16Z" fill="white"/>
<path d="M272.26 231.16L272.76 227.85L272.18 227.76L271.75 230.59L268.65 230.74L268.19 233.81L265.08 233.96L264.58 237.27L265.17 237.36L265.6 234.52L268.7 234.38L269.16 231.31L272.26 231.16Z" fill="white"/>
<path d="M287.61 231.16L288.11 227.85L287.53 227.76L287.1 230.59L284 230.74L283.54 233.81L280.43 233.96L279.93 237.27L280.52 237.36L280.95 234.52L284.05 234.38L284.51 231.31L287.61 231.16Z" fill="white"/>
<path d="M302.96 231.16L303.46 227.85L302.88 227.76L302.45 230.59L299.35 230.74L298.89 233.81L295.79 233.96L295.29 237.27L295.87 237.36L296.3 234.52L299.4 234.38L299.86 231.31L302.96 231.16Z" fill="white"/>
<path d="M318.32 231.16L318.81 227.85L318.23 227.76L317.8 230.59L314.7 230.74L314.24 233.81L311.14 233.96L310.64 237.27L311.22 237.36L311.65 234.52L314.75 234.38L315.21 231.31L318.32 231.16Z" fill="white"/>
<path d="M333.67 231.16L334.17 227.85L333.58 227.76L333.16 230.59L330.05 230.74L329.59 233.81L326.49 233.96L325.99 237.27L326.57 237.36L327 234.52L330.1 234.38L330.57 231.31L333.67 231.16Z" fill="white"/>
<path d="M199.09 261.05L199.59 257.74L199.01 257.65L198.58 260.48L195.48 260.63L195.02 263.7L191.91 263.85L191.41 267.16L192 267.25L192.43 264.41L195.53 264.27L195.99 261.2L199.09 261.05Z" fill="white"/>
<path d="M214.44 261.05L214.94 257.74L214.36 257.65L213.93 260.48L210.83 260.63L210.37 263.7L207.27 263.85L206.76 267.16L207.35 267.25L207.78 264.41L210.88 264.27L211.34 261.2L214.44 261.05Z" fill="white"/>
<path d="M229.79 261.05L230.29 257.74L229.71 257.65L229.28 260.48L226.18 260.63L225.72 263.7L222.62 263.85L222.12 267.16L222.7 267.25L223.13 264.41L226.23 264.27L226.69 261.2L229.79 261.05Z" fill="white"/>
<path d="M245.151 261.05L245.641 257.74L245.061 257.65L244.631 260.48L241.531 260.63L241.071 263.7L237.971 263.85L237.471 267.16L238.051 267.25L238.481 264.41L241.581 264.27L242.041 261.2L245.151 261.05Z" fill="white"/>
<path d="M260.5 261.05L261 257.74L260.41 257.65L259.99 260.48L256.88 260.63L256.42 263.7L253.32 263.85L252.82 267.16L253.4 267.25L253.83 264.41L256.93 264.27L257.4 261.2L260.5 261.05Z" fill="white"/>
<path d="M275.85 261.05L276.35 257.74L275.76 257.65L275.34 260.48L272.24 260.63L271.77 263.7L268.67 263.85L268.17 267.16L268.75 267.25L269.18 264.41L272.28 264.27L272.75 261.2L275.85 261.05Z" fill="white"/>
<path d="M291.2 261.05L291.7 257.74L291.111 257.65L290.69 260.48L287.591 260.63L287.121 263.7L284.021 263.85L283.521 267.16L284.111 267.25L284.531 264.41L287.64 264.27L288.101 261.2L291.2 261.05Z" fill="white"/>
<path d="M306.55 261.05L307.05 257.74L306.47 257.65L306.04 260.48L302.94 260.63L302.48 263.7L299.37 263.85L298.87 267.16L299.46 267.25L299.89 264.41L302.99 264.27L303.45 261.2L306.55 261.05Z" fill="white"/>
<path d="M321.901 261.05L322.401 257.74L321.821 257.65L321.391 260.48L318.291 260.63L317.831 263.7L314.721 263.85L314.221 267.16L314.811 267.25L315.241 264.41L318.341 264.27L318.801 261.2L321.901 261.05Z" fill="white"/>
<path d="M195.5 245.96L196 242.65L195.42 242.57L194.99 245.4L191.89 245.54L191.43 248.61L188.33 248.76L187.83 252.07L188.41 252.16L188.84 249.33L191.94 249.18L192.4 246.11L195.5 245.96Z" fill="white"/>
<path d="M210.86 245.96L211.35 242.65L210.77 242.57L210.34 245.4L207.24 245.54L206.78 248.61L203.68 248.76L203.18 252.07L203.76 252.16L204.19 249.33L207.29 249.18L207.75 246.11L210.86 245.96Z" fill="white"/>
<path d="M226.21 245.96L226.71 242.65L226.12 242.57L225.7 245.4L222.59 245.54L222.13 248.61L219.03 248.76L218.53 252.07L219.11 252.16L219.54 249.33L222.64 249.18L223.11 246.11L226.21 245.96Z" fill="white"/>
<path d="M241.56 245.96L242.06 242.65L241.47 242.57L241.05 245.4L237.95 245.54L237.48 248.61L234.38 248.76L233.88 252.07L234.46 252.16L234.89 249.33L237.99 249.18L238.46 246.11L241.56 245.96Z" fill="white"/>
<path d="M256.91 245.96L257.41 242.65L256.821 242.57L256.4 245.4L253.301 245.54L252.831 248.61L249.73 248.76L249.23 252.07L249.821 252.16L250.24 249.33L253.351 249.18L253.811 246.11L256.91 245.96Z" fill="white"/>
<path d="M272.26 245.96L272.76 242.65L272.18 242.57L271.75 245.4L268.65 245.54L268.19 248.61L265.08 248.76L264.58 252.07L265.17 252.16L265.6 249.33L268.7 249.18L269.16 246.11L272.26 245.96Z" fill="white"/>
<path d="M287.61 245.96L288.11 242.65L287.53 242.57L287.1 245.4L284 245.54L283.54 248.61L280.43 248.76L279.93 252.07L280.52 252.16L280.95 249.33L284.05 249.18L284.51 246.11L287.61 245.96Z" fill="white"/>
<path d="M302.96 245.96L303.46 242.65L302.88 242.57L302.45 245.4L299.35 245.54L298.89 248.61L295.79 248.76L295.29 252.07L295.87 252.16L296.3 249.33L299.4 249.18L299.86 246.11L302.96 245.96Z" fill="white"/>
<path d="M318.32 245.96L318.81 242.65L318.23 242.57L317.8 245.4L314.7 245.54L314.24 248.61L311.14 248.76L310.64 252.07L311.22 252.16L311.65 249.33L314.75 249.18L315.21 246.11L318.32 245.96Z" fill="white"/>
<path d="M333.67 245.96L334.17 242.65L333.58 242.57L333.16 245.4L330.05 245.54L329.59 248.61L326.49 248.76L325.99 252.07L326.57 252.16L327 249.33L330.1 249.18L330.57 246.11L333.67 245.96Z" fill="white"/>
<path d="M195.5 275.69L196 272.38L195.42 272.3L194.99 275.13L191.89 275.27L191.43 278.34L188.33 278.49L187.83 281.8L188.41 281.89L188.84 279.06L191.94 278.91L192.4 275.84L195.5 275.69Z" fill="white"/>
<path d="M210.86 275.69L211.35 272.38L210.77 272.3L210.34 275.13L207.24 275.27L206.78 278.34L203.68 278.49L203.18 281.8L203.76 281.89L204.19 279.06L207.29 278.91L207.75 275.84L210.86 275.69Z" fill="white"/>
<path d="M226.21 275.69L226.71 272.38L226.12 272.3L225.7 275.13L222.59 275.27L222.13 278.34L219.03 278.49L218.53 281.8L219.11 281.89L219.54 279.06L222.64 278.91L223.11 275.84L226.21 275.69Z" fill="white"/>
<path d="M241.56 275.69L242.06 272.38L241.47 272.3L241.05 275.13L237.95 275.27L237.48 278.34L234.38 278.49L233.88 281.8L234.46 281.89L234.89 279.06L237.99 278.91L238.46 275.84L241.56 275.69Z" fill="white"/>
<path d="M256.91 275.69L257.41 272.38L256.821 272.3L256.4 275.13L253.301 275.27L252.831 278.34L249.73 278.49L249.23 281.8L249.821 281.89L250.24 279.06L253.351 278.91L253.811 275.84L256.91 275.69Z" fill="white"/>
<path d="M272.26 275.69L272.76 272.38L272.18 272.3L271.75 275.13L268.65 275.27L268.19 278.34L265.08 278.49L264.58 281.8L265.17 281.89L265.6 279.06L268.7 278.91L269.16 275.84L272.26 275.69Z" fill="white"/>
<path d="M287.61 275.69L288.11 272.38L287.53 272.3L287.1 275.13L284 275.27L283.54 278.34L280.43 278.49L279.93 281.8L280.52 281.89L280.95 279.06L284.05 278.91L284.51 275.84L287.61 275.69Z" fill="white"/>
<path d="M302.96 275.69L303.46 272.38L302.88 272.3L302.45 275.13L299.35 275.27L298.89 278.34L295.79 278.49L295.29 281.8L295.87 281.89L296.3 279.06L299.4 278.91L299.86 275.84L302.96 275.69Z" fill="white"/>
<path d="M318.32 275.69L318.81 272.38L318.23 272.3L317.8 275.13L314.7 275.27L314.24 278.34L311.14 278.49L310.64 281.8L311.22 281.89L311.65 279.06L314.75 278.91L315.21 275.84L318.32 275.69Z" fill="white"/>
<path d="M333.67 275.69L334.17 272.38L333.58 272.3L333.16 275.13L330.05 275.27L329.59 278.34L326.49 278.49L325.99 281.8L326.57 281.89L327 279.06L330.1 278.91L330.57 275.84L333.67 275.69Z" fill="white"/>
<path d="M199.09 305.72L199.59 302.42L199.01 302.33L198.58 305.16L195.48 305.31L195.02 308.38L191.91 308.52L191.41 311.83L192 311.92L192.43 309.09L195.53 308.94L195.99 305.87L199.09 305.72Z" fill="white"/>
<path d="M214.44 305.72L214.94 302.42L214.36 302.33L213.93 305.16L210.83 305.31L210.37 308.38L207.27 308.52L206.76 311.83L207.35 311.92L207.78 309.09L210.88 308.94L211.34 305.87L214.44 305.72Z" fill="white"/>
<path d="M229.79 305.72L230.29 302.42L229.71 302.33L229.28 305.16L226.18 305.31L225.72 308.38L222.62 308.52L222.12 311.83L222.7 311.92L223.13 309.09L226.23 308.94L226.69 305.87L229.79 305.72Z" fill="white"/>
<path d="M245.151 305.72L245.641 302.42L245.061 302.33L244.631 305.16L241.531 305.31L241.071 308.38L237.971 308.52L237.471 311.83L238.051 311.92L238.481 309.09L241.581 308.94L242.041 305.87L245.151 305.72Z" fill="white"/>
<path d="M260.5 305.72L261 302.42L260.41 302.33L259.99 305.16L256.88 305.31L256.42 308.38L253.32 308.52L252.82 311.83L253.4 311.92L253.83 309.09L256.93 308.94L257.4 305.87L260.5 305.72Z" fill="white"/>
<path d="M275.85 305.72L276.35 302.42L275.76 302.33L275.34 305.16L272.24 305.31L271.77 308.38L268.67 308.52L268.17 311.83L268.75 311.92L269.18 309.09L272.28 308.94L272.75 305.87L275.85 305.72Z" fill="white"/>
<path d="M291.2 305.72L291.7 302.42L291.111 302.33L290.69 305.16L287.591 305.31L287.121 308.38L284.021 308.52L283.521 311.83L284.111 311.92L284.531 309.09L287.64 308.94L288.101 305.87L291.2 305.72Z" fill="white"/>
<path d="M306.55 305.72L307.05 302.42L306.47 302.33L306.04 305.16L302.94 305.31L302.48 308.38L299.37 308.52L298.87 311.83L299.46 311.92L299.89 309.09L302.99 308.94L303.45 305.87L306.55 305.72Z" fill="white"/>
<path d="M321.901 305.72L322.401 302.42L321.821 302.33L321.391 305.16L318.291 305.31L317.831 308.38L314.721 308.52L314.221 311.83L314.811 311.92L315.241 309.09L318.341 308.94L318.801 305.87L321.901 305.72Z" fill="white"/>
<path d="M195.5 290.64L196 287.33L195.42 287.24L194.99 290.07L191.89 290.22L191.43 293.29L188.33 293.44L187.83 296.75L188.41 296.84L188.84 294L191.94 293.86L192.4 290.79L195.5 290.64Z" fill="white"/>
<path d="M210.86 290.64L211.35 287.33L210.77 287.24L210.34 290.07L207.24 290.22L206.78 293.29L203.68 293.44L203.18 296.75L203.76 296.84L204.19 294L207.29 293.86L207.75 290.79L210.86 290.64Z" fill="white"/>
<path d="M226.21 290.64L226.71 287.33L226.12 287.24L225.7 290.07L222.59 290.22L222.13 293.29L219.03 293.44L218.53 296.75L219.11 296.84L219.54 294L222.64 293.86L223.11 290.79L226.21 290.64Z" fill="white"/>
<path d="M241.56 290.64L242.06 287.33L241.47 287.24L241.05 290.07L237.95 290.22L237.48 293.29L234.38 293.44L233.88 296.75L234.46 296.84L234.89 294L237.99 293.86L238.46 290.79L241.56 290.64Z" fill="white"/>
<path d="M256.91 290.64L257.41 287.33L256.821 287.24L256.4 290.07L253.301 290.22L252.831 293.29L249.73 293.44L249.23 296.75L249.821 296.84L250.24 294L253.351 293.86L253.811 290.79L256.91 290.64Z" fill="white"/>
<path d="M272.26 290.64L272.76 287.33L272.18 287.24L271.75 290.07L268.65 290.22L268.19 293.29L265.08 293.44L264.58 296.75L265.17 296.84L265.6 294L268.7 293.86L269.16 290.79L272.26 290.64Z" fill="white"/>
<path d="M287.61 290.64L288.11 287.33L287.53 287.24L287.1 290.07L284 290.22L283.54 293.29L280.43 293.44L279.93 296.75L280.52 296.84L280.95 294L284.05 293.86L284.51 290.79L287.61 290.64Z" fill="white"/>
<path d="M302.96 290.64L303.46 287.33L302.88 287.24L302.45 290.07L299.35 290.22L298.89 293.29L295.79 293.44L295.29 296.75L295.87 296.84L296.3 294L299.4 293.86L299.86 290.79L302.96 290.64Z" fill="white"/>
<path d="M318.32 290.64L318.81 287.33L318.23 287.24L317.8 290.07L314.7 290.22L314.24 293.29L311.14 293.44L310.64 296.75L311.22 296.84L311.65 294L314.75 293.86L315.21 290.79L318.32 290.64Z" fill="white"/>
<path d="M333.67 290.64L334.17 287.33L333.58 287.24L333.16 290.07L330.05 290.22L329.59 293.29L326.49 293.44L325.99 296.75L326.57 296.84L327 294L330.1 293.86L330.57 290.79L333.67 290.64Z" fill="white"/>
<path d="M195.5 320.37L196 317.06L195.42 316.97L194.99 319.8L191.89 319.95L191.43 323.02L188.33 323.17L187.83 326.48L188.41 326.57L188.84 323.74L191.94 323.59L192.4 320.52L195.5 320.37Z" fill="white"/>
<path d="M210.86 320.37L211.35 317.06L210.77 316.97L210.34 319.8L207.24 319.95L206.78 323.02L203.68 323.17L203.18 326.48L203.76 326.57L204.19 323.74L207.29 323.59L207.75 320.52L210.86 320.37Z" fill="white"/>
<path d="M226.21 320.37L226.71 317.06L226.12 316.97L225.7 319.8L222.59 319.95L222.13 323.02L219.03 323.17L218.53 326.48L219.11 326.57L219.54 323.74L222.64 323.59L223.11 320.52L226.21 320.37Z" fill="white"/>
<path d="M241.56 320.37L242.06 317.06L241.47 316.97L241.05 319.8L237.95 319.95L237.48 323.02L234.38 323.17L233.88 326.48L234.46 326.57L234.89 323.74L237.99 323.59L238.46 320.52L241.56 320.37Z" fill="white"/>
<path d="M256.91 320.37L257.41 317.06L256.821 316.97L256.4 319.8L253.301 319.95L252.831 323.02L249.73 323.17L249.23 326.48L249.821 326.57L250.24 323.74L253.351 323.59L253.811 320.52L256.91 320.37Z" fill="white"/>
<path d="M272.26 320.37L272.76 317.06L272.18 316.97L271.75 319.8L268.65 319.95L268.19 323.02L265.08 323.17L264.58 326.48L265.17 326.57L265.6 323.74L268.7 323.59L269.16 320.52L272.26 320.37Z" fill="white"/>
<path d="M287.61 320.37L288.11 317.06L287.53 316.97L287.1 319.8L284 319.95L283.54 323.02L280.43 323.17L279.93 326.48L280.52 326.57L280.95 323.74L284.05 323.59L284.51 320.52L287.61 320.37Z" fill="white"/>
<path d="M302.96 320.37L303.46 317.06L302.88 316.97L302.45 319.8L299.35 319.95L298.89 323.02L295.79 323.17L295.29 326.48L295.87 326.57L296.3 323.74L299.4 323.59L299.86 320.52L302.96 320.37Z" fill="white"/>
<path d="M318.32 320.37L318.81 317.06L318.23 316.97L317.8 319.8L314.7 319.95L314.24 323.02L311.14 323.17L310.64 326.48L311.22 326.57L311.65 323.74L314.75 323.59L315.21 320.52L318.32 320.37Z" fill="white"/>
<path d="M333.67 320.37L334.17 317.06L333.58 316.97L333.16 319.8L330.05 319.95L329.59 323.02L326.49 323.17L325.99 326.48L326.57 326.57L327 323.74L330.1 323.59L330.57 320.52L333.67 320.37Z" fill="white"/>
</g>
<path d="M239.19 190.24C241.08 197.36 246.6 199.4 247.18 201.87C247.76 204.34 251.251 205.5 251.251 205.5L252.811 202.97L259.621 191.89L262.88 186.61L266.851 182.78C266.851 182.78 272.62 174.4 269.71 170.19C269.54 169.94 269.37 169.72 269.2 169.53C266.44 166.45 263.561 170.19 263.561 170.19C263.561 170.19 263.03 159.58 256.63 159.14C250.24 158.7 248.64 169.46 248.64 169.46C248.64 169.46 246.75 164.23 242.68 167.86C238.61 171.49 243.991 180.36 243.991 180.36C243.991 180.36 243.991 180.36 243.971 180.36C243.811 180.44 242.811 180.89 241.741 181.8C240.001 183.28 238.07 185.97 239.2 190.23L239.19 190.24Z" fill="#3A3E49"/>
<path d="M239.191 190.24C241.081 197.36 246.601 199.4 247.181 201.87C247.761 204.34 251.251 205.5 251.251 205.5L252.811 202.97C252.521 201.1 252.231 199.29 252.231 199.29C251.981 199.34 243.651 195.68 241.131 188.74C239.821 185.14 240.641 183.02 241.731 181.81C239.991 183.29 238.061 185.98 239.191 190.24Z" fill="#24292F"/>
<path d="M259.621 191.89L262.88 186.61L266.851 182.78C266.851 182.78 272.62 174.4 269.71 170.19C269.54 169.94 269.37 169.72 269.2 169.53C268.54 184.5 251.351 185.98 251.351 185.98C251.351 185.98 254.181 189.74 259.621 191.9V191.89Z" fill="#24292F"/>
<path d="M241.521 215.88C243.071 219.22 249.89 232.38 259.92 230.35C267.95 228.72 269.94 220.55 270.41 215.79C264.38 214.9 258.43 214.65 258.43 214.65C258.43 214.65 249.871 215.02 241.531 215.88H241.521Z" fill="#745FAA"/>
<path d="M249.801 215.04C249.801 215.04 252.551 223.73 258.341 223.38C261.031 223.22 263.111 221.1 263.501 218.51C263.561 218.11 263.581 217.71 263.551 217.3L263.251 212.19L263.171 210.79L262.781 204.19L251.171 196.8L250.581 196.42L249.811 215.03L249.801 215.04Z" fill="#F6A49D"/>
<path d="M251.351 199.16C253.191 209.72 259.481 211.89 263.251 212.2L262.781 204.2L251.171 196.81C251.141 197.48 251.201 198.26 251.361 199.16H251.351Z" fill="#D47C74"/>
<path d="M260.801 209.91L263.501 218.51C263.561 218.11 263.581 217.71 263.551 217.3L263.251 212.19L263.171 210.79L261.381 208.63L260.801 209.91Z" fill="#D47C74"/>
<path d="M266.85 182.78C266.85 182.78 272.08 204.77 264.14 208.07C256.2 211.36 251.35 199.16 251.35 199.16C251.35 199.16 245.34 198.97 244.76 194.12C244.18 189.28 250.19 192.96 250.19 192.96C250.19 192.96 251.55 189.67 251.35 185.98C251.35 185.98 262.98 185.98 266.85 182.78Z" fill="#F6A49D"/>
<path opacity="0.3" d="M252.23 192.94C252.23 195.03 253.92 196.72 256.01 196.72C257.45 196.72 258.701 195.91 259.341 194.73C259.621 194.2 259.791 193.59 259.791 192.95C259.791 190.86 258.1 189.17 256.01 189.17C254.65 189.17 253.451 189.89 252.791 190.97C252.431 191.54 252.23 192.22 252.23 192.95V192.94Z" fill="white"/>
<path opacity="0.47" d="M252.23 192.94C252.23 195.03 253.92 196.72 256.01 196.72C257.45 196.72 258.701 195.91 259.341 194.73C257.291 193.58 254.691 192.07 252.791 190.97C252.431 191.54 252.23 192.22 252.23 192.95V192.94Z" fill="white"/>
<path d="M251.811 192.94C251.811 195.26 253.69 197.14 256.01 197.14C258.33 197.14 260.21 195.26 260.21 192.94C260.21 190.62 258.33 188.74 256.01 188.74C253.69 188.74 251.811 190.62 251.811 192.94ZM252.321 192.94C252.321 190.9 253.97 189.26 256 189.26C258.03 189.26 259.68 190.91 259.68 192.94C259.68 194.97 258.03 196.62 256 196.62C253.97 196.62 252.321 194.97 252.321 192.94Z" fill="#24292F"/>
<path opacity="0.3" d="M261.811 191.7C261.811 193.79 263.501 195.48 265.591 195.48C267.031 195.48 268.28 194.67 268.92 193.49C269.2 192.96 269.371 192.35 269.371 191.71C269.371 189.62 267.681 187.93 265.591 187.93C264.231 187.93 263.031 188.65 262.371 189.73C262.011 190.3 261.811 190.98 261.811 191.71V191.7Z" fill="white"/>
<path opacity="0.47" d="M261.811 191.7C261.811 193.79 263.501 195.48 265.591 195.48C267.031 195.48 268.28 194.67 268.92 193.49C266.87 192.34 264.271 190.83 262.371 189.73C262.011 190.3 261.811 190.98 261.811 191.71V191.7Z" fill="white"/>
<path d="M261.391 191.7C261.391 194.02 263.271 195.9 265.591 195.9C267.911 195.9 269.791 194.02 269.791 191.7C269.791 189.38 267.911 187.5 265.591 187.5C263.271 187.5 261.391 189.38 261.391 191.7ZM261.901 191.7C261.901 189.66 263.551 188.02 265.581 188.02C267.611 188.02 269.261 189.67 269.261 191.7C269.261 193.73 267.611 195.38 265.581 195.38C263.551 195.38 261.901 193.73 261.901 191.7Z" fill="#24292F"/>
<path d="M250.121 197.14C250.121 197.14 248.671 193.8 247.291 194.16C245.911 194.52 246.281 197.68 250.121 197.14Z" fill="#D47C74"/>
<path d="M467.37 198.17L457.28 198.86C457.28 198.86 457.63 222.04 469.7 222.01C485.53 221.96 493.3 199.21 493.3 199.21L487.64 198.25L467.37 198.16V198.17Z" fill="#F6A49D"/>
<path d="M463.63 183.24V199.42C463.63 199.42 466.24 206.73 474.98 205.81C483.72 204.9 487.64 198.24 487.64 198.24L485.68 167.44L463.63 183.23V183.24Z" fill="#F6A49D"/>
<path d="M463.63 191.99C475.35 191.38 483.53 174.44 483.53 174.44L477.05 173.63L463.63 182.81V191.99Z" fill="#D47C74"/>
<path d="M452.8 151.66C452.8 151.66 453.28 166.531 455.45 174.891C457.58 183.071 461.06 189.38 470.33 185.98C480.95 182.09 485.3 171.5 485.3 171.5L486.61 157.93C486.61 157.93 464.81 148.01 462.73 138.48C462.73 138.48 459.08 147.88 452.81 151.66H452.8Z" fill="#F6A49D"/>
<path d="M486.03 167.88C486.03 167.88 488.47 160.31 490.99 161.27C493.51 162.23 491.51 165.97 486.03 167.88Z" fill="#D47C74"/>
<path d="M388.89 220.29C401.9 225.66 423.52 224.89 430.52 226.35C433.25 226.92 435.06 228.11 436.26 229.74C436.26 229.74 434.87 220.72 421.47 221.54C408.07 222.35 388.89 220.29 388.89 220.29Z" fill="#DB6592"/>
<path opacity="0.3" d="M449.96 161.02C449.63 157.76 452.01 154.86 455.27 154.53C457.52 154.3 459.6 155.37 460.78 157.12C461.31 157.9 461.65 158.83 461.75 159.84C462.08 163.1 459.7 166 456.44 166.33C454.31 166.54 452.34 165.61 451.14 164.02C450.49 163.18 450.07 162.15 449.95 161.02H449.96Z" fill="white"/>
<path opacity="0.47" d="M449.96 161.02C449.63 157.76 452.01 154.86 455.27 154.53C457.52 154.3 459.6 155.37 460.78 157.12C457.76 159.23 453.93 162 451.15 164.01C450.5 163.17 450.08 162.14 449.96 161.01V161.02Z" fill="white"/>
<path d="M456.51 166.98C460.13 166.62 462.77 163.39 462.41 159.77C462.05 156.15 458.82 153.51 455.2 153.87C451.59 154.23 448.94 157.46 449.3 161.08C449.66 164.7 452.9 167.34 456.51 166.98ZM455.28 154.68C458.46 154.36 461.29 156.68 461.6 159.85C461.92 163.03 459.6 165.86 456.43 166.17C453.26 166.49 450.42 164.17 450.11 161C449.79 157.82 452.11 154.99 455.28 154.68Z" fill="#24292F"/>
<path opacity="0.3" d="M465.1 161.47C464.77 158.21 467.15 155.31 470.41 154.98C472.66 154.75 474.74 155.82 475.92 157.57C476.45 158.35 476.79 159.28 476.89 160.29C477.22 163.55 474.84 166.45 471.58 166.78C469.45 166.99 467.48 166.06 466.28 164.47C465.63 163.63 465.21 162.6 465.09 161.47H465.1Z" fill="white"/>
<path opacity="0.47" d="M465.1 161.47C464.77 158.21 467.15 155.31 470.41 154.98C472.66 154.75 474.74 155.82 475.92 157.57C472.9 159.68 469.07 162.45 466.29 164.46C465.64 163.62 465.22 162.59 465.1 161.46V161.47Z" fill="white"/>
<path d="M471.66 167.43C475.28 167.07 477.92 163.84 477.56 160.22C477.2 156.6 473.97 153.96 470.35 154.32C466.74 154.68 464.09 157.91 464.45 161.53C464.81 165.15 468.05 167.79 471.66 167.43ZM470.43 155.13C473.61 154.81 476.44 157.13 476.75 160.3C477.07 163.48 474.75 166.31 471.58 166.62C468.41 166.94 465.57 164.62 465.26 161.45C464.94 158.27 467.26 155.44 470.43 155.13Z" fill="#24292F"/>
<path d="M522.72 104.45V118.01C522.72 119.86 524.95 120.81 526.28 119.52L541.81 104.46H522.72V104.45Z" fill="#7DD0E2"/>
<path d="M512.15 111.36L612.37 111.36C614.342 111.36 615.94 109.762 615.94 107.79V82.6603C615.94 80.6887 614.342 79.0904 612.37 79.0904L512.15 79.0904C510.178 79.0904 508.58 80.6887 508.58 82.6603V107.79C508.58 109.762 510.178 111.36 512.15 111.36Z" fill="#7DD0E2"/>
<path d="M507.28 107.72L608.08 107.72C609.891 107.72 611.36 106.252 611.36 104.44V83.8202C611.36 82.0087 609.891 80.5402 608.08 80.5402L507.28 80.5402C505.468 80.5402 504 82.0087 504 83.8202V104.44C504 106.252 505.468 107.72 507.28 107.72Z" fill="white"/>
<path d="M593.1 104.45C598.888 104.45 603.58 99.7582 603.58 93.9702C603.58 88.1823 598.888 83.4902 593.1 83.4902C587.312 83.4902 582.62 88.1823 582.62 93.9702C582.62 99.7582 587.312 104.45 593.1 104.45Z" fill="#C2E7F0"/>
<path d="M517.03 86.0103H571C571.76 86.0103 572.38 86.6303 572.38 87.3903C572.38 88.1503 571.76 88.7703 571 88.7703H517.03C516.27 88.7703 515.65 88.1503 515.65 87.3903C515.65 86.6303 516.27 86.0103 517.03 86.0103Z" fill="#C2E7F0"/>
<path d="M517.03 92.5903H571C571.76 92.5903 572.38 93.2103 572.38 93.9703C572.38 94.7303 571.76 95.3503 571 95.3503H517.03C516.27 95.3503 515.65 94.7303 515.65 93.9703C515.65 93.2103 516.27 92.5903 517.03 92.5903Z" fill="#C2E7F0"/>
<path d="M548.78 102.021H571.41C571.946 102.021 572.38 101.586 572.38 101.051V100.241C572.38 99.7048 571.946 99.2705 571.41 99.2705H548.78C548.244 99.2705 547.81 99.7048 547.81 100.241V101.051C547.81 101.586 548.244 102.021 548.78 102.021Z" fill="#C2E7F0"/>
<path d="M518.14 104.45V118.01C518.14 119.86 520.37 120.81 521.7 119.52L537.23 104.46H518.14V104.45Z" fill="white"/>
<path d="M463.26 173.34C463.91 173.25 466.69 172.92 469.21 173.52C469.87 173.68 470.14 174.47 469.73 175C468.64 176.42 466.35 178.7 463.03 178.65C459.7 178.59 457.5 176.23 456.45 174.78C456.05 174.23 456.35 173.45 457.02 173.31C459.56 172.79 462.33 173.22 462.98 173.33C463.08 173.35 463.17 173.35 463.26 173.33V173.34Z" fill="#DB6592"/>
<path d="M468.89 174.17C466.53 174.49 461.88 174.91 457.39 174.05C456.94 173.96 456.68 174.53 457.04 174.81C459.2 176.43 463.83 178.81 469.19 174.95C469.55 174.69 469.33 174.12 468.89 174.18V174.17Z" fill="white"/>
<path d="M351.13 343.91H438.41C440.001 343.91 441.29 342.621 441.29 341.03V317.83C441.29 316.239 440.001 314.95 438.41 314.95H351.13C349.54 314.95 348.25 316.239 348.25 317.83V341.03C348.25 342.621 349.54 343.91 351.13 343.91Z" fill="#CBC0E0"/>
<path d="M426.3 336.74C430.337 336.74 433.61 333.467 433.61 329.43C433.61 325.393 430.337 322.12 426.3 322.12C422.263 322.12 418.99 325.393 418.99 329.43C418.99 333.467 422.263 336.74 426.3 336.74Z" fill="white"/>
<path d="M356.4 330.32H412.01V328.53H356.4V330.32Z" fill="white"/>
<path d="M382.66 336.03H412.01V334.24H382.66V336.03Z" fill="white"/>
<path d="M356.4 324.83H412.01V323.04H356.4V324.83Z" fill="white"/>
<path d="M366.12 365.44H453.4C454.991 365.44 456.28 364.151 456.28 362.56V339.36C456.28 337.77 454.991 336.48 453.4 336.48H366.12C364.53 336.48 363.24 337.77 363.24 339.36V362.56C363.24 364.151 364.53 365.44 366.12 365.44Z" fill="#FBD163"/>
<path d="M442.964 358.257C446.893 357.329 449.327 353.392 448.4 349.463C447.472 345.534 443.535 343.1 439.606 344.028C435.677 344.955 433.243 348.892 434.17 352.821C435.098 356.751 439.035 359.184 442.964 358.257Z" fill="white"/>
<path d="M371.39 351.851H427V350.061H371.39V351.851Z" fill="white"/>
<path d="M397.65 357.551H427V355.761H397.65V357.551Z" fill="white"/>
<path d="M371.39 346.34H427V344.55H371.39V346.34Z" fill="white"/>
<path d="M463.63 181.081C482.83 181.081 487.67 172.881 487.87 172.531L487.42 172.271C487.37 172.351 482.49 180.55 463.63 180.55V181.07V181.081Z" fill="#574780"/>
<path d="M462.27 182.08H463.97C464.66 182.08 465.23 181.52 465.23 180.82C465.23 180.13 464.67 179.56 463.97 179.56H462.27C461.58 179.56 461.01 180.12 461.01 180.82C461.01 181.51 461.57 182.08 462.27 182.08Z" fill="#24292F"/>
<path d="M482.25 163.7C482.25 168.78 484.67 172.89 487.65 172.89C488.46 172.89 490.26 172.89 491.94 172.85C494.3 172.79 493.05 167.4 493.05 163.7C493.05 159.62 493.91 154.51 491.44 154.51H487.66C484.68 154.51 482.26 158.63 482.26 163.7H482.25Z" fill="#574780"/>
<path d="M453.16 132.62C462.2 127.34 470.96 129.16 476.17 131.11C483.25 133.75 488 140.64 488 148.24V155.44H490.09V148.24C490.09 139.77 484.79 132.1 476.9 129.16C472.38 127.47 465.92 125.76 458.45 128.15C458.45 128.15 455.05 129.78 453.16 132.63V132.62Z" fill="#574780"/>
<path d="M491.42 172.89C494.402 172.89 496.82 168.776 496.82 163.7C496.82 158.625 494.402 154.51 491.42 154.51C488.438 154.51 486.02 158.625 486.02 163.7C486.02 168.776 488.438 172.89 491.42 172.89Z" fill="#745FAA"/>
<path d="M358.186 101.806C362.341 97.6507 362.341 90.9138 358.186 86.7586C354.031 82.6034 347.294 82.6035 343.139 86.7587C338.984 90.9139 338.984 97.6507 343.139 101.806C347.294 105.961 354.031 105.961 358.186 101.806Z" fill="#8F94A3"/>
<path d="M321.369 45.0005C321.369 55.0805 326.459 63.9705 334.219 69.2305C337.879 71.7205 339.979 75.9405 339.979 80.3605V90.8306H361.339V80.1805C361.339 75.7305 363.619 71.6305 367.289 69.1105C371.489 66.2105 374.879 62.2505 377.099 57.6205C379.279 53.0805 380.309 47.9005 379.839 42.4305C378.629 28.2405 367.099 16.8605 352.899 15.8005C345.309 15.2305 338.259 17.5705 332.769 21.8205C325.839 27.1705 321.369 35.5705 321.369 45.0105V45.0005Z" fill="#FBD163"/>
<path d="M340.439 94.8804H360.889C362.712 94.8804 364.189 93.4029 364.189 91.5804V89.7404C364.189 87.9178 362.712 86.4404 360.889 86.4404H340.439C338.617 86.4404 337.139 87.9178 337.139 89.7404V91.5804C337.139 93.4029 338.617 94.8804 340.439 94.8804Z" fill="#A7ADBF"/>
<path d="M347.619 86.3204C350.639 72.8204 349.779 61.2404 347.379 52.3204C344.469 51.1204 341.229 48.4704 337.929 43.3304C334.229 37.5704 332.819 33.4804 334.059 32.1104C334.369 31.7704 335.109 31.3104 336.579 32.0704C339.609 33.6504 344.289 39.5103 347.409 48.6603C347.719 49.5703 348.029 50.5504 348.319 51.5904C351.409 52.6704 354.139 51.9904 356.269 50.8204C356.319 50.7904 356.369 50.7604 356.419 50.7404C357.899 43.9504 359.889 38.6204 362.539 37.6204C364.269 36.9704 364.919 37.9004 365.119 38.3304C366.239 40.7804 362.759 48.0903 357.329 51.4103C354.969 62.7503 353.799 78.6204 353.479 86.4504L352.439 86.4103C352.489 85.1903 353.309 66.0404 356.139 52.0604C354.259 52.9504 351.649 53.6104 348.629 52.7504C350.679 60.6904 351.869 72.1504 348.649 86.5504L347.629 86.3204H347.619ZM334.829 32.8104C334.339 33.3504 334.539 36.1204 338.809 42.7604C341.679 47.2304 344.459 49.7704 347.029 51.0504C344.089 41.0304 339.239 34.6304 336.099 33.0004C335.719 32.8004 335.389 32.7004 335.159 32.7004C335.019 32.7004 334.909 32.7404 334.839 32.8104H334.829ZM362.899 38.5904C360.739 39.4004 358.999 43.9004 357.639 49.9504C362.389 46.5404 364.889 40.3504 364.159 38.7604C364.109 38.6604 364.009 38.4304 363.609 38.4304C363.439 38.4304 363.199 38.4704 362.899 38.5904Z" fill="white"/>
<path opacity="0.32" d="M330.999 31.9803C330.999 44.5003 338.619 55.2303 349.479 59.8003C351.269 60.5503 353.149 61.1403 355.099 61.5403C357.059 61.9403 359.089 62.1503 361.169 62.1503C367.009 62.1503 372.469 60.4903 377.089 57.6103C379.269 53.0703 380.299 47.8903 379.829 42.4203C378.619 28.2303 367.089 16.8503 352.889 15.7903C345.299 15.2203 338.249 17.5603 332.759 21.8103C331.619 24.9903 330.999 28.4103 330.999 31.9803Z" fill="white"/>
<path d="M350.659 10.5002C351.299 10.5002 351.82 9.98027 351.82 9.34027V1.38025C351.82 0.740249 351.299 0.220215 350.659 0.220215C350.019 0.220215 349.5 0.740249 349.5 1.38025V9.34027C349.5 9.98027 350.019 10.5002 350.659 10.5002Z" fill="#FBD163"/>
<path d="M333.269 15.1603C333.819 14.8403 334.009 14.1303 333.689 13.5803L329.709 6.69031C329.389 6.14031 328.679 5.95032 328.129 6.27032C327.579 6.59032 327.389 7.30028 327.709 7.85028L331.689 14.7403C332.009 15.2903 332.719 15.4803 333.269 15.1603Z" fill="#FBD163"/>
<path d="M368.049 15.1603C367.499 14.8403 367.309 14.1303 367.629 13.5803L371.609 6.69031C371.929 6.14031 372.639 5.95032 373.189 6.27032C373.739 6.59032 373.929 7.30028 373.609 7.85028L369.629 14.7403C369.309 15.2903 368.599 15.4803 368.049 15.1603Z" fill="#FBD163"/>
<path d="M315.879 45.3405C315.879 44.7005 315.359 44.1904 314.719 44.1904H306.759C306.119 44.2004 305.6 44.7204 305.61 45.3604C305.61 46.0004 306.129 46.5104 306.769 46.5104H314.729C315.369 46.5004 315.889 45.9805 315.879 45.3405Z" fill="#FBD163"/>
<path d="M395.71 45.2102C395.71 44.5702 395.19 44.0502 394.55 44.0602H386.59C385.95 44.0702 385.43 44.5902 385.44 45.2302C385.44 45.8702 385.96 46.3902 386.6 46.3802H394.56C395.2 46.3702 395.72 45.8502 395.71 45.2102Z" fill="#FBD163"/>
<path d="M320.569 62.7303C320.249 62.1803 319.539 61.9904 318.989 62.3104L312.099 66.3004C311.549 66.6204 311.359 67.3304 311.679 67.8804C311.999 68.4304 312.709 68.6204 313.259 68.3004L320.149 64.3104C320.699 63.9904 320.889 63.2803 320.569 62.7303Z" fill="#FBD163"/>
<path d="M389.639 22.6903C389.319 22.1403 388.609 21.9503 388.059 22.2703L381.169 26.2603C380.619 26.5803 380.429 27.2903 380.749 27.8403C381.069 28.3903 381.779 28.5803 382.329 28.2603L389.219 24.2703C389.769 23.9503 389.959 23.2403 389.639 22.6903Z" fill="#FBD163"/>
<path d="M320.51 27.9403C320.19 28.4903 319.49 28.6803 318.93 28.3703L312.03 24.4003C311.48 24.0803 311.29 23.3803 311.6 22.8203C311.92 22.2703 312.62 22.0803 313.18 22.3903L320.08 26.3603C320.63 26.6803 320.82 27.3803 320.51 27.9403Z" fill="#FBD163"/>
<path d="M389.72 67.7401C389.4 68.2901 388.7 68.4801 388.14 68.1701L381.24 64.2001C380.69 63.8801 380.5 63.1801 380.81 62.6201C381.13 62.0701 381.83 61.8801 382.39 62.1901L389.29 66.1601C389.84 66.4801 390.03 67.1801 389.72 67.7401Z" fill="#FBD163"/>
<path d="M549.887 322.715C557.756 314.846 557.756 302.088 549.887 294.219C542.018 286.35 529.26 286.35 521.391 294.219C513.522 302.088 513.522 314.846 521.391 322.715C529.26 330.584 542.018 330.584 549.887 322.715Z" fill="#C2E7F0"/>
<path d="M546.37 326.876C554.239 319.007 554.239 306.248 546.37 298.379C538.501 290.51 525.743 290.51 517.874 298.379C510.005 306.248 510.005 319.007 517.874 326.876C525.743 334.745 538.501 334.745 546.37 326.876Z" fill="white"/>
<path d="M524.47 322.05C524.02 322.51 524.03 323.25 524.49 323.69C527.81 326.92 532.04 325.79 535.27 322.46L542.11 315.43C545.34 312.11 546.35 307.85 543.03 304.62C542.57 304.17 541.83 304.18 541.38 304.64L537.67 308.46C537.42 308.71 537.43 309.12 537.68 309.37L538.9 310.55C539.57 311.2 539.58 312.26 538.93 312.93L532.69 319.35C532.04 320.02 530.98 320.03 530.31 319.38L529.08 318.21C528.83 317.97 528.42 317.98 528.18 318.23L524.47 322.05Z" fill="#745FAA"/>
<path d="M528 313.22C528 313.22 528 313.22 528.01 313.22C528.17 313.22 528.3 313.08 528.29 312.92C528.18 310.16 530.34 307.83 533.09 307.73C533.25 307.73 533.381 307.59 533.371 307.43C533.371 307.27 533.22 307.14 533.07 307.15C529.99 307.27 527.59 309.87 527.71 312.95C527.71 313.11 527.85 313.23 528 313.23V313.22Z" fill="#745FAA"/>
<path d="M524.44 313.351C524.44 313.351 524.44 313.351 524.45 313.351C524.61 313.351 524.74 313.211 524.73 313.051C524.55 308.331 528.23 304.351 532.95 304.161C533.11 304.161 533.24 304.021 533.23 303.861C533.23 303.701 533.09 303.571 532.93 303.581C527.89 303.781 523.95 308.041 524.15 313.071C524.15 313.231 524.29 313.351 524.44 313.351Z" fill="#745FAA"/>
<path d="M521.45 313.47C521.45 313.47 521.45 313.47 521.46 313.47C521.62 313.47 521.75 313.33 521.74 313.17C521.62 310.09 522.71 307.14 524.8 304.87C526.9 302.6 529.75 301.29 532.83 301.17C532.99 301.17 533.12 301.03 533.11 300.87C533.11 300.71 532.97 300.58 532.81 300.59C529.57 300.72 526.57 302.1 524.37 304.48C522.17 306.86 521.03 309.96 521.15 313.2C521.15 313.36 521.29 313.48 521.44 313.48L521.45 313.47Z" fill="#745FAA"/>
</svg>
