<svg width="2395" height="762" viewBox="0 0 2395 762" fill="none" xmlns="http://www.w3.org/2000/svg">
<g clip-path="url(#clip0_301_5)">
<path d="M0 0L411.5 754.5L949 0H600.5L500.5 177L385 0H0Z" fill="white" stroke="white"/>
<path fill-rule="evenodd" clip-rule="evenodd" d="M750.525 322.119L948.5 762L1156.5 472.264L1364.5 762H1482L1678 1H1364.5L1297 306.917L1156.5 174.437L1029.5 277.589L977.873 2.98536L750.525 322.119ZM630.935 1L617.056 25.5656L606 1H630.935Z" fill="white"/>
<path d="M750.525 322.119L750.118 321.829L749.951 322.063L750.069 322.324L750.525 322.119ZM948.5 762L948.044 762.205L948.4 762.996L948.906 762.292L948.5 762ZM1156.5 472.264L1156.91 471.972L1156.5 471.406L1156.09 471.972L1156.5 472.264ZM1364.5 762L1364.09 762.292L1364.24 762.5H1364.5V762ZM1482 762V762.5H1482.39L1482.48 762.125L1482 762ZM1678 1L1678.48 1.12471L1678.65 0.5H1678V1ZM1364.5 1V0.5H1364.1L1364.01 0.892267L1364.5 1ZM1297 306.917L1296.66 307.281L1297.3 307.885L1297.49 307.025L1297 306.917ZM1156.5 174.437L1156.84 174.073L1156.52 173.773L1156.18 174.049L1156.5 174.437ZM1029.5 277.589L1029.01 277.682L1029.16 278.507L1029.82 277.977L1029.5 277.589ZM977.873 2.98536L978.365 2.89297L978.148 1.7385L977.466 2.69525L977.873 2.98536ZM630.935 1L631.37 1.24595L631.792 0.5H630.935V1ZM617.056 25.5656L616.6 25.7708L617.006 26.6716L617.491 25.8116L617.056 25.5656ZM606 1V0.5H605.227L605.544 1.20521L606 1ZM750.069 322.324L948.044 762.205L948.956 761.795L750.981 321.914L750.069 322.324ZM948.906 762.292L1156.91 472.555L1156.09 471.972L948.094 761.708L948.906 762.292ZM1156.09 472.555L1364.09 762.292L1364.91 761.708L1156.91 471.972L1156.09 472.555ZM1364.5 762.5H1482V761.5H1364.5V762.5ZM1482.48 762.125L1678.48 1.12471L1677.52 0.875292L1481.52 761.875L1482.48 762.125ZM1678 0.5H1364.5V1.5H1678V0.5ZM1364.01 0.892267L1296.51 306.809L1297.49 307.025L1364.99 1.10773L1364.01 0.892267ZM1297.34 306.553L1156.84 174.073L1156.16 174.801L1296.66 307.281L1297.34 306.553ZM1156.18 174.049L1029.18 277.201L1029.82 277.977L1156.82 174.825L1156.18 174.049ZM1029.99 277.497L978.365 2.89297L977.382 3.07774L1029.01 277.682L1029.99 277.497ZM750.932 322.409L978.28 3.27546L977.466 2.69525L750.118 321.829L750.932 322.409ZM630.5 0.754052L616.621 25.3197L617.491 25.8116L631.37 1.24595L630.5 0.754052ZM605.544 1.20521L616.6 25.7708L617.512 25.3604L606.456 0.794793L605.544 1.20521ZM630.935 0.5H606V1.5H630.935V0.5Z" fill="white"/>
<path fill-rule="evenodd" clip-rule="evenodd" d="M1575.86 516.989L1546 762.5H1798.5L1906 535.5L2060 762.5H2394.5L2060 2H1708.5L1575.86 516.989Z" fill="white"/>
<path d="M1546 762.5L1545.5 762.44L1545.44 763H1546V762.5ZM1575.86 516.989L1575.38 516.864L1575.37 516.896L1575.37 516.928L1575.86 516.989ZM1798.5 762.5V763H1798.82L1798.95 762.714L1798.5 762.5ZM1906 535.5L1906.41 535.219L1905.92 534.495L1905.55 535.286L1906 535.5ZM2060 762.5L2059.59 762.781L2059.74 763H2060V762.5ZM2394.5 762.5V763H2395.27L2394.96 762.299L2394.5 762.5ZM2060 2L2060.46 1.79869L2060.33 1.5H2060V2ZM1708.5 2V1.5H1708.11L1708.02 1.87529L1708.5 2ZM1546.5 762.56L1576.36 517.049L1575.37 516.928L1545.5 762.44L1546.5 762.56ZM1798.5 762H1546V763H1798.5V762ZM1905.55 535.286L1798.05 762.286L1798.95 762.714L1906.45 535.714L1905.55 535.286ZM2060.41 762.219L1906.41 535.219L1905.59 535.781L2059.59 762.781L2060.41 762.219ZM2394.5 762H2060V763H2394.5V762ZM2059.54 2.20131L2394.04 762.701L2394.96 762.299L2060.46 1.79869L2059.54 2.20131ZM1708.5 2.5H2060V1.5H1708.5V2.5ZM1576.35 517.113L1708.98 2.12471L1708.02 1.87529L1575.38 516.864L1576.35 517.113Z" fill="white"/>
</g>
<defs>
<clipPath id="clip0_301_5">
<rect width="2395" height="762" fill="white"/>
</clipPath>
</defs>
</svg>
