<svg width="682" height="487" viewBox="0 0 682 487" fill="none" xmlns="http://www.w3.org/2000/svg">
<path opacity="0.41" d="M304 128.53C244.55 152.46 176 198.31 147.84 229.99C108.05 274.77 127.95 307.9 176.04 313.27C247.36 321.24 163.77 373.55 191.11 428.4C215.9 478.13 314.45 484.99 445.47 405.39C591.07 316.94 645.139 188.29 619.399 141.1C582.809 74.0102 445.12 71.7303 304 128.52V128.53Z" fill="url(#paint0_linear_119_2908)"/>
<g opacity="0.5">
<path d="M348.149 311.53C347.829 309.4 347.36 307.35 346.75 305.34L353.629 296.97C351.949 293.21 349.83 289.71 347.36 286.54L336.719 288.69C333.739 285.68 330.31 283.14 326.57 281.17L325.51 270.37C321.74 268.93 317.779 267.93 313.699 267.43L307.699 276.47C305.619 276.46 303.5 276.61 301.37 276.93C299.25 277.25 297.189 277.72 295.199 278.34L286.82 271.45C283.05 273.13 279.559 275.25 276.389 277.72L278.54 288.36C275.53 291.34 272.99 294.77 271.02 298.52L260.229 299.58C258.779 303.34 257.78 307.3 257.27 311.39L266.31 317.38C266.3 319.48 266.45 321.58 266.77 323.71C267.09 325.84 267.559 327.91 268.189 329.9L261.3 338.27C262.98 342.03 265.1 345.53 267.59 348.71L278.209 346.56C281.189 349.56 284.62 352.1 288.37 354.07L289.429 364.87C293.189 366.31 297.15 367.31 301.24 367.81L307.24 358.77C309.32 358.78 311.44 358.63 313.56 358.32C315.69 358 317.76 357.53 319.75 356.9L328.129 363.79C331.879 362.11 335.38 360 338.56 357.52L336.409 346.88C339.409 343.9 341.949 340.47 343.919 336.73L354.719 335.67C356.159 331.9 357.159 327.94 357.659 323.85L348.639 317.86C348.639 315.78 348.489 313.66 348.169 311.53H348.149ZM311.12 342.12C297.59 344.14 284.989 334.81 282.969 321.28C280.949 307.75 290.27 295.15 303.8 293.13C317.33 291.11 329.939 300.42 331.959 313.95C333.979 327.48 324.65 340.09 311.12 342.12Z" fill="#C5E7E8"/>
<path d="M319.429 315.82C320.419 322.43 315.86 328.6 309.25 329.58C302.64 330.57 296.47 326.01 295.49 319.4C294.5 312.79 299.059 306.62 305.669 305.64C312.279 304.65 318.449 309.21 319.429 315.82Z" fill="#C5E7E8"/>
</g>
<g opacity="0.5">
<path d="M203.22 161.66C203.07 160.66 202.85 159.7 202.56 158.75L205.79 154.82C205 153.05 204.01 151.41 202.85 149.92L197.86 150.93C196.46 149.52 194.85 148.33 193.1 147.4L192.6 142.33C190.83 141.66 188.97 141.19 187.06 140.95L184.24 145.19C183.26 145.19 182.27 145.25 181.27 145.4C180.28 145.55 179.31 145.77 178.37 146.06L174.44 142.83C172.67 143.62 171.03 144.61 169.54 145.77L170.55 150.76C169.14 152.16 167.95 153.77 167.02 155.53L161.96 156.03C161.28 157.79 160.81 159.65 160.57 161.57L164.81 164.38C164.81 165.37 164.87 166.35 165.02 167.35C165.17 168.35 165.39 169.32 165.68 170.25L162.45 174.18C163.24 175.95 164.23 177.59 165.4 179.08L170.39 178.07C171.79 179.48 173.4 180.67 175.16 181.59L175.66 186.66C177.42 187.34 179.28 187.81 181.2 188.04L184.02 183.8C185 183.8 185.99 183.74 186.99 183.59C187.99 183.44 188.96 183.22 189.89 182.93L193.82 186.16C195.58 185.37 197.22 184.38 198.72 183.22L197.71 178.23C199.12 176.83 200.31 175.22 201.23 173.47L206.3 172.97C206.97 171.2 207.44 169.34 207.68 167.42L203.44 164.61C203.44 163.63 203.37 162.64 203.22 161.64V161.66ZM185.84 176.02C179.49 176.97 173.57 172.59 172.62 166.24C171.67 159.89 176.05 153.98 182.4 153.03C188.75 152.08 194.67 156.45 195.62 162.81C196.57 169.16 192.19 175.08 185.84 176.03V176.02Z" fill="#C5E7E8"/>
<path d="M189.74 163.68C190.2 166.78 188.06 169.68 184.96 170.14C181.86 170.6 178.96 168.46 178.5 165.36C178.04 162.26 180.18 159.36 183.28 158.9C186.38 158.44 189.28 160.58 189.74 163.68Z" fill="#C5E7E8"/>
</g>
<path d="M325.03 43.8202C325.03 43.8202 319.45 36.6203 318.19 31.4903C316.93 26.3603 319.01 20.5103 323.91 20.2403C323.91 20.2403 325.96 14.5103 334.51 14.8703C343.06 15.2303 350.32 20.0603 351.84 24.6503C353.37 29.2403 351.21 30.9802 346.62 31.1902C342.03 31.4002 325.03 43.8202 325.03 43.8202Z" fill="#FFCB5B"/>
<path d="M323.909 46.9704C323.909 46.9704 310.089 44.8704 296.959 50.9904C283.819 57.1104 298.399 100.05 298.399 100.05H338.169C338.169 100.05 352.03 68.7404 351.31 60.1004C350.59 51.4604 323.919 46.9604 323.919 46.9604L323.909 46.9704Z" fill="#002144"/>
<path d="M321.66 46.6201C321.66 46.6201 319.08 49.7702 320.81 53.9202C322.54 58.0702 326.76 60.2702 331.15 59.1702C335.54 58.0702 337.89 51.1001 336.24 51.0201C334.59 50.9401 323.92 46.9701 323.92 46.9701L321.66 46.6201Z" fill="white"/>
<path d="M298.63 68.5C298.63 68.5 300.04 77.75 305.53 80.1C311.01 82.45 315.76 84.98 319.63 89.55C323.51 94.12 331.38 91.71 333.42 96.88C335.46 102.05 297.39 96.88 297.39 96.88C297.39 96.88 292.41 77.88 292.07 73.35C291.73 68.82 298.62 68.51 298.62 68.51L298.63 68.5Z" fill="#002144"/>
<path opacity="0.5" d="M421.43 319.34C421.28 318.33 421.05 317.35 420.76 316.39L424.03 312.41C423.23 310.62 422.22 308.95 421.04 307.44L415.97 308.46C414.55 307.03 412.92 305.82 411.14 304.88L410.64 299.74C408.85 299.06 406.96 298.58 405.02 298.34L402.16 302.64C401.17 302.64 400.16 302.71 399.15 302.86C398.14 303.01 397.16 303.24 396.21 303.53L392.22 300.25C390.43 301.05 388.76 302.06 387.25 303.24L388.27 308.31C386.84 309.73 385.63 311.36 384.69 313.15L379.55 313.65C378.86 315.44 378.38 317.33 378.14 319.27L382.44 322.12C382.44 323.12 382.51 324.12 382.66 325.13C382.81 326.14 383.04 327.13 383.33 328.08L380.05 332.07C380.85 333.86 381.86 335.53 383.04 337.04L388.1 336.02C389.52 337.45 391.15 338.66 392.94 339.59L393.44 344.73C395.23 345.42 397.11 345.89 399.06 346.13L401.92 341.83C402.91 341.83 403.92 341.76 404.93 341.61C405.94 341.46 406.93 341.23 407.88 340.94L411.87 344.22C413.66 343.42 415.32 342.41 416.84 341.23L415.82 336.16C417.25 334.74 418.46 333.11 419.4 331.33L424.54 330.83C425.22 329.04 425.7 327.15 425.94 325.2L421.64 322.35C421.64 321.36 421.57 320.35 421.42 319.34H421.43ZM403.8 333.91C397.36 334.87 391.36 330.43 390.39 323.99C389.43 317.55 393.86 311.55 400.31 310.58C406.75 309.62 412.76 314.05 413.72 320.5C414.68 326.94 410.24 332.95 403.8 333.91Z" fill="#C5E7E8"/>
<path d="M233.48 52.8301H219.54C215.265 52.8301 211.8 56.2954 211.8 60.5701V74.5101C211.8 78.7848 215.265 82.2501 219.54 82.2501H233.48C237.754 82.2501 241.22 78.7848 241.22 74.5101V60.5701C241.22 56.2954 237.754 52.8301 233.48 52.8301Z" fill="#96D0D2"/>
<path d="M215.08 71.8198V63.1299H217.9C218.97 63.1299 219.66 63.1699 219.99 63.2599C220.49 63.3899 220.91 63.6699 221.24 64.1099C221.58 64.5499 221.74 65.1099 221.74 65.7999C221.74 66.3299 221.64 66.7799 221.45 67.1499C221.26 67.5099 221.01 67.7999 220.71 68.0099C220.41 68.2199 220.11 68.3499 219.8 68.4199C219.38 68.4999 218.77 68.5399 217.98 68.5399H216.84V71.8198H215.08ZM216.84 64.5999V67.0698H217.8C218.49 67.0698 218.95 67.0199 219.19 66.9299C219.42 66.8399 219.61 66.6999 219.74 66.4999C219.87 66.3099 219.94 66.0798 219.94 65.8198C219.94 65.4998 219.85 65.2399 219.66 65.0399C219.47 64.8299 219.24 64.7099 218.95 64.6499C218.74 64.6099 218.32 64.5898 217.69 64.5898H216.84V64.5999Z" fill="white"/>
<path d="M223.189 71.8198V63.1299H224.949V66.5499H228.389V63.1299H230.139V71.8198H228.389V68.0199H224.949V71.8198H223.189Z" fill="white"/>
<path d="M231.95 71.8198V63.1299H234.77C235.84 63.1299 236.53 63.1699 236.86 63.2599C237.36 63.3899 237.78 63.6699 238.11 64.1099C238.44 64.5499 238.61 65.1099 238.61 65.7999C238.61 66.3299 238.51 66.7799 238.32 67.1499C238.13 67.5099 237.88 67.7999 237.58 68.0099C237.28 68.2199 236.98 68.3499 236.67 68.4199C236.25 68.4999 235.64 68.5399 234.85 68.5399H233.71V71.8198H231.95ZM233.71 64.5999V67.0698H234.67C235.36 67.0698 235.82 67.0199 236.06 66.9299C236.29 66.8399 236.48 66.6999 236.61 66.4999C236.74 66.3099 236.81 66.0798 236.81 65.8198C236.81 65.4998 236.72 65.2399 236.53 65.0399C236.34 64.8299 236.11 64.7099 235.82 64.6499C235.61 64.6099 235.19 64.5898 234.56 64.5898H233.71V64.5999Z" fill="white"/>
<path d="M422.77 69.8901C421.85 69.8901 420.99 70.2501 420.35 70.9001C419.71 71.5501 419.37 72.4002 419.37 73.3102C419.37 74.2202 419.74 75.0701 420.38 75.7001C421.02 76.3301 421.87 76.6802 422.76 76.6802C423.65 76.6802 424.54 76.3202 425.18 75.6702C425.82 75.0202 426.16 74.1701 426.16 73.2601C426.16 72.3501 425.79 71.5001 425.15 70.8701C424.51 70.2401 423.66 69.8901 422.77 69.8901Z" fill="#FFE8B5"/>
<path d="M421.62 62.3604C420.84 62.3604 420.05 62.4403 419.28 62.5903C418.96 62.6503 418.68 62.8404 418.5 63.1104C418.32 63.3804 418.25 63.7104 418.32 64.0304C418.37 64.2704 418.49 64.4904 418.66 64.6704C418.95 64.9504 419.36 65.0804 419.76 65.0004C420.37 64.8804 421 64.8203 421.63 64.8203C424.18 64.8203 426.58 65.8103 428.39 67.5903C430.66 69.8303 431.68 73.0404 431.11 76.1804C431.05 76.5004 431.12 76.8303 431.31 77.1003C431.5 77.3703 431.78 77.5504 432.1 77.6104C432.17 77.6204 432.25 77.6304 432.32 77.6304C432.91 77.6304 433.42 77.2104 433.53 76.6204C434.24 72.6804 432.96 68.6503 430.11 65.8403C427.83 63.6003 424.82 62.3604 421.63 62.3604H421.62Z" fill="#FFE8B5"/>
<path d="M421.64 55.8701C420.87 55.8701 420.08 55.9201 419.31 56.0101C418.98 56.0501 418.69 56.2101 418.49 56.4701C418.29 56.7301 418.2 57.0501 418.24 57.3801C418.32 58.0401 418.94 58.5301 419.61 58.4501C420.28 58.3701 420.96 58.3201 421.63 58.3201C425.88 58.3201 429.89 59.9701 432.92 62.9601C436.46 66.4401 438.17 71.2701 437.63 76.2101C437.59 76.5901 437.72 76.9501 437.99 77.2201C438.19 77.4201 438.44 77.5302 438.72 77.5602C438.77 77.5602 438.81 77.5602 438.85 77.5602C439.48 77.5602 440 77.0901 440.07 76.4701C440.69 70.7801 438.71 65.2201 434.64 61.2101C431.14 57.7601 426.52 55.8701 421.63 55.8701H421.64Z" fill="#FFE8B5"/>
<path d="M438.79 57.0103C434.18 52.4703 428.08 49.9702 421.63 49.9702C420.86 49.9702 420.07 50.0102 419.3 50.0802C418.97 50.1102 418.68 50.2703 418.47 50.5203C418.26 50.7703 418.16 51.0903 418.19 51.4203C418.22 51.7103 418.34 51.9803 418.55 52.1803C418.81 52.4303 419.16 52.5603 419.53 52.5303C420.22 52.4603 420.93 52.4303 421.62 52.4303C427.43 52.4303 432.92 54.6803 437.07 58.7603C441.72 63.3403 444.09 69.7002 443.57 76.2002C443.52 76.8702 444.02 77.4703 444.7 77.5203C444.73 77.5203 444.77 77.5203 444.8 77.5203C445.43 77.5203 445.97 77.0203 446.02 76.3903C446.59 69.1603 443.96 62.0903 438.79 57.0103Z" fill="#FFE8B5"/>
<path d="M520.35 95.6704H201.469C196.228 95.6704 191.979 99.9192 191.979 105.16V305.86C191.979 311.102 196.228 315.35 201.469 315.35H520.35C525.591 315.35 529.839 311.102 529.839 305.86V105.16C529.839 99.9192 525.591 95.6704 520.35 95.6704Z" fill="#002144"/>
<path d="M519.38 100.3H202.44C199.303 100.3 196.76 102.843 196.76 105.98V305.03C196.76 308.167 199.303 310.71 202.44 310.71H519.38C522.517 310.71 525.06 308.167 525.06 305.03V105.98C525.06 102.843 522.517 100.3 519.38 100.3Z" fill="white"/>
<path d="M317.819 220.75V218.13H315.199" stroke="#C5E7E8" stroke-width="6" stroke-miterlimit="10"/>
<path d="M310.14 218.13H231.76" stroke="#C5E7E8" stroke-width="6" stroke-miterlimit="10"/>
<path d="M229.229 218.13H226.609V220.75" stroke="#C5E7E8" stroke-width="6" stroke-miterlimit="10"/>
<path d="M226.609 225.87V274.52" stroke="#C5E7E8" stroke-width="6" stroke-miterlimit="10"/>
<path d="M226.609 277.08V279.7H229.229" stroke="#C5E7E8" stroke-width="6" stroke-miterlimit="10"/>
<path d="M234.289 279.7H312.669" stroke="#C5E7E8" stroke-width="6" stroke-miterlimit="10"/>
<path d="M315.199 279.7H317.819V277.08" stroke="#C5E7E8" stroke-width="6" stroke-miterlimit="10"/>
<path d="M317.819 271.96V223.311" stroke="#C5E7E8" stroke-width="6" stroke-miterlimit="10"/>
<path d="M525.06 105.99V115.26H196.76V105.99C196.76 102.85 199.31 100.3 202.44 100.3H519.37C522.51 100.3 525.05 102.85 525.05 105.99H525.06Z" fill="#C5E7E8"/>
<path d="M210.98 107.781C210.98 109.171 209.85 110.291 208.47 110.291C207.09 110.291 205.96 109.161 205.96 107.781C205.96 106.401 207.09 105.271 208.47 105.271C209.85 105.271 210.98 106.401 210.98 107.781Z" fill="white"/>
<path d="M223.33 107.781C223.33 109.171 222.2 110.291 220.82 110.291C219.44 110.291 218.31 109.161 218.31 107.781C218.31 106.401 219.44 105.271 220.82 105.271C222.2 105.271 223.33 106.401 223.33 107.781Z" fill="white"/>
<path d="M233.67 110.291C235.056 110.291 236.18 109.167 236.18 107.781C236.18 106.394 235.056 105.271 233.67 105.271C232.284 105.271 231.16 106.394 231.16 107.781C231.16 109.167 232.284 110.291 233.67 110.291Z" fill="white"/>
<path d="M326.41 39.5903L322.24 47.8704C322.24 47.8704 319.72 53.2703 325.12 56.9603C330.52 60.6503 335.92 53.9903 337.09 49.9403C338.26 45.8903 326.41 39.5903 326.41 39.5903Z" fill="#EB9D76"/>
<path d="M505.87 128.89H215.96C212.895 128.89 210.41 131.375 210.41 134.44V139.15C210.41 142.215 212.895 144.7 215.96 144.7H505.87C508.936 144.7 511.42 142.215 511.42 139.15V134.44C511.42 131.375 508.936 128.89 505.87 128.89Z" fill="#C5E7E8"/>
<path d="M221.47 139.51C222.972 139.51 224.19 138.293 224.19 136.79C224.19 135.288 222.972 134.07 221.47 134.07C219.968 134.07 218.75 135.288 218.75 136.79C218.75 138.293 219.968 139.51 221.47 139.51Z" fill="#FE99B7"/>
<path d="M234.82 139.51C236.322 139.51 237.54 138.293 237.54 136.79C237.54 135.288 236.322 134.07 234.82 134.07C233.317 134.07 232.1 135.288 232.1 136.79C232.1 138.293 233.317 139.51 234.82 139.51Z" fill="#71CFD2"/>
<path d="M251.44 136.79C251.44 138.29 250.22 139.51 248.72 139.51C247.22 139.51 246 138.29 246 136.79C246 135.29 247.22 134.07 248.72 134.07C250.22 134.07 251.44 135.29 251.44 136.79Z" fill="#FFCB5B"/>
<path d="M493.2 141.77C492.94 141.77 492.68 141.67 492.48 141.47C492.08 141.07 492.08 140.43 492.48 140.03L500.41 132.1C500.81 131.7 501.45 131.7 501.85 132.1C502.25 132.5 502.25 133.14 501.85 133.54L493.92 141.47C493.72 141.67 493.46 141.77 493.2 141.77Z" fill="#96D0D2"/>
<path d="M501.13 141.77C500.87 141.77 500.61 141.67 500.41 141.47L492.48 133.54C492.08 133.14 492.08 132.5 492.48 132.1C492.88 131.7 493.52 131.7 493.92 132.1L501.85 140.03C502.25 140.43 502.25 141.07 501.85 141.47C501.65 141.67 501.39 141.77 501.13 141.77Z" fill="#96D0D2"/>
<path d="M484.54 141.65H476.61C476.05 141.65 475.59 141.2 475.59 140.63C475.59 140.06 476.05 139.61 476.61 139.61H484.54C485.1 139.61 485.56 140.06 485.56 140.63C485.56 141.2 485.1 141.65 484.54 141.65Z" fill="#96D0D2"/>
<path d="M214.35 152.36H507.469C509.649 152.36 511.419 154.13 511.419 156.31V299.56C511.419 301.74 509.649 303.51 507.469 303.51H214.35C212.17 303.51 210.399 301.74 210.399 299.56V156.31C210.399 154.13 212.17 152.36 214.35 152.36Z" stroke="#C5E7E8" stroke-width="6" stroke-miterlimit="10"/>
<path d="M357.26 168.44H229.23C227.214 168.44 225.58 170.075 225.58 172.09V200.96C225.58 202.976 227.214 204.61 229.23 204.61H357.26C359.276 204.61 360.91 202.976 360.91 200.96V172.09C360.91 170.075 359.276 168.44 357.26 168.44Z" fill="#C5E7E8"/>
<path d="M428.13 168.44H378.41C377.128 168.44 376.09 169.479 376.09 170.76V202.291C376.09 203.572 377.128 204.61 378.41 204.61H428.13C429.411 204.61 430.45 203.572 430.45 202.291V170.76C430.45 169.479 429.411 168.44 428.13 168.44Z" fill="#C5E7E8"/>
<path d="M256.13 186.52C256.13 192.11 251.6 196.65 246 196.65C240.4 196.65 235.87 192.12 235.87 186.52C235.87 180.92 240.4 176.39 246 176.39C251.6 176.39 256.13 180.92 256.13 186.52Z" fill="white"/>
<path d="M327.169 178.64H288.35C287.73 178.64 287.229 178.14 287.229 177.52C287.229 176.9 287.73 176.4 288.35 176.4H327.169C327.789 176.4 328.29 176.9 328.29 177.52C328.29 178.14 327.789 178.64 327.169 178.64Z" fill="white"/>
<path d="M348.679 178.64H334.429C333.809 178.64 333.31 178.14 333.31 177.52C333.31 176.9 333.809 176.4 334.429 176.4H348.679C349.299 176.4 349.8 176.9 349.8 177.52C349.8 178.14 349.299 178.64 348.679 178.64Z" fill="white"/>
<path d="M399.06 178.64H384.81C384.19 178.64 383.689 178.14 383.689 177.52C383.689 176.9 384.19 176.4 384.81 176.4H399.06C399.68 176.4 400.179 176.9 400.179 177.52C400.179 178.14 399.68 178.64 399.06 178.64Z" fill="#96D0D2"/>
<path d="M422.09 178.64H405.02C404.4 178.64 403.899 178.14 403.899 177.52C403.899 176.9 404.4 176.4 405.02 176.4H422.09C422.71 176.4 423.209 176.9 423.209 177.52C423.209 178.14 422.71 178.64 422.09 178.64Z" fill="white"/>
<path d="M280.75 178.64H268.42C267.8 178.64 267.3 178.14 267.3 177.52C267.3 176.9 267.8 176.4 268.42 176.4H280.75C281.37 176.4 281.87 176.9 281.87 177.52C281.87 178.14 281.37 178.64 280.75 178.64Z" fill="white"/>
<path d="M295.32 187.64H268.42C267.8 187.64 267.3 187.14 267.3 186.52C267.3 185.9 267.8 185.4 268.42 185.4H295.32C295.94 185.4 296.44 185.9 296.44 186.52C296.44 187.14 295.94 187.64 295.32 187.64Z" fill="white"/>
<path d="M411.7 187.64H384.8C384.18 187.64 383.68 187.14 383.68 186.52C383.68 185.9 384.18 185.4 384.8 185.4H411.7C412.32 185.4 412.82 185.9 412.82 186.52C412.82 187.14 412.32 187.64 411.7 187.64Z" fill="white"/>
<path d="M422.09 187.64H416.99C416.37 187.64 415.87 187.14 415.87 186.52C415.87 185.9 416.37 185.4 416.99 185.4H422.09C422.71 185.4 423.21 185.9 423.21 186.52C423.21 187.14 422.71 187.64 422.09 187.64Z" fill="#96D0D2"/>
<path d="M348.68 196.65H314.83C314.21 196.65 313.71 196.15 313.71 195.53C313.71 194.91 314.21 194.41 314.83 194.41H348.68C349.3 194.41 349.8 194.91 349.8 195.53C349.8 196.15 349.3 196.65 348.68 196.65Z" fill="white"/>
<path d="M422.09 196.65H384.8C384.18 196.65 383.68 196.15 383.68 195.53C383.68 194.91 384.18 194.41 384.8 194.41H422.09C422.71 194.41 423.21 194.91 423.21 195.53C423.21 196.15 422.71 196.65 422.09 196.65Z" fill="white"/>
<path d="M348.68 187.64H303.57C302.95 187.64 302.45 187.14 302.45 186.52C302.45 185.9 302.95 185.4 303.57 185.4H348.68C349.3 185.4 349.8 185.9 349.8 186.52C349.8 187.14 349.3 187.64 348.68 187.64Z" fill="white"/>
<path d="M307.24 196.65H268.42C267.8 196.65 267.3 196.15 267.3 195.53C267.3 194.91 267.8 194.41 268.42 194.41H307.24C307.86 194.41 308.36 194.91 308.36 195.53C308.36 196.15 307.86 196.65 307.24 196.65Z" fill="#96D0D2"/>
<path d="M430.44 278.38H326.13V280.83H430.44V278.38Z" fill="#96D0D2"/>
<path d="M426.459 233.69H424.229V273.921H426.459V233.69Z" fill="#96D0D2"/>
<path d="M410.82 258.271H408.59V273.931H410.82V258.271Z" fill="#96D0D2"/>
<path d="M397.74 237.311H395.51V273.931H397.74V237.311Z" fill="#96D0D2"/>
<path d="M380.12 250.86H377.89V273.93H380.12V250.86Z" fill="#96D0D2"/>
<path d="M363.669 230.72H361.439V273.93H363.669V230.72Z" fill="#96D0D2"/>
<path d="M350.919 242.61H348.689V273.93H350.919V242.61Z" fill="#96D0D2"/>
<path d="M333.99 254.5H331.76V273.93H333.99V254.5Z" fill="#96D0D2"/>
<path d="M354.5 253.57C354.5 256.17 352.4 258.27 349.8 258.27C347.2 258.27 345.1 256.17 345.1 253.57C345.1 250.97 347.2 248.87 349.8 248.87C352.4 248.87 354.5 250.97 354.5 253.57Z" fill="#96D0D2"/>
<path d="M383.7 261.4C383.7 264 381.6 266.1 379 266.1C376.4 266.1 374.3 264 374.3 261.4C374.3 258.8 376.4 256.7 379 256.7C381.6 256.7 383.7 258.8 383.7 261.4Z" fill="#96D0D2"/>
<path d="M401.33 248.87C401.33 251.46 399.23 253.57 396.63 253.57C394.03 253.57 391.93 251.47 391.93 248.87C391.93 246.27 394.03 244.17 396.63 244.17C399.23 244.17 401.33 246.27 401.33 248.87Z" fill="#96D0D2"/>
<path d="M430.04 246.16C430.04 248.76 427.94 250.86 425.34 250.86C422.74 250.86 420.64 248.76 420.64 246.16C420.64 243.56 422.74 241.46 425.34 241.46C427.94 241.46 430.04 243.56 430.04 246.16Z" fill="#96D0D2"/>
<path d="M489.912 210.661C499.57 201.003 499.57 185.345 489.912 175.687C480.255 166.03 464.597 166.029 454.939 175.687C445.281 185.345 445.281 201.003 454.939 210.661C464.597 220.318 480.255 220.318 489.912 210.661Z" stroke="#C5E7E8" stroke-width="6" stroke-miterlimit="10"/>
<path d="M475.29 193.171C475.29 194.751 474.01 196.031 472.43 196.031C470.85 196.031 469.57 194.751 469.57 193.171C469.57 191.591 470.85 190.311 472.43 190.311C474.01 190.311 475.29 191.591 475.29 193.171Z" stroke="#C5E7E8" stroke-width="6" stroke-miterlimit="10"/>
<path d="M474.11 190.87L489.85 175.53" stroke="#C5E7E8" stroke-width="6" stroke-miterlimit="10"/>
<path d="M498.18 193.17H496.15C496.15 180.09 485.51 169.45 472.43 169.45V167.42C486.63 167.42 498.18 178.97 498.18 193.17Z" fill="#96D0D2"/>
<path d="M471.73 280.52C461.68 280.52 453.54 272.38 453.54 262.33V250.7H489.92V262.33C489.92 272.38 481.78 280.52 471.73 280.52Z" fill="#96D0D2"/>
<path d="M486.77 267.51H456.69V243.061C456.69 234.771 463.44 228.021 471.73 228.021C480.02 228.021 486.77 234.771 486.77 243.061V267.51ZM460.47 263.73H482.99V243.061C482.99 236.851 477.94 231.801 471.73 231.801C465.52 231.801 460.47 236.851 460.47 243.061V263.73Z" fill="#96D0D2"/>
<path d="M474.61 260.58C474.61 262.17 473.32 263.47 471.72 263.47C470.12 263.47 468.83 262.18 468.83 260.58C468.83 258.98 470.12 257.69 471.72 257.69C473.32 257.69 474.61 258.98 474.61 260.58Z" fill="white"/>
<path d="M471.73 260.581L468.84 268.951H474.61L471.73 260.581Z" fill="white"/>
<path d="M542.91 69.7603H471.93C469.047 69.7603 466.71 72.0973 466.71 74.9802V118.76C466.71 121.643 469.047 123.98 471.93 123.98H542.91C545.793 123.98 548.13 121.643 548.13 118.76V74.9802C548.13 72.0973 545.793 69.7603 542.91 69.7603Z" fill="#96D0D2"/>
<path d="M545.61 69.7603H474.63C471.747 69.7603 469.41 72.0973 469.41 74.9802V118.76C469.41 121.643 471.747 123.98 474.63 123.98H545.61C548.493 123.98 550.83 121.643 550.83 118.76V74.9802C550.83 72.0973 548.493 69.7603 545.61 69.7603Z" fill="#96D0D2"/>
<path d="M547.7 118.75V74.9802C547.7 73.8259 546.765 72.8901 545.61 72.8901H474.64C473.486 72.8901 472.55 73.8259 472.55 74.9802V118.75C472.55 119.904 473.486 120.84 474.64 120.84H545.61C546.765 120.84 547.7 119.904 547.7 118.75Z" fill="white"/>
<path d="M163.97 342.63L162.18 347.35L162.12 347.48L156.17 363.16L151.47 375.56C151.47 375.56 151.05 375.79 150.29 376.21C148.45 377.22 144.59 379.34 139.65 381.91C127.92 388.02 110.14 396.74 99.1001 399.62C96.6201 400.27 94.4801 400.61 92.8201 400.57C79.4401 400.22 29.25 395.46 29.25 395.46C31.54 392.47 31.1899 383.13 31.1899 383.13C31.1899 383.13 47.8101 382.37 59.8101 381.62C63.0901 381.42 66.0199 381.21 68.1699 381.02C78.2099 380.14 93.8799 383.13 93.8799 383.13C93.8799 383.13 122.23 359.54 129.27 352.32C130.88 350.67 132.35 349.28 133.68 348.1C138.17 344.11 140.89 342.63 140.89 342.63H163.96H163.97Z" fill="#FE99B7"/>
<path d="M150.289 376.2C144.079 379.63 114.779 395.53 99.1094 399.6L141.799 366.14L150.289 376.2Z" fill="url(#paint1_linear_119_2908)"/>
<path d="M24.1903 382.18L31.3404 383.4C31.3404 383.4 32.1405 391.64 29.6205 394.9C29.6205 394.9 25.1604 396 19.3104 399.76C14.5804 402.8 6.5003 409.44 2.1903 407.15C-2.1197 404.86 13.3404 391.24 13.3404 391.24L24.1903 382.18Z" fill="#005F7B"/>
<path d="M178.23 367.1C177.22 370.71 176.03 374.65 174.71 378.75C167.05 402.59 155.32 431.83 153.17 434.54C150.64 437.71 90.9602 465.09 90.9602 465.09C92.6102 458.4 85.9102 456.19 85.9102 456.19C85.9102 456.19 101.21 442.89 110.5 435.48C110.5 435.48 110.51 435.47 110.52 435.48C111.18 434.95 111.79 434.46 112.38 434.01C121.3 427.09 135.33 423.33 135.33 423.33C135.33 423.33 137.89 399.66 139.66 381.9C139.97 378.81 140.25 375.9 140.5 373.32C141.21 365.86 143.65 360.13 146.2 356.02C149.59 350.56 153.18 347.96 153.18 347.96C153.18 347.96 157.23 347.26 162.13 347.47C162.31 347.47 162.49 347.48 162.67 347.49C167.09 347.74 172.11 348.77 175.44 351.71C178.73 354.61 180.38 359.37 178.24 367.09L178.23 367.1Z" fill="#FE99B7"/>
<path d="M80.3494 456.73L87.0594 455.87C87.0594 455.87 92.5793 460.34 90.9693 465.09C90.9693 465.09 85.4594 471.65 81.5494 475.55C77.6394 479.45 73.0594 488.29 65.8094 486.43C58.5594 484.57 80.3494 456.73 80.3494 456.73Z" fill="#005F7B"/>
<path d="M25.7496 384C26.2596 386.32 25.7497 388.76 21.8097 391.42C17.9997 393.99 17.4097 395.27 13.1097 400.22C8.79975 405.17 3.9497 409.29 1.5597 406.63C-0.820302 403.97 2.65957 397.01 5.67957 394.17C8.69957 391.33 13.1395 388.04 16.3995 384.82C19.3295 381.92 25.0996 381.06 25.7496 384Z" fill="#00324B"/>
<path d="M81.5902 457.12C85.4902 459.74 84.4401 464.05 79.0301 471.11C73.6201 478.17 73.7701 485.54 65.8101 486.44C61.7601 486.9 61.9501 478.82 66.2601 472.77C70.9701 466.16 74.61 460.72 75.43 459.4C77.08 456.7 80.3002 456.26 81.6002 457.13L81.5902 457.12Z" fill="#00324B"/>
<path d="M178.229 367.1C177.219 370.71 176.029 374.65 174.709 378.75C168.489 372.85 162.069 367.6 156.169 363.16C152.599 360.47 149.219 358.08 146.189 356.03C140.269 352.01 135.699 349.27 133.689 348.1C138.179 344.11 140.899 342.63 140.899 342.63H147.889L162.179 347.35L162.659 347.5L175.429 351.72C178.719 354.62 180.369 359.38 178.229 367.1Z" fill="url(#paint2_linear_119_2908)"/>
<path d="M173.02 253.51C173.02 253.51 173.94 247.49 175 243.73C176.06 239.97 180.169 235.4 181.219 236.8C182.279 238.21 181.669 241.95 181.219 245.02C180.769 248.09 181.699 250.18 181.699 250.18C181.699 250.18 182.629 243.73 183.919 245.02C185.209 246.31 184.39 254.96 182.75 255.45C181.11 255.93 178.76 257.58 178.76 257.58L173.02 253.51Z" fill="#FFB691"/>
<path d="M173.02 253.51C173.02 253.51 148.12 279.59 146.36 286.11C144.6 292.63 165.55 279.95 165.55 279.95L178.76 257.59L173.02 253.52V253.51Z" fill="#005F7B"/>
<path d="M146.36 286.11C145.47 290.77 146.54 295.97 159.57 296.15C172.6 296.33 173.84 279.5 173.84 279.5C173.84 279.5 165.56 277.82 157.46 279.5C149.36 281.18 146.67 284.52 146.37 286.11H146.36Z" fill="url(#paint3_linear_119_2908)"/>
<path d="M280.2 213.21H182.54C180.474 213.21 178.8 214.884 178.8 216.95V280.7C178.8 282.765 180.474 284.44 182.54 284.44H280.2C282.265 284.44 283.94 282.765 283.94 280.7V216.95C283.94 214.884 282.265 213.21 280.2 213.21Z" fill="#96D0D2"/>
<path d="M280.199 216.14H182.54C182.092 216.14 181.729 216.503 181.729 216.95V280.69C181.729 281.137 182.092 281.5 182.54 281.5H280.199C280.647 281.5 281.01 281.137 281.01 280.69V216.95C281.01 216.503 280.647 216.14 280.199 216.14Z" fill="white"/>
<path d="M208.76 247.06H199.8V277.13H208.76V247.06Z" fill="#C5E7E8"/>
<path d="M225.479 240.09H216.52V277.13H225.479V240.09Z" fill="#C5E7E8"/>
<path d="M242.39 255.03H233.43V277.14H242.39V255.03Z" fill="#C5E7E8"/>
<path d="M259.11 236.92H250.149V277.13H259.11V236.92Z" fill="#C5E7E8"/>
<path d="M275.649 245.7H266.689V277.14H275.649V245.7Z" fill="#C5E7E8"/>
<path d="M275.85 256.88H266.49C265.98 256.88 265.57 256.47 265.57 255.96C265.57 255.45 265.98 255.04 266.49 255.04H275.85C276.36 255.04 276.77 255.45 276.77 255.96C276.77 256.47 276.36 256.88 275.85 256.88Z" fill="#FE99B7"/>
<path d="M210.99 250.98C210.99 250.98 213.44 250.12 214.31 248.28C215.19 246.42 214.42 243.99 212.16 243.4C206.37 241.89 207.06 236.48 200.79 237.85C198.8 238.28 198.02 240 196.01 240.6C191.53 241.94 187.87 239.16 186.01 244.87C185.14 247.55 181.57 249.14 178.92 251.27C177.44 252.46 175.94 258.63 179.78 260.48C184.78 262.9 180.15 269.75 185.77 268.96C190.61 268.28 187.98 276.63 191.07 276.91C194.16 277.19 202.56 263.22 203.68 262.25C204.8 261.28 210.99 250.99 210.99 250.99V250.98Z" fill="#002144"/>
<path d="M187.34 268.75L181.71 281.56L184.49 286.24L197.97 285.43L200.83 274.64C200.83 274.64 207.5 274.74 209.31 271.22C211.12 267.7 213.24 254.82 211 250.98C211 250.98 203.57 251.6 202.72 254.45C201.87 257.3 200.33 260.51 198.6 259.03C196.45 257.19 194.65 261.86 196.81 263.81C198.97 265.76 193.63 272.24 191.17 271.3C189.26 270.57 187.33 268.75 187.33 268.75H187.34Z" fill="#FFB691"/>
<path d="M196.999 269.97C196.999 269.97 198.109 273.44 200.829 274.64L199.719 278.85C199.719 278.85 195.709 276.88 197.009 269.97H196.999Z" fill="#EB9D76"/>
<path d="M277.37 258.99C277.37 258.99 260.229 288.57 254.129 293.97C251.169 296.58 241.21 300.18 231.37 303.99C231.37 303.99 231.36 303.99 231.32 304C220.83 308.07 210.5 312.38 208.94 315.99C206.99 320.52 200.83 333.64 192.62 345.38C191.96 346.32 191.32 347.32 190.7 348.37C190.7 348.37 190.7 348.38 190.69 348.39C184.33 359.08 179.83 374.3 178.34 373.87C176.69 373.41 166.18 365.7 157.6 359.42C149.11 353.19 138.98 346.94 134.67 345.09C132.68 344.24 143.56 340.34 149.37 327.13C154.76 314.88 158.58 299.13 158.58 296.55C158.58 293.97 160.69 283.41 167.5 280.59C174.31 277.77 184.78 281.1 189.81 282.7C189.81 282.7 202.49 286.69 206.24 288.1C209.99 289.51 239.339 284.35 242.389 282.7C245.449 281.05 271.03 254.53 271.03 254.53L277.37 258.99Z" fill="#005F7B"/>
<path d="M271.029 254.53C271.029 254.53 273.029 247.96 275.369 245.02C277.719 242.09 279.129 239.27 279.949 240.44C280.769 241.61 278.659 246.74 278.309 247.35C277.959 247.96 281.479 246.31 283.829 241.15C286.179 235.98 286.879 239.86 287.229 242.09C287.579 244.32 287.929 248.19 285.699 252.19C283.469 256.18 277.369 259 277.369 259L271.029 254.54V254.53Z" fill="#FFB691"/>
<path d="M231.319 304.01C220.829 308.08 210.499 312.39 208.939 316C206.989 320.53 200.829 333.65 192.619 345.39C191.959 346.33 191.319 347.33 190.699 348.38C201.219 328.07 199.549 315.16 207.289 311.47C214.799 307.89 230.359 304.24 231.319 304.02V304.01Z" fill="url(#paint4_linear_119_2908)"/>
<path d="M141.199 430.61C129.449 426.75 111.22 435.16 110.52 435.48C111.18 434.95 111.789 434.46 112.379 434.01C121.299 427.09 135.33 423.33 135.33 423.33L141.199 430.61Z" fill="url(#paint5_linear_119_2908)"/>
<path d="M97.7603 390.93C97.7603 390.93 77.0003 382.41 59.8203 381.61C63.1003 381.41 66.0302 381.2 68.1802 381.01C78.2202 380.13 93.8901 383.12 93.8901 383.12C93.8901 383.12 97.5303 387.4 97.7603 390.92V390.93Z" fill="url(#paint6_linear_119_2908)"/>
<path d="M283.94 216.95V227.53H178.8V216.95C178.8 214.89 180.47 213.21 182.54 213.21H280.2C282.27 213.21 283.94 214.89 283.94 216.95Z" fill="#96D0D2"/>
<path d="M269.169 223.95C268.979 223.95 268.799 223.88 268.649 223.74C268.359 223.45 268.359 222.99 268.649 222.71L274.349 217.01C274.639 216.72 275.099 216.72 275.379 217.01C275.669 217.3 275.669 217.76 275.379 218.04L269.679 223.74C269.539 223.88 269.349 223.95 269.159 223.95H269.169Z" fill="white"/>
<path d="M274.869 223.95C274.679 223.95 274.499 223.88 274.349 223.74L268.649 218.04C268.359 217.75 268.359 217.29 268.649 217.01C268.939 216.72 269.399 216.72 269.679 217.01L275.379 222.71C275.669 223 275.669 223.46 275.379 223.74C275.239 223.88 275.049 223.95 274.859 223.95H274.869Z" fill="white"/>
<path d="M190.03 220.37C190.03 221.61 189.03 222.61 187.79 222.61C186.55 222.61 185.55 221.61 185.55 220.37C185.55 219.13 186.55 218.13 187.79 218.13C189.03 218.13 190.03 219.13 190.03 220.37Z" fill="white"/>
<path d="M197.959 220.37C197.959 221.61 196.959 222.61 195.719 222.61C194.479 222.61 193.479 221.61 193.479 220.37C193.479 219.13 194.479 218.13 195.719 218.13C196.959 218.13 197.959 219.13 197.959 220.37Z" fill="white"/>
<path d="M203.59 222.61C204.827 222.61 205.83 221.607 205.83 220.37C205.83 219.133 204.827 218.13 203.59 218.13C202.352 218.13 201.35 219.133 201.35 220.37C201.35 221.607 202.352 222.61 203.59 222.61Z" fill="white"/>
<path d="M225.69 258.51H216.33C215.82 258.51 215.41 258.1 215.41 257.59C215.41 257.08 215.82 256.67 216.33 256.67H225.69C226.2 256.67 226.61 257.08 226.61 257.59C226.61 258.1 226.2 258.51 225.69 258.51Z" fill="#FE99B7"/>
<path d="M242.59 265.75H233.229C232.719 265.75 232.31 265.34 232.31 264.83C232.31 264.32 232.719 263.91 233.229 263.91H242.59C243.1 263.91 243.51 264.32 243.51 264.83C243.51 265.34 243.1 265.75 242.59 265.75Z" fill="#FE99B7"/>
<path d="M259.32 241.63H249.96C249.45 241.63 249.04 241.22 249.04 240.71C249.04 240.2 249.45 239.79 249.96 239.79H259.32C259.83 239.79 260.24 240.2 260.24 240.71C260.24 241.22 259.83 241.63 259.32 241.63Z" fill="#FE99B7"/>
<path d="M262.57 223.95H256.85C256.45 223.95 256.12 223.62 256.12 223.22C256.12 222.82 256.45 222.49 256.85 222.49H262.57C262.98 222.49 263.3 222.82 263.3 223.22C263.3 223.62 262.97 223.95 262.57 223.95Z" fill="white"/>
<path d="M624.08 426.84C624.08 426.84 633.44 435.92 639.45 440.04C645.46 444.16 650.02 443.64 649.85 441.57C649.68 439.5 642.55 432.69 641 429.73C639.45 426.76 638.3 423.07 636.08 421.72C633.87 420.36 628.959 420.73 627.549 419.29C626.139 417.85 624.08 426.85 624.08 426.85V426.84Z" fill="#005F7B"/>
<path d="M654.279 412.48C654.279 412.48 665.279 421.67 672.909 424.68C680.539 427.68 681.029 427.5 681.189 425.16C681.269 423.94 673.999 416.25 671.829 412.84C669.659 409.43 667.619 405.08 665.029 405.1C662.439 405.12 658.629 404.2 658.629 404.2C658.629 404.2 653.509 409.23 654.289 412.48H654.279Z" fill="#005F7B"/>
<path d="M615.869 308.51C615.869 308.51 614.919 314.13 615.869 317.61C616.819 321.09 617.06 325.38 618.43 324.78C619.79 324.18 618.41 316.06 619.22 316.54C620.04 317.02 624 321.19 624.68 322.47C625.36 323.76 626.999 329.42 628.419 329.7C629.329 329.88 629.39 328.8 629.39 328.8C629.39 328.8 630.399 330.23 631.059 329.29C631.789 328.25 630.41 324.42 630.41 324.42C630.41 324.42 630.909 323.07 630.769 321.72C630.629 320.37 628.65 315.95 627.18 314.07C625.7 312.19 622.079 307.19 622.079 307.19L615.869 308.52V308.51Z" fill="#FFB691"/>
<path d="M592.58 292.6C592.58 292.6 603.16 303.71 601.45 315.62C599.74 327.53 580.519 376.9 580.519 376.9C580.519 376.9 591.95 382.05 604.35 394.21C616.75 406.37 629.899 419.96 629.899 419.96C629.899 419.96 625.199 424.61 623.839 427.86C623.839 427.86 567.62 396.13 562.58 388.55C557.54 380.97 557.31 373.5 563.99 346.1C570.67 318.7 574.799 297.54 574.799 297.54L592.58 292.6Z" fill="#002144"/>
<path d="M554.029 302.67C554.029 302.67 562.79 334.06 575.2 353.74C587.61 373.42 595.64 378.99 601.14 382.37C606.65 385.75 654.279 412.48 654.279 412.48C654.279 412.48 657.11 406.25 660.27 403.98C660.27 403.98 636.37 379.85 627.81 373.94C619.25 368.02 610.06 366.57 609.56 363.71C609.06 360.85 591.839 320.79 591.839 320.79L575.43 296.27L554.009 302.67H554.029Z" fill="#002144"/>
<path d="M618.609 265.85C620.399 275.26 623.819 309.4 623.819 309.4L615.75 311.12C615.75 311.12 604.849 269.7 603.359 265.92C601.869 262.14 590.149 244.59 590.149 244.59C590.149 244.59 590.62 263.86 592.08 271.75C593.53 279.64 597.54 295.19 597.54 295.19C597.54 295.19 589.949 298.81 582.729 300.68C580.499 301.26 578.31 301.67 576.39 301.76C568.27 302.13 556.5 304.89 553.41 306.11C553.41 306.11 544.42 269.4 542.7 262.47C540.99 255.55 536.769 241.03 534.089 239.1C531.399 237.17 502.939 228.51 496.719 224.98C490.489 221.45 468.29 190.04 468.29 190.04L475.949 183.24C475.949 183.24 501.11 208.54 506.03 210.23C510.95 211.92 535.68 220.3 541.75 219.91C543.94 219.78 546.84 219.33 549.81 218.81C555.07 217.87 560.549 216.66 562.779 216.33C566.559 215.77 570.03 215.18 573.91 215.04C578.25 214.88 583.11 215.3 589.5 216.99C601.25 220.1 616.83 256.41 618.62 265.83L618.609 265.85Z" fill="#FFCB5B"/>
<path d="M475.949 183.25C475.949 183.25 460.619 166.27 459.069 167.79C457.519 169.32 463.809 175.04 463.419 175.86C463.029 176.68 459.899 179.63 460.319 181.88C460.739 184.13 468.289 190.05 468.289 190.05L475.949 183.25Z" fill="#FFB691"/>
<path d="M568.649 213.76C567.949 210.55 567.299 206.84 566.919 204.59C566.729 203.48 565.649 202.77 564.559 203.03L554.679 205.4C553.739 205.63 553.099 206.52 553.199 207.48L554.089 216.21C554.189 217.21 553.509 218.13 552.519 218.31C552.509 218.31 552.489 218.31 552.479 218.31C551.079 218.58 550.429 220.21 551.269 221.36C552.829 223.49 555.609 225.93 560.199 226.03C565.879 226.16 570.609 222.12 572.779 218.05C573.499 216.7 572.389 215.09 570.869 215.23C570.819 215.23 570.769 215.23 570.719 215.24C569.749 215.33 568.849 214.69 568.649 213.73V213.76Z" fill="#FFB691"/>
<path d="M544.24 184.57L545.89 200.98L558.81 201.39L561.12 199.12L563.64 196.64L567.569 186.77C567.569 186.77 566.68 179.76 566.37 179.5C566.19 179.35 559.32 179.09 553.54 178.89C549.3 178.75 545.64 178.64 545.64 178.64L544.25 184.56L544.24 184.57Z" fill="#FFB691"/>
<path d="M535.64 180.48C535.73 181.27 535.95 182.07 536.39 182.82C537.09 183.99 538.329 185 540.439 185.51C545.169 186.65 550.11 185.55 553.41 184.51C556.72 183.47 558.03 183.6 559.12 184.08C559.57 184.28 559.729 185.08 559.859 186.07C559.969 186.91 560.059 187.88 560.269 188.76C560.729 190.7 562.019 189.26 562.479 187.44C562.939 185.62 567.08 185.13 566.22 189.33C565.36 193.54 563.299 192.82 562.269 193.85C561.229 194.88 561.34 196.33 558.93 197.81C556.35 199.4 554.019 198.33 553.109 197.64C551.769 196.64 548.319 196.89 547.129 197.01C545.939 197.13 544.68 197.4 544.85 198.52C545.02 199.64 545.479 206.06 546.529 207.59C546.869 208.08 547.29 208.58 547.89 209.04C549.17 210.02 551.229 210.81 554.779 210.74C559.989 210.65 562.939 208.71 565.039 206.37C566.379 204.89 567.29 202.3 567.97 199.59C568.36 198.03 568.67 196.43 568.95 194.97C569.64 191.23 571.619 189.12 571.549 184.03C571.549 183.76 571.539 183.48 571.519 183.19C571.519 183.12 571.519 183.05 571.519 182.99C571.149 177.13 567.079 172.78 564.279 171.07C561.479 169.36 556.96 171.02 555.33 171.11C553.71 171.2 552.029 166.54 545.959 168.36C539.889 170.18 542.319 173.2 540.689 174.57C539.809 175.31 538.519 175.66 537.459 176.2C536.549 176.66 535.819 177.25 535.669 178.35C535.579 178.99 535.539 179.73 535.629 180.49L535.64 180.48Z" fill="#002144"/>
<path d="M597.54 295.19C597.54 295.19 589.95 298.81 582.73 300.68C582.14 294.71 585.89 292.19 582.49 283.57C578.68 273.91 584.78 267.95 584.49 260.25C584.2 252.55 590.15 244.59 590.15 244.59C590.15 244.59 590.62 263.86 592.08 271.75C593.53 279.64 597.54 295.19 597.54 295.19Z" fill="#FFA302"/>
<path d="M590.359 298.21C590.359 298.21 570.48 378.12 572.68 381.14C574.88 384.16 626.83 423.36 626.83 423.36" stroke="white" stroke-width="3" stroke-miterlimit="10"/>
<path d="M634.14 420.99C634.14 420.99 633.46 422.67 635.98 425.82C638.5 428.97 641.08 433.36 644.06 437.29C647.04 441.22 648.979 442.42 649.839 441.57C650.709 440.72 644.789 432.98 642.799 431.18C640.809 429.38 638.73 420.61 634.14 420.99Z" fill="#002144"/>
<path d="M551.66 218.3C551.66 218.3 553.789 224.46 561.279 223.68C568.769 222.9 571.02 217.91 571.93 215.16L574.99 215.03C574.99 215.03 571.669 225.99 561.979 226.64C557.039 226.97 552.689 227.96 549.799 218.82L551.66 218.3Z" fill="white"/>
<path d="M348.669 55.8204C348.669 55.8204 355.38 63.4104 362.34 73.3304C369.3 83.2504 373.379 87.8104 375.899 93.5704C378.419 99.3304 385.62 125.72 385.62 125.72L377.939 128.72C377.939 128.72 362.699 97.6504 361.629 96.2104C360.549 94.7704 346.06 80.5005 346.06 80.5005L348.679 55.8105L348.669 55.8204Z" fill="#002144"/>
<path d="M378.479 128.27C378.479 128.27 379.899 134.73 380.949 138.56C381.999 142.39 383.989 151.58 385.669 151.16C387.349 150.74 385.079 141.63 385.229 140.89C385.389 140.16 390.71 139.24 390.81 135.83C390.92 132.42 385.129 125.41 385.129 125.41L378.479 128.27Z" fill="#FFB691"/>
<path d="M307.46 90.87L310.2 89.54C310.2 89.54 316.33 90.87 319.33 91.65C322.33 92.43 325.03 95.61 325.63 96.21C326.23 96.81 322.03 97.17 320.05 96.51C318.07 95.85 308.47 96.21 308.47 96.21L307.45 90.87H307.46Z" fill="#FFB691"/>
<path d="M328.27 32.6305C328.27 32.6305 326.11 31.4305 324.55 33.2305C322.99 35.0305 324.55 38.7505 326.41 39.5905C326.41 39.5905 326.44 49.5605 332.47 51.2305C338.11 52.7905 343.99 50.7504 346.63 31.2004C346.63 31.2004 336.99 30.0005 335.27 26.5205C335.27 26.5205 331.75 31.1405 328.27 32.6405V32.6305Z" fill="#FFB691"/>
<path d="M617.4 136.26H589.74C587.15 136.26 585.05 138.36 585.05 140.95V155.11C585.05 157.7 587.15 159.8 589.74 159.8H617.4C619.99 159.8 622.09 157.7 622.09 155.11V140.95C622.09 138.36 619.99 136.26 617.4 136.26Z" fill="#FE99B7"/>
<path d="M591.77 158.02L588.08 167.77L606 156.57L591.77 158.02Z" fill="#FE99B7"/>
<path d="M597.65 151.23C597.51 151.23 597.37 151.19 597.25 151.12L589.68 146.49L597.25 141.86C597.61 141.64 598.09 141.75 598.31 142.12C598.53 142.49 598.42 142.96 598.05 143.18L592.64 146.49L598.05 149.8C598.42 150.02 598.53 150.5 598.31 150.86C598.16 151.1 597.91 151.23 597.65 151.23Z" fill="white"/>
<path d="M609.49 154.28C609.23 154.28 608.97 154.15 608.83 153.91C608.61 153.55 608.72 153.07 609.09 152.85L614.5 149.54L609.09 146.23C608.73 146.01 608.61 145.53 608.83 145.17C609.05 144.81 609.53 144.69 609.89 144.91L617.46 149.54L609.89 154.17C609.76 154.25 609.62 154.28 609.49 154.28Z" fill="white"/>
<path d="M599.95 154.32C599.8 154.32 599.66 154.28 599.53 154.19C599.17 153.96 599.07 153.48 599.31 153.12L606.53 142.09C606.76 141.73 607.25 141.63 607.6 141.87C607.96 142.1 608.06 142.58 607.82 142.94L600.6 153.97C600.45 154.2 600.2 154.32 599.95 154.32Z" fill="white"/>
<path d="M405.88 0.490234H375.75C372.928 0.490234 370.64 2.77804 370.64 5.60022V21.0303C370.64 23.8524 372.928 26.1403 375.75 26.1403H405.88C408.702 26.1403 410.99 23.8524 410.99 21.0303V5.60022C410.99 2.77804 408.702 0.490234 405.88 0.490234Z" fill="#FE99B7"/>
<path d="M377.969 24.2003L373.939 34.8104L393.469 22.6104L377.969 24.2003Z" fill="#FE99B7"/>
<path d="M384.29 22.9705C382.11 22.9405 381.01 21.8405 381.01 19.6605V16.4604C381.01 15.0204 380.45 14.2704 379.35 14.2004V12.9604C380.46 12.8904 381.01 12.1205 381.01 10.6605V7.54053C381.01 5.33053 382.1 4.22043 384.29 4.19043V5.56055C383.16 5.59055 382.59 6.29053 382.59 7.67053V10.8005C382.59 12.2905 382.06 13.2105 380.99 13.5505V13.5905C382.06 13.9105 382.59 14.8204 382.59 16.3204V19.4005C382.59 20.1905 382.719 20.7505 382.969 21.0905C383.219 21.4305 383.66 21.6005 384.29 21.6205V22.9604V22.9705Z" fill="white"/>
<path d="M397.109 21.6205C397.739 21.6105 398.179 21.4305 398.429 21.0905C398.679 20.7505 398.809 20.1905 398.809 19.4005V16.3204C398.809 14.8204 399.339 13.9105 400.409 13.5905V13.5505C399.339 13.2105 398.809 12.2905 398.809 10.8005V7.67053C398.809 6.29053 398.239 5.59055 397.109 5.56055V4.19043C399.289 4.22043 400.389 5.34053 400.389 7.54053V10.6605C400.389 12.1305 400.949 12.8904 402.049 12.9604V14.2004C400.939 14.2704 400.389 15.0304 400.389 16.4604V19.6605C400.389 21.8405 399.299 22.9405 397.109 22.9705V21.6305V21.6205Z" fill="white"/>
<path d="M396.32 17.0205H385.27V18.2705H396.32V17.0205Z" fill="white"/>
<path d="M396.32 12.9502H385.27V14.2002H396.32V12.9502Z" fill="white"/>
<path d="M396.31 9.11035H390.79V10.3604H396.31V9.11035Z" fill="white"/>
<path d="M337.17 24.5103C337.17 24.5103 344.23 30.8203 351.33 27.6603" stroke="#FFA302" stroke-width="3" stroke-miterlimit="10"/>
<path d="M341.62 24.5103C341.62 24.5103 345.59 26.9102 349.98 25.2402" stroke="#FFA302" stroke-width="3" stroke-miterlimit="10"/>
<path d="M329.81 13.6001C329.81 13.6001 323.549 15.8801 323.909 20.2501" stroke="#FFA302" stroke-width="3" stroke-miterlimit="10"/>
<path d="M470.67 81.5004H549.66L548.13 72.7203L543.18 70.9004H472.9L470.67 73.9403V81.5004Z" fill="#96D0D2"/>
<path d="M478.86 75.5701C478.86 76.8101 477.86 77.8102 476.62 77.8102C475.38 77.8102 474.38 76.8101 474.38 75.5701C474.38 74.3301 475.38 73.3301 476.62 73.3301C477.86 73.3301 478.86 74.3301 478.86 75.5701Z" fill="white"/>
<path d="M486.79 75.5701C486.79 76.8101 485.79 77.8102 484.55 77.8102C483.31 77.8102 482.31 76.8101 482.31 75.5701C482.31 74.3301 483.31 73.3301 484.55 73.3301C485.79 73.3301 486.79 74.3301 486.79 75.5701Z" fill="white"/>
<path d="M494.65 75.5701C494.65 76.8101 493.65 77.8102 492.41 77.8102C491.17 77.8102 490.17 76.8101 490.17 75.5701C490.17 74.3301 491.17 73.3301 492.41 73.3301C493.65 73.3301 494.65 74.3301 494.65 75.5701Z" fill="white"/>
<path d="M523.2 97.3801C522.05 97.3801 520.96 97.6202 519.98 98.0502C518.5 93.0602 513.89 89.4302 508.42 89.4302C501.79 89.4302 496.41 94.7801 496.36 101.4C496.2 101.39 496.04 101.38 495.88 101.38C492.52 101.38 489.79 104.1 489.79 107.47C489.79 110.84 492.3 113.33 495.48 113.54V113.56H523.2C527.66 113.56 531.28 109.94 531.28 105.48C531.28 101.02 527.66 97.4001 523.2 97.4001V97.3801Z" fill="#C5E7E8"/>
<path d="M266.969 83.38C265.369 88.17 270.309 94.2301 282.309 95.6701C294.309 97.1101 308.479 96.22 308.479 96.22L310.199 89.5501L285.799 81.71C285.799 81.71 304.309 65.66 306.669 61.08C308.589 57.36 308.709 49.01 300.069 49.85C291.429 50.69 269.119 76.91 266.959 83.39L266.969 83.38Z" fill="#002144"/>
<path d="M139.919 189.48H127.12C123.198 189.48 120.02 192.659 120.02 196.58V209.38C120.02 213.302 123.198 216.48 127.12 216.48H139.919C143.841 216.48 147.02 213.302 147.02 209.38V196.58C147.02 192.659 143.841 189.48 139.919 189.48Z" fill="#FFE8B5"/>
<path d="M132.97 197.89C132.94 197.68 132.89 197.47 132.83 197.27L133.52 196.43C133.35 196.05 133.14 195.7 132.89 195.38L131.82 195.6C131.52 195.3 131.18 195.04 130.8 194.84L130.69 193.75C130.31 193.61 129.91 193.5 129.5 193.45L128.9 194.36C128.69 194.36 128.48 194.37 128.26 194.41C128.05 194.44 127.84 194.49 127.64 194.55L126.8 193.86C126.42 194.03 126.07 194.24 125.75 194.49L125.97 195.56C125.67 195.86 125.41 196.2 125.21 196.58L124.13 196.69C123.98 197.07 123.88 197.47 123.83 197.88L124.74 198.48C124.74 198.69 124.75 198.9 124.79 199.12C124.82 199.33 124.87 199.54 124.93 199.74L124.24 200.58C124.41 200.96 124.62 201.31 124.87 201.63L125.94 201.41C126.24 201.71 126.58 201.97 126.96 202.16L127.07 203.25C127.45 203.39 127.85 203.5 128.26 203.55L128.86 202.64C129.07 202.64 129.28 202.63 129.49 202.59C129.7 202.56 129.91 202.51 130.11 202.45L130.95 203.14C131.33 202.97 131.68 202.76 132 202.51L131.78 201.44C132.08 201.14 132.34 200.8 132.53 200.42L133.62 200.31C133.76 199.93 133.87 199.53 133.92 199.12L133.01 198.52C133.01 198.31 132.99 198.1 132.96 197.88L132.97 197.89ZM129.25 200.96C127.89 201.16 126.62 200.23 126.42 198.87C126.22 197.51 127.15 196.24 128.51 196.04C129.87 195.84 131.14 196.77 131.34 198.13C131.54 199.49 130.61 200.76 129.25 200.96Z" fill="white"/>
<path d="M142.339 202.63C142.309 202.42 142.259 202.21 142.199 202.01L142.889 201.171C142.719 200.791 142.509 200.44 142.259 200.12L141.189 200.34C140.889 200.04 140.549 199.78 140.169 199.58L140.059 198.49C139.679 198.35 139.279 198.25 138.869 198.19L138.269 199.1C138.059 199.1 137.849 199.111 137.629 199.151C137.419 199.181 137.209 199.231 137.009 199.291L136.169 198.6C135.789 198.77 135.439 198.98 135.119 199.23L135.339 200.301C135.039 200.601 134.779 200.94 134.579 201.32L133.499 201.431C133.349 201.811 133.249 202.21 133.199 202.62L134.109 203.22C134.109 203.43 134.119 203.64 134.159 203.86C134.189 204.07 134.239 204.28 134.299 204.48L133.609 205.32C133.779 205.7 133.989 206.05 134.239 206.37L135.309 206.151C135.609 206.451 135.949 206.711 136.329 206.901L136.439 207.99C136.819 208.13 137.219 208.241 137.629 208.291L138.229 207.38C138.439 207.38 138.649 207.37 138.859 207.33C139.069 207.3 139.279 207.25 139.479 207.19L140.319 207.88C140.699 207.71 141.049 207.5 141.369 207.25L141.149 206.181C141.449 205.881 141.709 205.541 141.899 205.161L142.989 205.051C143.129 204.671 143.239 204.27 143.289 203.86L142.379 203.26C142.379 203.05 142.359 202.84 142.329 202.62L142.339 202.63ZM138.619 205.7C137.259 205.9 135.989 204.97 135.789 203.61C135.589 202.25 136.519 200.981 137.879 200.781C139.239 200.581 140.509 201.51 140.709 202.87C140.909 204.23 139.979 205.5 138.619 205.7Z" fill="white"/>
<path d="M132.7 206.76C132.61 206.6 132.52 206.45 132.41 206.3L132.72 205.43C132.48 205.17 132.21 204.95 131.91 204.77L131.11 205.25C130.78 205.09 130.43 204.99 130.08 204.93L129.68 204.09C129.33 204.09 128.99 204.12 128.64 204.19L128.42 205.09C128.25 205.15 128.09 205.22 127.92 205.31C127.76 205.4 127.61 205.49 127.46 205.6L126.59 205.29C126.33 205.53 126.11 205.8 125.93 206.1L126.41 206.9C126.25 207.23 126.15 207.58 126.1 207.94L125.26 208.33C125.26 208.67 125.28 209.02 125.36 209.37L126.26 209.59C126.32 209.76 126.39 209.92 126.48 210.09C126.57 210.25 126.66 210.41 126.77 210.55L126.45 211.42C126.69 211.68 126.96 211.9 127.26 212.08L128.06 211.6C128.39 211.76 128.74 211.86 129.1 211.91L129.5 212.75C129.84 212.75 130.19 212.73 130.54 212.65L130.76 211.75C130.93 211.69 131.09 211.62 131.26 211.53C131.42 211.44 131.58 211.35 131.72 211.24L132.59 211.55C132.84 211.31 133.07 211.04 133.25 210.74L132.77 209.94C132.93 209.61 133.03 209.26 133.08 208.91L133.92 208.51C133.92 208.16 133.89 207.82 133.82 207.47L132.92 207.25C132.86 207.08 132.79 206.92 132.7 206.75V206.76ZM130.59 210.29C129.56 210.84 128.27 210.45 127.72 209.42C127.17 208.39 127.56 207.1 128.59 206.55C129.62 206 130.91 206.39 131.46 207.42C132.01 208.45 131.62 209.74 130.59 210.29Z" fill="white"/>
<defs>
<linearGradient id="paint0_linear_119_2908" x1="459.77" y1="-61.0431" x2="271.562" y2="585.559" gradientUnits="userSpaceOnUse">
<stop stop-color="#C5E7E8"/>
<stop offset="1" stop-color="#FFF5FE"/>
</linearGradient>
<linearGradient id="paint1_linear_119_2908" x1="99.1094" y1="382.88" x2="150.289" y2="382.88" gradientUnits="userSpaceOnUse">
<stop stop-color="#FE99B7"/>
<stop offset="1" stop-color="#FE688E"/>
</linearGradient>
<linearGradient id="paint2_linear_119_2908" x1="133.689" y1="360.69" x2="179.199" y2="360.69" gradientUnits="userSpaceOnUse">
<stop stop-color="#FE99B7"/>
<stop offset="1" stop-color="#FE688E"/>
</linearGradient>
<linearGradient id="paint3_linear_119_2908" x1="146.13" y1="287.45" x2="173.84" y2="287.45" gradientUnits="userSpaceOnUse">
<stop stop-color="#005F7B"/>
<stop offset="1" stop-color="#00324B"/>
</linearGradient>
<linearGradient id="paint4_linear_119_2908" x1="190.689" y1="326.19" x2="231.319" y2="326.19" gradientUnits="userSpaceOnUse">
<stop stop-color="#005F7B"/>
<stop offset="1" stop-color="#00324B"/>
</linearGradient>
<linearGradient id="paint5_linear_119_2908" x1="146.229" y1="446.49" x2="42.4594" y2="370.43" gradientUnits="userSpaceOnUse">
<stop stop-color="#FE99B7"/>
<stop offset="1" stop-color="#FE688E"/>
</linearGradient>
<linearGradient id="paint6_linear_119_2908" x1="152.56" y1="437.86" x2="48.7799" y2="361.79" gradientUnits="userSpaceOnUse">
<stop stop-color="#FE99B7"/>
<stop offset="1" stop-color="#FE688E"/>
</linearGradient>
</defs>
</svg>
