<svg width="623" height="445" viewBox="0 0 623 445" fill="none" xmlns="http://www.w3.org/2000/svg">
<path opacity="0.52" d="M129.039 289.64C129.039 289.64 120.709 275.41 102.389 279.75C90.8093 282.5 86.0492 265.54 76.4692 261.81C58.8892 254.97 48.6893 288.99 29.2893 279.49C16.4593 273.2 0.989258 289.64 0.989258 289.64H129.039Z" fill="#F0EBF7"/>
<path d="M473.34 421.74C473.34 421.74 481.67 387.67 513.58 373.8C545.49 359.93 567.8 363.97 572.15 361.11C576.5 358.25 572.62 374.19 570.98 380.4C569.34 386.61 565.64 408.01 548.01 425.61C530.38 443.21 489.29 434.79 489.29 434.79L473.34 421.74Z" fill="#F0EBF7"/>
<path d="M493.28 408.38C493.19 408.36 493.11 408.32 493.05 408.25C492.87 408.06 492.88 407.77 493.07 407.6C493.22 407.46 508.41 393.26 527.43 383.25C537.06 378.18 546.1 374.82 553.36 372.12C560.52 369.46 565.69 367.53 567.63 365.4C567.8 365.21 568.1 365.2 568.28 365.37C568.47 365.54 568.48 365.84 568.31 366.02C566.22 368.32 560.96 370.28 553.68 372.98C546.44 375.67 537.44 379.02 527.86 384.06C508.96 394 493.86 408.12 493.71 408.26C493.59 408.37 493.43 408.41 493.29 408.37L493.28 408.38Z" fill="#CBC0E0"/>
<path d="M535.01 399.11C523.42 396.41 514.17 392.16 514.03 392.09C513.8 391.98 513.7 391.71 513.8 391.47C513.91 391.24 514.18 391.14 514.42 391.25C514.63 391.35 535.26 400.82 553.44 400.35C553.7 400.35 553.91 400.55 553.91 400.8C553.91 401.06 553.71 401.27 553.46 401.27C547.29 401.43 540.85 400.46 535 399.1L535.01 399.11Z" fill="#CBC0E0"/>
<path d="M551.64 382.11C545.58 380.7 539.88 378.52 539.52 378.39C539.28 378.3 539.16 378.03 539.25 377.79C539.34 377.55 539.61 377.43 539.85 377.52C539.98 377.57 553.09 382.57 560.62 382.37C560.88 382.37 561.09 382.57 561.1 382.82C561.1 383.08 560.9 383.29 560.65 383.29C558.02 383.36 554.78 382.83 551.64 382.1V382.11Z" fill="#CBC0E0"/>
<path d="M523.92 416.07C513.72 413.69 497.27 405.85 496.44 405.45C496.21 405.34 496.11 405.06 496.22 404.83C496.33 404.6 496.61 404.5 496.84 404.61C497.08 404.73 521.27 416.26 529.15 415.8C529.4 415.79 529.62 415.98 529.64 416.24C529.65 416.5 529.46 416.71 529.2 416.73C527.82 416.81 526 416.55 523.91 416.07H523.92Z" fill="#CBC0E0"/>
<path d="M502.849 400.31C502.649 400.26 502.5 400.08 502.49 399.87C502.49 399.75 502.37 388.13 507.4 378.81C507.52 378.58 507.8 378.5 508.03 378.62C508.26 378.74 508.339 379.02 508.219 379.25C503.309 388.35 503.42 399.74 503.42 399.85C503.42 400.11 503.219 400.32 502.959 400.32C502.919 400.32 502.879 400.32 502.849 400.31Z" fill="#CBC0E0"/>
<path d="M524.38 385.82C524.13 385.76 523.98 385.51 524.04 385.26C524.14 384.85 526.62 375.07 530.55 369.3C530.69 369.09 530.979 369.03 531.189 369.18C531.399 369.32 531.46 369.61 531.31 369.82C527.47 375.45 524.96 385.38 524.93 385.48C524.87 385.73 524.62 385.88 524.38 385.82Z" fill="#CBC0E0"/>
<path d="M58.9795 442.55C58.9795 442.55 71.0695 407.56 106.569 418.32C106.569 418.32 106.68 389.25 137.55 384.84C171.82 379.95 182.18 411.85 182.18 411.85C182.18 411.85 226.02 406.72 226.02 442.55H58.9795Z" fill="#D6ECE0"/>
<path d="M388.999 157.64L402.179 155.43C402.179 155.43 409.829 146.77 430.959 176.67C452.089 206.56 461.149 236.05 449.979 241.68C438.809 247.32 407.109 243.39 407.109 243.39L388.989 157.64H388.999Z" fill="#FBD163"/>
<path d="M412.25 182.14C419.5 190.24 426.74 191.47 437.61 208.97C448.48 226.47 421.9 219.83 421.9 219.83C421.9 219.83 405.6 207.35 405.6 204.84C405.6 202.33 412.24 182.14 412.24 182.14H412.25Z" fill="#EDBF47"/>
<path d="M551.069 444.03C551.069 444.03 551.149 394.17 496.559 418.43C496.559 418.43 484.559 375.51 453.119 377.54C421.679 379.57 418.639 420.18 418.639 420.18C418.639 420.18 375.579 398.29 352.489 442.68L551.069 444.03Z" fill="#D6ECE0"/>
<path d="M452.159 442.91L451.059 442.76C454.699 416.75 440.689 398.08 440.549 397.9L441.429 397.23C441.569 397.42 455.869 416.45 452.159 442.92V442.91Z" fill="#93DEB4"/>
<path d="M452.669 426.93L451.779 426.28C451.909 426.1 464.689 408.52 466.879 397.46L467.969 397.67C465.729 408.98 453.209 426.2 452.679 426.93H452.669Z" fill="#93DEB4"/>
<path d="M452.17 436.08C442.26 435.46 433.47 423.7 433.1 423.2L433.99 422.54C434.08 422.66 442.84 434.38 452.23 434.97L452.16 436.07L452.17 436.08Z" fill="#93DEB4"/>
<path d="M484.549 442.62L486.039 441.55C486.209 441.43 503.459 429.2 521.929 428.34L521.979 429.45C507.079 430.14 492.949 438.4 488.289 441.38L506.699 440.74L506.739 441.85L484.559 442.62H484.549Z" fill="#93DEB4"/>
<path d="M498.24 435.71L497.189 435.35C500.019 427.08 506.2 419.02 506.26 418.94L507.14 419.62C507.08 419.7 501.01 427.63 498.24 435.72V435.71Z" fill="#93DEB4"/>
<path d="M411.579 442.42C411.449 442.31 398.019 431.03 383.049 425.78L383.419 424.74C398.589 430.06 412.169 441.46 412.299 441.58L411.589 442.42H411.579Z" fill="#93DEB4"/>
<path d="M376.589 438.46L376.079 437.48C376.469 437.28 385.879 432.57 403.219 434.98L403.069 436.08C386.109 433.72 376.679 438.42 376.589 438.47V438.46Z" fill="#93DEB4"/>
<path d="M153.829 444.68L153.359 443.91C171.639 432.67 176.109 414.14 176.149 413.95L177.029 414.15C176.989 414.34 172.429 433.24 153.829 444.68Z" fill="#93DEB4"/>
<path d="M164.169 436.689L164.119 435.79C164.299 435.78 182.019 434.69 190.129 430.31L190.559 431.109C182.269 435.579 164.909 436.659 164.169 436.699V436.689Z" fill="#93DEB4"/>
<path d="M158.14 441.13C153.37 434.56 156.21 422.91 156.33 422.42L157.21 422.64C157.18 422.76 154.35 434.37 158.87 440.6L158.14 441.13Z" fill="#93DEB4"/>
<path d="M179.119 229H292.119C293.655 229 294.899 227.755 294.899 226.22V155.78C294.899 154.245 293.655 153 292.119 153H179.119C177.584 153 176.339 154.245 176.339 155.78V226.22C176.339 227.755 177.584 229 179.119 229Z" fill="#24292F"/>
<path d="M222.329 241.68H248.899V218.18H222.329V241.68Z" fill="#24292F"/>
<path d="M291.88 225.97V156.01H179.36V225.97H291.88Z" fill="white"/>
<path d="M325.439 108.27C325.439 108.27 325.659 109.44 326.069 111.32C327.449 117.56 330.979 131.69 335.849 137.26C339.569 141.51 344.27 142.28 347.53 142.19C349.9 142.13 352 143.69 352.66 145.97L356.979 160.81L381.579 153.35L373.64 135.75L370.719 129.27L359.55 99.23H332.079L325.439 108.29V108.27Z" fill="#F6A49D"/>
<path d="M243.169 231.16C243.169 231.16 229.279 232.07 222.789 234.63C216.299 237.2 210.109 241.67 212.219 241.67H240.449L243.169 231.15V231.16Z" fill="#F6A49D"/>
<path d="M142.28 444.88L140.79 443.81C140.62 443.69 123.37 431.46 104.9 430.6L104.85 431.71C119.75 432.4 133.88 440.66 138.54 443.64L120.13 443L120.09 444.11L142.27 444.88H142.28Z" fill="#93DEB4"/>
<path d="M128.58 437.97L129.63 437.61C126.79 429.34 120.62 421.28 120.56 421.2L119.68 421.88C119.74 421.96 125.81 429.89 128.58 437.98V437.97Z" fill="#93DEB4"/>
<path d="M267.929 403.3C267.929 403.3 260.279 415.15 260.679 422.54C261.079 429.93 263.859 435.1 262.469 442.55H200.489C200.489 442.55 206.379 433.23 217.039 430.41C227.709 427.59 236.309 431.68 249.599 395.65C259.969 367.53 267.919 403.3 267.919 403.3H267.929Z" fill="#24292F"/>
<path d="M242.569 396.3L269.139 407.57C269.139 407.57 270.389 405.14 272.539 401.28C278.129 391.24 289.799 371.49 301.339 359.63C317.319 343.21 332.739 300.45 332.739 300.45L302.079 298.49L294.899 298.03L292.509 302.52L275.589 334.29L242.569 396.3Z" fill="#745FAA"/>
<path d="M292.509 302.52L302.079 298.49L332.739 300.45C332.739 300.45 317.319 343.2 301.339 359.63C289.789 371.5 278.119 391.24 272.539 401.28C272.229 399.45 271.779 397.51 271.149 395.45C266.319 379.75 282.829 374.92 277.589 352.8C275.839 345.43 275.379 339.38 275.589 334.29L292.509 302.52Z" fill="#574780"/>
<path opacity="0.52" d="M622.26 172.2C622.26 172.2 613.09 156.55 592.95 161.32C580.22 164.34 574.99 145.7 564.44 141.6C545.11 134.08 533.89 171.49 512.55 161.04C498.44 154.13 481.43 172.2 481.43 172.2H622.25H622.26Z" fill="#F0EBF7"/>
<path opacity="0.52" d="M419.219 39.9802C419.219 39.9802 414.339 38.5202 407.669 28.5102C400.999 18.5002 389.979 32.1102 381.449 15.7602C372.919 -0.599787 367.249 -5.65977 352.469 8.34023C337.689 22.3502 328.309 27.5502 316.779 19.0202C305.249 10.4802 298.629 23.2002 288.369 31.5902C278.109 39.9802 268.249 35.0202 264.459 39.9802H419.219Z" fill="#F0EBF7"/>
<path d="M151.98 253.75L484.1 253.75V241.67L151.98 241.67V253.75Z" fill="#7DD0E2"/>
<path d="M151.98 256.9L484.1 256.9V253.82L151.98 253.82V256.9Z" fill="#A7ADBF"/>
<path d="M151.99 253.75H257.06V241.67H151.99V253.75Z" fill="#C2E7F0"/>
<path d="M38.98 444.97L531.75 444.97V442.55L38.98 442.55V444.97Z" fill="#3A3E49"/>
<path d="M335.96 402.7C335.96 402.7 336.18 416.51 340.84 426.65C344.26 434.1 345.62 442.55 345.62 442.55H283.63C283.63 442.55 287.66 434.5 298.16 432.25C312.6 429.15 320.67 418.8 317.25 405.52C313.83 392.24 335.97 402.7 335.97 402.7H335.96Z" fill="#24292F"/>
<path d="M276.379 314.94L315.43 410.75H341.589C341.589 410.75 332.739 386.6 330.719 366.07C328.709 345.54 315.42 308.3 315.42 308.3C315.42 308.3 324.789 307.83 337.879 307.23C362.289 306.09 399.619 304.48 413.249 304.48C419.909 304.48 423.839 300.49 426.109 295.04C430.959 283.37 428.15 265.02 428.15 265.02H354.259C354.259 265.02 306.969 277.91 287.249 286.36C267.529 294.81 276.379 314.94 276.379 314.94Z" fill="#745FAA"/>
<path d="M337.89 307.23C362.3 306.09 399.63 304.48 413.26 304.48C419.92 304.48 423.85 300.49 426.12 295.04C417.4 300.98 411.37 303.61 405.61 297.31C398.98 290.04 398.75 296.69 384.4 300.96C377.31 303.07 364.66 303.49 350.21 303.55C341.9 303.59 338.29 304.99 337.89 307.23Z" fill="#574780"/>
<path d="M328.1 410.87L328.65 410.62C328.22 409.67 285.95 315.27 289.3 304.56C291.48 297.59 318.31 290.31 343.68 286.72C362.09 284.11 365.14 270.05 365.17 269.91L364.58 269.79C364.55 269.93 361.57 283.58 343.6 286.12C318.04 289.74 290.98 297.17 288.73 304.38C285.31 315.31 326.36 406.97 328.11 410.87H328.1Z" fill="white"/>
<path d="M353.52 269.85H428.66L428.15 265.02H353.52V269.85Z" fill="#24292F"/>
<path d="M386.279 155.12C386.279 155.12 384.469 144.65 377.219 144.25C369.969 143.85 354.679 152.1 352.859 159.35C351.049 166.6 386.269 155.12 386.269 155.12H386.279Z" fill="#EDBF47"/>
<path d="M240.449 229.5V241.68H297.509C297.509 241.68 304.929 243.23 319.389 225.98C319.389 225.98 319.389 225.98 319.389 225.97C322.509 222.26 325.949 217.67 329.709 212.02C330.809 210.36 333.369 210.87 333.749 212.82C335.359 220.96 338.679 236.22 342.489 244.72C347.879 256.73 354.249 265.03 354.249 265.03H428.129C428.129 265.03 431.949 259.57 432.449 246.15C432.559 242.97 432.499 239.35 432.149 235.24C430.339 213.8 422.189 185.42 420.679 176.67C420.069 173.12 419.009 168.88 417.969 165.09C416.189 158.63 410.599 153.94 403.919 153.38C389.889 152.23 363.409 152.54 330.169 164.67C327.029 165.82 324.199 167.67 321.919 170.1C317.989 174.28 311.689 181.68 306.869 190.56C299.319 204.45 289.659 221.05 285.129 222.87C280.599 224.68 240.449 229.51 240.449 229.51V229.5Z" fill="#FBD163"/>
<path d="M319.399 225.96C322.519 222.25 325.959 217.66 329.719 212.01C330.819 210.35 333.379 210.86 333.759 212.81C335.369 220.95 338.689 236.21 342.499 244.71C347.889 256.72 354.259 265.02 354.259 265.02H428.139C428.139 265.02 431.959 259.56 432.459 246.14C425.399 238.13 407.229 246.99 393.719 238.05C379.429 228.59 364.939 232.21 361.319 211.68C357.699 191.15 350.849 178.06 343.909 187.73C336.969 197.39 327.909 192.16 326.699 201.61C325.509 210.92 319.589 225.51 319.409 225.96H319.399Z" fill="#EDBF47"/>
<path d="M319.79 104.98C322.83 108.33 325.95 110.75 325.95 110.75C325.95 110.75 334.2 108.28 338.58 110.09C339.97 110.66 341.06 112.27 341.8 114.26C343.41 118.55 343.45 124.6 341.6 125.94C338.88 127.9 331.33 129.56 330.73 132.13C330.13 134.7 336.71 146.26 343.26 146.02C355.59 145.57 349 133.64 347.94 128.66C346.88 123.68 345.37 118.7 347.19 114.77C349 110.84 356.55 111.9 356.7 119C356.85 126.1 352.93 124.13 355.04 128.96C355.04 128.96 361.79 138.45 373.66 135.74C373.66 135.74 372.26 129.02 372.7 125.03C373.41 118.63 377.13 113.55 372.6 103.89C368.07 94.23 358.36 93.03 354.28 94.99C354.28 94.99 348.09 80.04 337.98 80.65C327.87 81.25 331.49 88.95 331.49 88.95C331.49 88.95 320.47 83.21 315.19 90.76C312.24 94.98 315.95 100.73 319.8 104.97L319.79 104.98Z" fill="#3A3E49"/>
<path d="M152.97 117.62L226.89 117.62V70.2301H152.97V117.62Z" fill="#F0EBF7"/>
<path d="M161.68 112.04H218.18V85.0201H161.68V112.04Z" fill="#CBC0E0"/>
<path d="M189.93 79.73H218.18V75.35H189.93V79.73Z" fill="#CBC0E0"/>
<path d="M186.54 93.1699H215.02V90.2999H186.54V93.1699Z" fill="white"/>
<path d="M186.54 99.9697H215.02V97.0997H186.54V99.9697Z" fill="white"/>
<path d="M198.62 106.75H215.02V103.88H198.62V106.75Z" fill="white"/>
<path d="M166.82 106.75H183.22V103.88H166.82V106.75Z" fill="white"/>
<path d="M170.189 95.1298C170.189 97.7998 172.35 99.9598 175.02 99.9598C177.69 99.9598 179.849 97.7998 179.849 95.1298C179.849 92.4598 177.69 90.2998 175.02 90.2998C172.35 90.2998 170.189 92.4598 170.189 95.1298Z" fill="white"/>
<path d="M73.8694 187.81H156.569V134.8H73.8694V187.81Z" fill="#F0EBF7"/>
<path d="M83.6292 181.57H146.829V151.34H83.6292V181.57Z" fill="#CBC0E0"/>
<path d="M115.23 145.42H146.83V140.52H115.23V145.42Z" fill="#CBC0E0"/>
<path d="M111.419 160.45H143.279V157.24H111.419V160.45Z" fill="white"/>
<path d="M111.419 168.05H143.279V164.84H111.419V168.05Z" fill="white"/>
<path d="M124.929 175.66H143.279V172.45H124.929V175.66Z" fill="white"/>
<path d="M89.3698 175.66H107.72V172.45H89.3698V175.66Z" fill="white"/>
<path d="M93.1396 162.65C93.1396 165.63 95.5597 168.05 98.5397 168.05C101.52 168.05 103.94 165.63 103.94 162.65C103.94 159.67 101.52 157.25 98.5397 157.25C95.5597 157.25 93.1396 159.67 93.1396 162.65Z" fill="white"/>
<path d="M497.469 299.47C507.747 299.47 516.079 291.138 516.079 280.86C516.079 270.582 507.747 262.25 497.469 262.25C487.191 262.25 478.859 270.582 478.859 280.86C478.859 291.138 487.191 299.47 497.469 299.47Z" fill="#F38AB2"/>
<path d="M492.889 286.42C492.729 286.42 492.579 286.37 492.439 286.27L485.029 280.74L492.639 275.41C492.979 275.17 493.439 275.26 493.679 275.59C493.919 275.93 493.829 276.39 493.499 276.63L487.579 280.77L493.329 285.06C493.659 285.31 493.729 285.78 493.479 286.11C493.329 286.31 493.109 286.41 492.879 286.41L492.889 286.42Z" fill="#3A3E49"/>
<path d="M502.05 286.42C501.82 286.42 501.6 286.32 501.45 286.12C501.2 285.79 501.27 285.32 501.6 285.07L507.35 280.78L501.43 276.64C501.09 276.4 501.01 275.94 501.25 275.6C501.49 275.26 501.95 275.18 502.29 275.42L509.9 280.75L502.49 286.28C502.36 286.38 502.2 286.43 502.04 286.43L502.05 286.42Z" fill="#3A3E49"/>
<path d="M495.7 286.44C495.63 286.44 495.55 286.43 495.48 286.41C495.09 286.29 494.87 285.87 494.99 285.47L498.01 275.8C498.13 275.41 498.55 275.18 498.95 275.31C499.34 275.43 499.56 275.85 499.44 276.25L496.42 285.92C496.32 286.24 496.02 286.44 495.71 286.44H495.7Z" fill="#3A3E49"/>
<path d="M226.209 298.8C229.703 290.366 225.697 280.696 217.263 277.203C208.829 273.709 199.159 277.714 195.666 286.149C192.172 294.583 196.177 304.253 204.612 307.746C213.046 311.24 222.715 307.235 226.209 298.8Z" fill="#CBC0E0"/>
<path d="M217.76 288.7H216.51C216.35 288.03 216.18 287.47 216 287.03C215.82 286.59 215.62 286.25 215.4 286.01C215.18 285.77 214.94 285.61 214.69 285.54C214.43 285.46 214.11 285.43 213.71 285.43H212.12V298.36C212.12 298.86 212.14 299.25 212.19 299.51C212.24 299.77 212.3 299.98 212.38 300.13C212.46 300.28 212.56 300.41 212.68 300.5C212.8 300.6 212.96 300.68 213.15 300.75C213.34 300.82 213.57 300.88 213.82 300.94V301.56H208.05V300.94C208.46 300.85 208.77 300.75 208.96 300.66C209.15 300.56 209.31 300.43 209.42 300.26C209.53 300.09 209.62 299.85 209.67 299.56C209.72 299.27 209.75 298.87 209.75 298.37V285.44H208.15C207.69 285.44 207.34 285.49 207.11 285.58C206.88 285.67 206.66 285.83 206.46 286.05C206.26 286.27 206.07 286.59 205.89 287.01C205.71 287.43 205.53 288 205.34 288.73H204.1V284.34H217.76V288.73V288.7Z" fill="#3A3E49"/>
<path d="M440.199 128.81C451.057 128.81 459.859 120.008 459.859 109.15C459.859 98.2919 451.057 89.4897 440.199 89.4897C429.341 89.4897 420.539 98.2919 420.539 109.15C420.539 120.008 429.341 128.81 440.199 128.81Z" fill="#E5E7E6"/>
<path d="M436.26 112.38L443.49 115.43L446.74 112.14L443.6 104.95L433.99 100.39L433.18 101.21L438.41 106.37C438.92 106.15 439.54 106.25 439.96 106.67C440.52 107.22 440.53 108.13 439.98 108.69C439.42 109.26 438.51 109.26 437.95 108.7C437.53 108.28 437.42 107.67 437.63 107.15L432.4 101.99L431.59 102.81L436.26 112.37V112.38Z" fill="#3A3E49"/>
<path d="M448.352 111.771L443.201 116.985L444.987 118.749L450.138 113.535L448.352 111.771Z" fill="#3A3E49"/>
<path d="M434.989 312.12L436.419 320.07L458.339 442.55H460.349L445.609 320.07L444.649 312.12H434.989Z" fill="#A7ADBF"/>
<path d="M343.64 312.12L345.07 320.07L366.99 442.55H369L354.26 320.07L353.3 312.12H343.64Z" fill="#A7ADBF"/>
<path d="M305.369 442.55H307.379L329.299 320.07L330.729 312.12H321.069L320.109 320.07L305.369 442.55Z" fill="#A7ADBF"/>
<path d="M444.649 312.12H434.989L436.419 320.07H445.609L444.649 312.12Z" fill="#959BAB"/>
<path d="M353.3 312.12H343.64L345.07 320.07H354.26L353.3 312.12Z" fill="#959BAB"/>
<path d="M320.109 320.07H329.299L330.729 312.12H321.069L320.109 320.07Z" fill="#959BAB"/>
<path d="M319.25 304.47H445.25C447.36 304.47 449.07 306.18 449.07 308.29C449.07 310.4 447.36 312.11 445.25 312.11H319.25C317.14 312.11 315.43 310.4 315.43 308.29C315.43 306.18 317.14 304.47 319.25 304.47Z" fill="#A7ADBF"/>
<path d="M434.989 306.89H444.649L450.879 251.96L455.869 207.97L456.219 204.84H454.209L453.639 207.88L445.339 251.96L434.989 306.89Z" fill="#A7ADBF"/>
<path d="M343.64 306.89H353.3L359.54 251.96L364.54 207.88L364.88 204.84H362.87L362.3 207.88L353.99 251.96L343.64 306.89Z" fill="#A7ADBF"/>
<path d="M346.719 248.01H448.639C450.439 248.01 451.949 246.66 452.149 244.87L456.209 207.85C456.439 205.76 454.799 203.94 452.699 203.94H353.309C351.599 203.94 350.139 205.17 349.839 206.85L343.249 243.88C342.859 246.04 344.529 248.03 346.719 248.03V248.01Z" fill="#E5E7E6"/>
<path d="M445.34 251.96H450.88L455.87 207.96C455.62 207.91 455.37 207.88 455.11 207.88H453.64L445.34 251.96Z" fill="#959BAB"/>
<path d="M353.989 251.96H359.539L364.539 207.88H362.299L353.989 251.96Z" fill="#959BAB"/>
<path d="M151.98 442.55H160.09L160.09 253.75H151.98L151.98 442.55Z" fill="#A7ADBF"/>
<path d="M475.99 442.55H484.1V253.75H475.99V442.55Z" fill="#A7ADBF"/>
<path d="M349.13 248.92H451.05C452.85 248.92 454.36 247.57 454.56 245.78L458.62 208.75C458.85 206.66 457.21 204.84 455.11 204.84H355.72C354.01 204.84 352.55 206.07 352.25 207.75L345.66 244.78C345.28 246.94 346.94 248.93 349.13 248.93V248.92Z" fill="#A7ADBF"/>
<path d="M319.789 104.98C322.829 108.33 325.949 110.75 325.949 110.75C325.949 110.75 334.199 108.28 338.579 110.09C339.969 110.66 341.059 112.27 341.799 114.26C341.849 113.99 343.129 106.63 327.609 105.32C325.079 105.11 322.439 105.01 319.799 104.98H319.789Z" fill="#24292F"/>
<path d="M185.199 220.14H252.529V178.68H185.199V220.14Z" fill="#E5E7E6"/>
<path d="M252.529 178.67H185.199V183.1H252.529V178.67Z" fill="#A7ADBF"/>
<path d="M189.349 180.89C189.349 181.27 189.049 181.57 188.669 181.57C188.289 181.57 187.989 181.27 187.989 180.89C187.989 180.51 188.289 180.21 188.669 180.21C189.049 180.21 189.349 180.51 189.349 180.89Z" fill="white"/>
<path d="M191.919 181.57C192.295 181.57 192.599 181.266 192.599 180.89C192.599 180.514 192.295 180.21 191.919 180.21C191.544 180.21 191.239 180.514 191.239 180.89C191.239 181.266 191.544 181.57 191.919 181.57Z" fill="white"/>
<path d="M195.37 181.57C195.745 181.57 196.05 181.266 196.05 180.89C196.05 180.514 195.745 180.21 195.37 180.21C194.994 180.21 194.689 180.514 194.689 180.89C194.689 181.266 194.994 181.57 195.37 181.57Z" fill="white"/>
<path d="M247.039 213.08H215.489V214.1H247.039V213.08Z" fill="white"/>
<path d="M247.039 207.04H215.489V208.06H247.039V207.04Z" fill="white"/>
<path d="M247.039 201H215.489V202.02H247.039V201Z" fill="white"/>
<path d="M247.039 194.96H215.489V195.98H247.039V194.96Z" fill="white"/>
<path d="M247.039 188.92H215.489V189.94H247.039V188.92Z" fill="white"/>
<path d="M190.779 214.1H209.649V188.93H190.779V214.1Z" fill="white"/>
<path d="M236.079 160.46H285.609C286.509 160.46 287.239 159.73 287.239 158.83V145.66C287.239 144.76 286.509 144.03 285.609 144.03H236.079C235.179 144.03 234.449 144.76 234.449 145.66V158.83C234.449 159.73 235.179 160.46 236.079 160.46Z" fill="#CBC0E0"/>
<path d="M274.589 152.25C274.589 154.54 276.449 156.4 278.739 156.4C281.029 156.4 282.889 154.54 282.889 152.25C282.889 149.96 281.029 148.1 278.739 148.1C276.449 148.1 274.589 149.96 274.589 152.25Z" fill="white"/>
<path d="M239.079 152.76H270.629V151.74H239.079V152.76Z" fill="white"/>
<path d="M253.99 155.99H270.64V154.97H253.99V155.99Z" fill="white"/>
<path d="M239.079 149.64H270.629V148.62H239.079V149.64Z" fill="white"/>
<path d="M225.06 170.07H274.59C275.49 170.07 276.22 169.34 276.22 168.44V155.27C276.22 154.37 275.49 153.64 274.59 153.64H225.06C224.159 153.64 223.43 154.37 223.43 155.27V168.44C223.43 169.34 224.159 170.07 225.06 170.07Z" fill="#7DD0E2"/>
<path d="M267.719 166C270.011 166 271.869 164.142 271.869 161.85C271.869 159.558 270.011 157.7 267.719 157.7C265.427 157.7 263.569 159.558 263.569 161.85C263.569 164.142 265.427 166 267.719 166Z" fill="white"/>
<path d="M228.059 162.359H259.609V161.339H228.059V162.359Z" fill="white"/>
<path d="M242.969 165.59H259.619V164.57H242.969V165.59Z" fill="white"/>
<path d="M228.059 159.229H259.609V158.209H228.059V159.229Z" fill="white"/>
<path d="M213.85 179.46H263.38C264.28 179.46 265.01 178.73 265.01 177.83V164.66C265.01 163.76 264.28 163.03 263.38 163.03H213.85C212.95 163.03 212.22 163.76 212.22 164.66V177.83C212.22 178.73 212.95 179.46 213.85 179.46Z" fill="#F38AB2"/>
<path d="M256.509 175.4C258.801 175.4 260.659 173.542 260.659 171.25C260.659 168.958 258.801 167.1 256.509 167.1C254.217 167.1 252.359 168.958 252.359 171.25C252.359 173.542 254.217 175.4 256.509 175.4Z" fill="white"/>
<path d="M216.849 171.75H248.399V170.73H216.849V171.75Z" fill="white"/>
<path d="M231.76 174.99H248.41V173.97H231.76V174.99Z" fill="white"/>
<path d="M216.849 168.63H248.399V167.61H216.849V168.63Z" fill="white"/>
<path d="M120.029 358.61C120.029 346.01 130.279 335.76 142.879 335.76C155.479 335.76 165.729 346.01 165.729 358.61C165.729 371.21 155.479 381.46 142.879 381.46C130.279 381.46 120.029 371.21 120.029 358.61Z" fill="#C2E7F0"/>
<path d="M133.419 349.15H152.339V368.07H133.419V349.15ZM151.729 349.75H134.019V367.46H151.729V349.75Z" fill="#3A3E49"/>
<path d="M143.489 345.9H142.279V371.19H143.489V345.9Z" fill="#3A3E49"/>
<path d="M155.464 357.967L130.174 358.091L130.18 359.301L155.469 359.177L155.464 357.967Z" fill="#3A3E49"/>
<path d="M288.813 345.896L256.864 402.434L257.387 402.729L289.335 346.191L288.813 345.896Z" fill="white"/>
</svg>
